{"glyphs":{"0":{"ha":833,"x_min":103,"x_max":731,"o":"m 417 -14 q 188 68 272 -14 q 103 288 103 150 l 103 728 q 188 946 103 864 q 417 1028 272 1028 q 646 946 561 1028 q 731 728 731 864 l 731 288 q 692 128 731 196 q 583 24 653 61 q 417 -14 513 -14 m 417 115 q 541 163 494 115 q 588 288 588 210 l 588 728 q 541 851 588 804 q 417 899 494 899 q 292 851 339 899 q 246 728 246 804 l 246 288 q 292 163 246 210 q 417 115 339 115 m 417 426 q 353 449 378 426 q 329 511 329 471 q 353 572 329 550 q 417 593 378 593 q 480 572 456 593 q 504 511 504 550 q 480 449 504 471 q 417 426 456 426 z "},"1":{"ha":833,"x_min":119,"x_max":758,"o":"m 121 0 l 121 136 l 390 136 l 390 875 l 119 675 l 119 844 l 351 1014 l 540 1014 l 540 136 l 758 136 l 758 0 l 121 0 z "},"2":{"ha":833,"x_min":96,"x_max":739,"o":"m 111 0 l 111 136 l 463 504 q 547 621 521 567 q 574 726 574 675 q 531 849 574 803 q 413 894 488 894 q 291 847 336 894 q 246 721 246 800 l 96 721 q 138 883 99 814 q 249 990 178 951 q 415 1028 321 1028 q 580 991 510 1028 q 689 888 650 954 q 728 731 728 821 q 690 576 728 656 q 561 406 651 497 l 297 136 l 739 136 l 739 0 l 111 0 z "},"3":{"ha":833,"x_min":90,"x_max":721,"o":"m 404 -14 q 174 65 258 -14 q 90 278 90 143 l 240 278 q 285 161 240 204 q 406 118 329 118 q 526 161 482 118 q 571 278 571 204 l 571 350 q 526 469 571 426 q 406 513 482 513 l 288 513 l 288 638 l 528 881 l 122 881 l 122 1014 l 694 1014 l 694 882 l 456 640 q 650 551 579 628 q 721 351 721 474 l 721 278 q 635 65 721 143 q 404 -14 550 -14 z "},"4":{"ha":833,"x_min":90,"x_max":693,"o":"m 543 0 l 543 211 l 90 211 l 90 436 l 461 1014 l 629 1014 l 236 399 l 236 346 l 543 346 l 543 583 l 693 583 l 693 0 l 543 0 z "},"5":{"ha":833,"x_min":94,"x_max":726,"o":"m 410 -14 q 180 65 265 -14 q 94 278 94 143 l 244 278 q 290 161 244 204 q 411 118 335 118 q 532 161 488 118 q 576 281 576 204 l 576 344 q 533 463 576 419 q 415 507 490 507 l 129 507 l 129 1014 l 689 1014 l 689 878 l 271 878 l 272 640 l 422 640 q 647 563 567 640 q 726 344 726 486 l 726 281 q 642 65 726 144 q 410 -14 557 -14 z "},"6":{"ha":833,"x_min":81,"x_max":753,"o":"m 418 -14 q 241 28 317 -14 q 123 143 165 69 q 81 317 81 217 q 106 453 81 379 q 176 604 132 526 l 403 1014 l 571 1014 l 315 574 l 321 569 q 378 611 340 596 q 463 626 415 626 q 614 588 549 626 q 716 478 679 549 q 753 317 753 408 q 710 142 753 217 q 593 27 668 68 q 418 -14 518 -14 m 417 117 q 553 171 501 117 q 604 314 604 225 q 553 457 604 403 q 417 511 501 511 q 281 457 332 511 q 229 314 229 403 q 281 171 229 225 q 417 117 332 117 z "},"7":{"ha":833,"x_min":104,"x_max":768,"o":"m 242 0 l 607 881 l 254 881 l 254 715 l 104 715 l 104 1014 l 768 1014 l 768 879 l 406 0 l 242 0 z "},"8":{"ha":833,"x_min":82,"x_max":751,"o":"m 417 -14 q 242 24 318 -14 q 124 128 167 61 q 82 285 82 196 q 136 449 82 379 q 279 535 190 518 l 279 539 q 157 615 203 554 q 111 758 111 676 q 149 899 111 838 q 257 994 188 960 q 417 1028 326 1028 q 576 994 507 1028 q 685 899 646 960 q 724 758 724 838 q 677 615 724 676 q 554 539 631 554 l 554 535 q 697 449 643 518 q 751 285 751 379 q 709 128 751 196 q 591 24 667 61 q 417 -14 515 -14 m 417 593 q 531 635 488 593 q 575 746 575 678 q 531 858 575 815 q 417 900 488 900 q 302 858 346 900 q 258 746 258 815 q 302 635 258 678 q 417 593 346 593 m 417 117 q 551 165 499 117 q 603 290 603 213 q 551 418 603 369 q 417 467 499 467 q 283 418 335 467 q 231 290 231 369 q 283 165 231 213 q 417 117 335 117 z "},"9":{"ha":833,"x_min":81,"x_max":753,"o":"m 257 0 l 504 429 l 501 425 q 456 396 485 408 q 379 383 426 383 q 226 424 293 383 q 119 535 158 464 q 81 697 81 606 q 123 872 81 797 q 240 987 165 946 q 415 1028 315 1028 q 592 987 517 1028 q 710 872 668 946 q 753 699 753 797 q 727 561 753 635 q 658 410 701 488 l 431 0 l 257 0 m 417 503 q 553 557 501 503 q 604 700 604 611 q 553 844 604 789 q 417 899 501 899 q 281 844 332 899 q 229 700 229 789 q 281 557 229 611 q 417 503 332 503 z "},"A":{"ha":833,"x_min":60,"x_max":775,"o":"m 60 0 l 318 1014 l 515 1014 l 775 0 l 622 0 l 561 257 l 274 257 l 213 0 l 60 0 m 301 382 l 532 382 l 463 674 q 433 808 444 751 q 417 888 421 865 q 401 808 413 865 q 371 675 390 751 l 301 382 z "},"Á":{"ha":833,"x_min":60,"x_max":775,"o":"m 60 0 l 318 1014 l 515 1014 l 775 0 l 622 0 l 561 257 l 274 257 l 213 0 l 60 0 m 301 382 l 532 382 l 463 674 q 433 808 444 751 q 417 888 421 865 q 401 808 413 865 q 371 675 390 751 l 301 382 m 324 1125 l 471 1319 l 632 1319 l 475 1125 l 324 1125 z "},"Ă":{"ha":833,"x_min":60,"x_max":775,"o":"m 60 0 l 318 1014 l 515 1014 l 775 0 l 622 0 l 561 257 l 274 257 l 213 0 l 60 0 m 301 382 l 532 382 l 463 674 q 433 808 444 751 q 417 888 421 865 q 401 808 413 865 q 371 675 390 751 l 301 382 m 417 1117 q 249 1172 313 1117 q 185 1319 185 1228 l 301 1319 q 333 1239 301 1269 q 415 1208 364 1208 q 500 1239 468 1208 q 532 1319 532 1269 l 650 1319 q 585 1172 650 1228 q 417 1117 521 1117 z "},"Ắ":{"ha":833,"x_min":60,"x_max":775,"o":"m 326 1253 l 472 1417 l 619 1417 l 465 1253 l 326 1253 m 378 1083 q 228 1133 283 1083 q 172 1267 172 1182 l 281 1267 q 306 1199 281 1224 q 378 1175 332 1175 l 454 1175 q 526 1199 500 1175 q 553 1267 553 1224 l 661 1267 q 605 1133 661 1182 q 454 1083 549 1083 l 378 1083 m 60 0 l 318 1014 l 515 1014 l 775 0 l 622 0 l 561 257 l 274 257 l 213 0 l 60 0 m 301 382 l 532 382 l 463 674 q 433 808 444 751 q 417 888 421 865 q 401 808 413 865 q 371 675 390 751 l 301 382 z "},"Ặ":{"ha":833,"x_min":60,"x_max":775,"o":"m 417 1117 q 249 1172 313 1117 q 185 1319 185 1228 l 301 1319 q 333 1239 301 1269 q 415 1208 364 1208 q 500 1239 468 1208 q 532 1319 532 1269 l 650 1319 q 585 1172 650 1228 q 417 1117 521 1117 m 60 0 l 318 1014 l 515 1014 l 775 0 l 622 0 l 561 257 l 274 257 l 213 0 l 60 0 m 301 382 l 532 382 l 463 674 q 433 808 444 751 q 417 888 421 865 q 401 808 413 865 q 371 675 390 751 l 301 382 m 417 -304 q 339 -279 368 -304 q 310 -210 310 -254 q 339 -141 310 -167 q 417 -115 368 -115 q 494 -141 465 -115 q 524 -210 524 -167 q 494 -279 524 -254 q 417 -304 465 -304 z "},"Ằ":{"ha":833,"x_min":60,"x_max":775,"o":"m 60 0 l 318 1014 l 515 1014 l 775 0 l 622 0 l 561 257 l 274 257 l 213 0 l 60 0 m 301 382 l 532 382 l 463 674 q 433 808 444 751 q 417 888 421 865 q 401 808 413 865 q 371 675 390 751 l 301 382 m 372 1253 l 235 1417 l 378 1417 l 506 1253 l 372 1253 m 378 1083 q 228 1133 283 1083 q 172 1267 172 1182 l 281 1267 q 306 1199 281 1224 q 378 1175 332 1175 l 454 1175 q 526 1199 500 1175 q 553 1267 553 1224 l 661 1267 q 605 1133 661 1182 q 454 1083 549 1083 l 378 1083 z "},"Ẳ":{"ha":833,"x_min":60,"x_max":775,"o":"m 60 0 l 318 1014 l 515 1014 l 775 0 l 622 0 l 561 257 l 274 257 l 213 0 l 60 0 m 301 382 l 532 382 l 463 674 q 433 808 444 751 q 417 888 421 865 q 401 808 413 865 q 371 675 390 751 l 301 382 m 351 1226 l 407 1293 q 418 1317 418 1306 q 401 1329 418 1329 l 303 1329 l 303 1417 l 438 1417 q 503 1397 481 1417 q 526 1343 526 1378 q 503 1269 526 1301 l 468 1226 l 351 1226 m 378 1083 q 228 1133 283 1083 q 172 1267 172 1182 l 281 1267 q 306 1199 281 1224 q 378 1175 332 1175 l 454 1175 q 526 1199 500 1175 q 553 1267 553 1224 l 661 1267 q 605 1133 661 1182 q 454 1083 549 1083 l 378 1083 z "},"Ẵ":{"ha":833,"x_min":60,"x_max":775,"o":"m 60 0 l 318 1014 l 515 1014 l 775 0 l 622 0 l 561 257 l 274 257 l 213 0 l 60 0 m 301 382 l 532 382 l 463 674 q 433 808 444 751 q 417 888 421 865 q 401 808 413 865 q 371 675 390 751 l 301 382 m 525 1274 q 434 1289 468 1274 q 375 1319 400 1304 q 319 1333 350 1333 q 291 1323 301 1333 q 281 1294 281 1313 l 281 1286 l 182 1286 l 182 1294 q 217 1383 182 1350 q 311 1417 251 1417 q 401 1401 368 1417 q 459 1372 435 1386 q 514 1357 483 1357 q 543 1367 532 1357 q 554 1396 554 1378 l 554 1406 l 653 1406 l 653 1396 q 618 1307 653 1340 q 525 1274 583 1274 m 375 1083 q 234 1124 286 1083 q 182 1246 182 1165 l 289 1246 q 311 1192 289 1208 q 372 1175 333 1175 l 461 1175 q 522 1192 500 1175 q 544 1246 544 1208 l 653 1246 q 600 1124 653 1165 q 458 1083 547 1083 l 375 1083 z "},"Ǎ":{"ha":833,"x_min":60,"x_max":775,"o":"m 60 0 l 318 1014 l 515 1014 l 775 0 l 622 0 l 561 257 l 274 257 l 213 0 l 60 0 m 301 382 l 532 382 l 463 674 q 433 808 444 751 q 417 888 421 865 q 401 808 413 865 q 371 675 390 751 l 301 382 m 347 1125 l 156 1319 l 308 1319 l 418 1214 l 524 1319 l 678 1319 l 486 1125 l 347 1125 z "},"Â":{"ha":833,"x_min":60,"x_max":775,"o":"m 60 0 l 318 1014 l 515 1014 l 775 0 l 622 0 l 561 257 l 274 257 l 213 0 l 60 0 m 301 382 l 532 382 l 463 674 q 433 808 444 751 q 417 888 421 865 q 401 808 413 865 q 371 675 390 751 l 301 382 m 156 1125 l 347 1319 l 486 1319 l 678 1125 l 525 1125 l 415 1231 l 310 1125 l 156 1125 z "},"Ấ":{"ha":833,"x_min":60,"x_max":878,"o":"m 60 0 l 318 1014 l 515 1014 l 775 0 l 622 0 l 561 257 l 274 257 l 213 0 l 60 0 m 301 382 l 532 382 l 463 674 q 433 808 444 751 q 417 888 421 865 q 401 808 413 865 q 371 675 390 751 l 301 382 m 572 1253 l 718 1417 l 878 1417 l 722 1253 l 572 1253 m 157 1083 l 347 1278 l 486 1278 l 678 1083 l 524 1083 l 417 1189 l 310 1083 l 157 1083 z "},"Ậ":{"ha":833,"x_min":60,"x_max":775,"o":"m 156 1125 l 347 1319 l 486 1319 l 678 1125 l 525 1125 l 415 1231 l 310 1125 l 156 1125 m 60 0 l 318 1014 l 515 1014 l 775 0 l 622 0 l 561 257 l 274 257 l 213 0 l 60 0 m 301 382 l 532 382 l 463 674 q 433 808 444 751 q 417 888 421 865 q 401 808 413 865 q 371 675 390 751 l 301 382 m 417 -304 q 339 -279 368 -304 q 310 -210 310 -254 q 339 -141 310 -167 q 417 -115 368 -115 q 494 -141 465 -115 q 524 -210 524 -167 q 494 -279 524 -254 q 417 -304 465 -304 z "},"Ầ":{"ha":833,"x_min":60,"x_max":775,"o":"m 60 0 l 318 1014 l 515 1014 l 775 0 l 622 0 l 561 257 l 274 257 l 213 0 l 60 0 m 301 382 l 532 382 l 463 674 q 433 808 444 751 q 417 888 421 865 q 401 808 413 865 q 371 675 390 751 l 301 382 m 622 1253 l 458 1417 l 615 1417 l 771 1253 l 622 1253 m 157 1083 l 347 1278 l 486 1278 l 678 1083 l 524 1083 l 417 1189 l 310 1083 l 157 1083 z "},"Ẩ":{"ha":833,"x_min":60,"x_max":781,"o":"m 60 0 l 318 1014 l 515 1014 l 775 0 l 622 0 l 561 257 l 274 257 l 213 0 l 60 0 m 301 382 l 532 382 l 463 674 q 433 808 444 751 q 417 888 421 865 q 401 808 413 865 q 371 675 390 751 l 301 382 m 590 1218 l 651 1278 q 665 1306 665 1292 q 640 1329 665 1329 l 547 1329 l 547 1417 l 669 1417 q 750 1391 719 1417 q 781 1322 781 1365 q 756 1258 781 1282 l 713 1218 l 590 1218 m 157 1083 l 347 1278 l 486 1278 l 678 1083 l 524 1083 l 417 1189 l 310 1083 l 157 1083 z "},"Ẫ":{"ha":833,"x_min":60,"x_max":775,"o":"m 60 0 l 318 1014 l 515 1014 l 775 0 l 622 0 l 561 257 l 274 257 l 213 0 l 60 0 m 301 382 l 532 382 l 463 674 q 433 808 444 751 q 417 888 421 865 q 401 808 413 865 q 371 675 390 751 l 301 382 m 525 1274 q 434 1289 468 1274 q 375 1319 400 1304 q 319 1333 350 1333 q 291 1323 301 1333 q 281 1294 281 1313 l 281 1286 l 182 1286 l 182 1294 q 217 1383 182 1350 q 311 1417 251 1417 q 401 1401 368 1417 q 459 1372 435 1386 q 514 1357 483 1357 q 543 1367 532 1357 q 554 1396 554 1378 l 554 1406 l 653 1406 l 653 1396 q 618 1307 653 1340 q 525 1274 583 1274 m 157 1083 l 308 1233 l 525 1233 l 678 1083 l 522 1083 l 417 1186 l 310 1083 l 157 1083 z "},"Ä":{"ha":833,"x_min":60,"x_max":775,"o":"m 60 0 l 318 1014 l 515 1014 l 775 0 l 622 0 l 561 257 l 274 257 l 213 0 l 60 0 m 301 382 l 532 382 l 463 674 q 433 808 444 751 q 417 888 421 865 q 401 808 413 865 q 371 675 390 751 l 301 382 m 575 1129 q 506 1154 532 1129 q 481 1222 481 1179 q 506 1292 481 1267 q 575 1318 532 1318 q 645 1292 619 1318 q 671 1222 671 1267 q 645 1154 671 1179 q 575 1129 619 1129 m 258 1129 q 188 1154 214 1129 q 163 1222 163 1179 q 188 1292 163 1267 q 258 1318 214 1318 q 328 1292 301 1318 q 354 1222 354 1267 q 328 1154 354 1179 q 258 1129 301 1129 z "},"Ạ":{"ha":833,"x_min":60,"x_max":775,"o":"m 60 0 l 318 1014 l 515 1014 l 775 0 l 622 0 l 561 257 l 274 257 l 213 0 l 60 0 m 301 382 l 532 382 l 463 674 q 433 808 444 751 q 417 888 421 865 q 401 808 413 865 q 371 675 390 751 l 301 382 m 417 -304 q 339 -279 368 -304 q 310 -210 310 -254 q 339 -141 310 -167 q 417 -115 368 -115 q 494 -141 465 -115 q 524 -210 524 -167 q 494 -279 524 -254 q 417 -304 465 -304 z "},"À":{"ha":833,"x_min":60,"x_max":775,"o":"m 60 0 l 318 1014 l 515 1014 l 775 0 l 622 0 l 561 257 l 274 257 l 213 0 l 60 0 m 301 382 l 532 382 l 463 674 q 433 808 444 751 q 417 888 421 865 q 401 808 413 865 q 371 675 390 751 l 301 382 m 358 1125 l 197 1319 l 364 1319 l 514 1125 l 358 1125 z "},"Ả":{"ha":833,"x_min":60,"x_max":775,"o":"m 60 0 l 318 1014 l 515 1014 l 775 0 l 622 0 l 561 257 l 274 257 l 213 0 l 60 0 m 301 382 l 532 382 l 463 674 q 433 808 444 751 q 417 888 421 865 q 401 808 413 865 q 371 675 390 751 l 301 382 m 353 1110 l 417 1194 q 436 1238 436 1221 q 394 1265 436 1265 l 288 1265 l 288 1364 l 410 1364 q 515 1334 475 1364 q 556 1254 556 1304 q 529 1178 556 1213 l 481 1110 l 353 1110 z "},"Ā":{"ha":833,"x_min":60,"x_max":775,"o":"m 60 0 l 318 1014 l 515 1014 l 775 0 l 622 0 l 561 257 l 274 257 l 213 0 l 60 0 m 301 382 l 532 382 l 463 674 q 433 808 444 751 q 417 888 421 865 q 401 808 413 865 q 371 675 390 751 l 301 382 m 186 1158 l 186 1278 l 647 1278 l 647 1158 l 186 1158 z "},"Ą":{"ha":833,"x_min":60,"x_max":807,"o":"m 60 0 l 318 1014 l 515 1014 l 775 0 l 735 0 l 726 -7 q 647 -125 647 -74 q 667 -171 647 -153 q 719 -189 686 -189 l 807 -189 l 807 -292 l 686 -292 q 560 -253 607 -292 q 513 -156 513 -214 q 539 -76 513 -115 q 622 1 565 -37 l 561 257 l 274 257 l 213 0 l 60 0 m 301 382 l 532 382 l 463 674 q 433 808 444 751 q 417 888 421 865 q 401 808 413 865 q 371 675 390 751 l 301 382 z "},"Å":{"ha":833,"x_min":60,"x_max":775,"o":"m 60 0 l 318 1014 l 515 1014 l 775 0 l 622 0 l 561 257 l 274 257 l 213 0 l 60 0 m 301 382 l 532 382 l 463 674 q 433 808 444 751 q 417 888 421 865 q 401 808 413 865 q 371 675 390 751 l 301 382 m 417 1058 q 290 1103 338 1058 q 242 1222 242 1149 q 290 1341 242 1296 q 417 1386 338 1386 q 544 1341 496 1386 q 592 1222 592 1296 q 544 1103 592 1149 q 417 1058 496 1058 m 417 1139 q 477 1162 454 1139 q 500 1222 500 1185 q 477 1283 500 1260 q 417 1307 454 1307 q 356 1283 379 1307 q 333 1222 333 1260 q 356 1162 333 1185 q 417 1139 379 1139 z "},"Ã":{"ha":833,"x_min":60,"x_max":775,"o":"m 60 0 l 318 1014 l 515 1014 l 775 0 l 622 0 l 561 257 l 274 257 l 213 0 l 60 0 m 301 382 l 532 382 l 463 674 q 433 808 444 751 q 417 888 421 865 q 401 808 413 865 q 371 675 390 751 l 301 382 m 514 1126 q 444 1140 471 1126 q 400 1172 418 1154 q 365 1205 382 1190 q 326 1219 349 1219 q 285 1171 285 1219 l 285 1133 l 186 1133 l 186 1176 q 223 1281 186 1242 q 319 1319 260 1319 q 389 1305 363 1319 q 433 1272 415 1290 q 468 1240 451 1254 q 507 1226 485 1226 q 549 1271 549 1226 l 549 1313 l 647 1313 l 647 1268 q 610 1165 647 1203 q 514 1126 574 1126 z "},"Æ":{"ha":833,"x_min":29,"x_max":796,"o":"m 29 0 l 228 1014 l 796 1014 l 796 882 l 550 882 l 550 590 l 761 590 l 761 456 l 550 456 l 550 132 l 796 132 l 796 0 l 415 0 l 415 267 l 226 267 l 178 0 l 29 0 m 247 383 l 415 383 l 415 882 l 340 882 l 247 383 z "},"Ǽ":{"ha":833,"x_min":29,"x_max":796,"o":"m 29 0 l 228 1014 l 796 1014 l 796 882 l 550 882 l 550 590 l 761 590 l 761 456 l 550 456 l 550 132 l 796 132 l 796 0 l 415 0 l 415 267 l 226 267 l 178 0 l 29 0 m 247 383 l 415 383 l 415 882 l 340 882 l 247 383 m 324 1125 l 471 1319 l 632 1319 l 475 1125 l 324 1125 z "},"B":{"ha":833,"x_min":118,"x_max":749,"o":"m 118 0 l 118 1014 l 417 1014 q 642 944 560 1014 q 725 751 725 874 q 676 610 725 671 q 550 536 628 550 l 550 532 q 653 490 608 525 q 724 403 699 456 q 749 285 749 350 q 664 77 749 154 q 436 0 579 0 l 118 0 m 264 589 l 415 589 q 533 628 489 589 q 576 738 576 668 q 533 845 576 806 q 417 885 490 885 l 264 885 l 264 589 m 264 129 l 424 129 q 553 173 506 129 q 600 292 600 217 q 553 417 600 369 q 424 464 506 464 l 264 464 l 264 129 z "},"C":{"ha":833,"x_min":117,"x_max":738,"o":"m 428 -14 q 201 66 285 -14 q 117 282 117 146 l 117 732 q 201 949 117 869 q 428 1028 285 1028 q 653 948 569 1028 q 738 732 738 868 l 588 732 q 545 853 588 811 q 428 894 503 894 q 309 853 351 894 q 267 732 267 811 l 267 282 q 309 161 267 203 q 428 119 351 119 q 545 161 503 119 q 588 282 588 203 l 738 282 q 653 66 738 146 q 428 -14 569 -14 z "},"Ć":{"ha":833,"x_min":117,"x_max":738,"o":"m 428 -14 q 201 66 285 -14 q 117 282 117 146 l 117 732 q 201 949 117 869 q 428 1028 285 1028 q 653 948 569 1028 q 738 732 738 868 l 588 732 q 545 853 588 811 q 428 894 503 894 q 309 853 351 894 q 267 732 267 811 l 267 282 q 309 161 267 203 q 428 119 351 119 q 545 161 503 119 q 588 282 588 203 l 738 282 q 653 66 738 146 q 428 -14 569 -14 m 331 1125 l 478 1319 l 639 1319 l 482 1125 l 331 1125 z "},"Č":{"ha":833,"x_min":117,"x_max":738,"o":"m 428 -14 q 201 66 285 -14 q 117 282 117 146 l 117 732 q 201 949 117 869 q 428 1028 285 1028 q 653 948 569 1028 q 738 732 738 868 l 588 732 q 545 853 588 811 q 428 894 503 894 q 309 853 351 894 q 267 732 267 811 l 267 282 q 309 161 267 203 q 428 119 351 119 q 545 161 503 119 q 588 282 588 203 l 738 282 q 653 66 738 146 q 428 -14 569 -14 m 354 1125 l 163 1319 l 315 1319 l 425 1214 l 531 1319 l 685 1319 l 493 1125 l 354 1125 z "},"Ç":{"ha":833,"x_min":117,"x_max":738,"o":"m 288 -292 l 288 -208 l 389 -208 q 440 -192 421 -208 q 460 -158 460 -176 q 420 -114 460 -132 q 310 -96 381 -96 l 343 -6 q 177 92 238 17 q 117 282 117 167 l 117 732 q 201 949 117 869 q 428 1028 285 1028 q 653 948 569 1028 q 738 732 738 868 l 588 732 q 545 853 588 811 q 428 894 503 894 q 309 853 351 894 q 267 732 267 811 l 267 282 q 309 161 267 203 q 428 119 351 119 q 545 161 503 119 q 588 282 588 203 l 738 282 q 653 66 738 146 q 428 -14 569 -14 l 428 -14 l 415 -50 q 494 -69 453 -54 q 563 -109 535 -83 q 592 -172 592 -135 q 543 -256 592 -221 q 417 -292 494 -292 l 288 -292 z "},"Ĉ":{"ha":833,"x_min":117,"x_max":738,"o":"m 428 -14 q 201 66 285 -14 q 117 282 117 146 l 117 732 q 201 949 117 869 q 428 1028 285 1028 q 653 948 569 1028 q 738 732 738 868 l 588 732 q 545 853 588 811 q 428 894 503 894 q 309 853 351 894 q 267 732 267 811 l 267 282 q 309 161 267 203 q 428 119 351 119 q 545 161 503 119 q 588 282 588 203 l 738 282 q 653 66 738 146 q 428 -14 569 -14 m 163 1125 l 354 1319 l 493 1319 l 685 1125 l 532 1125 l 422 1231 l 317 1125 l 163 1125 z "},"Ċ":{"ha":833,"x_min":117,"x_max":738,"o":"m 428 -14 q 201 66 285 -14 q 117 282 117 146 l 117 732 q 201 949 117 869 q 428 1028 285 1028 q 653 948 569 1028 q 738 732 738 868 l 588 732 q 545 853 588 811 q 428 894 503 894 q 309 853 351 894 q 267 732 267 811 l 267 282 q 309 161 267 203 q 428 119 351 119 q 545 161 503 119 q 588 282 588 203 l 738 282 q 653 66 738 146 q 428 -14 569 -14 m 424 1128 q 346 1153 375 1128 q 317 1222 317 1179 q 346 1291 317 1265 q 424 1317 375 1317 q 501 1291 472 1317 q 531 1222 531 1265 q 501 1153 531 1179 q 424 1128 472 1128 z "},"D":{"ha":833,"x_min":115,"x_max":728,"o":"m 115 0 l 115 1014 l 399 1014 q 572 976 499 1014 q 687 867 646 938 q 728 704 728 797 l 728 313 q 687 147 728 217 q 572 39 646 78 q 399 0 499 0 l 115 0 m 265 135 l 399 135 q 529 182 481 135 q 578 313 578 229 l 578 704 q 529 833 578 785 q 399 881 481 881 l 265 881 l 265 135 z "},"Ð":{"ha":833,"x_min":14,"x_max":728,"o":"m 115 0 l 115 461 l 14 461 l 14 574 l 115 574 l 115 1014 l 399 1014 q 572 976 499 1014 q 687 867 646 938 q 728 704 728 797 l 728 313 q 687 147 728 217 q 572 39 646 78 q 399 0 499 0 l 115 0 m 265 135 l 399 135 q 529 182 481 135 q 578 313 578 229 l 578 704 q 529 833 578 785 q 399 881 481 881 l 265 881 l 265 574 l 403 574 l 403 461 l 265 461 l 265 135 z "},"Ď":{"ha":833,"x_min":115,"x_max":728,"o":"m 115 0 l 115 1014 l 399 1014 q 572 976 499 1014 q 687 867 646 938 q 728 704 728 797 l 728 313 q 687 147 728 217 q 572 39 646 78 q 399 0 499 0 l 115 0 m 265 135 l 399 135 q 529 182 481 135 q 578 313 578 229 l 578 704 q 529 833 578 785 q 399 881 481 881 l 265 881 l 265 135 m 347 1125 l 156 1319 l 308 1319 l 418 1214 l 524 1319 l 678 1319 l 486 1125 l 347 1125 z "},"Đ":{"ha":833,"x_min":14,"x_max":728,"o":"m 115 0 l 115 461 l 14 461 l 14 574 l 115 574 l 115 1014 l 399 1014 q 572 976 499 1014 q 687 867 646 938 q 728 704 728 797 l 728 313 q 687 147 728 217 q 572 39 646 78 q 399 0 499 0 l 115 0 m 265 135 l 399 135 q 529 182 481 135 q 578 313 578 229 l 578 704 q 529 833 578 785 q 399 881 481 881 l 265 881 l 265 574 l 403 574 l 403 461 l 265 461 l 265 135 z "},"E":{"ha":833,"x_min":131,"x_max":726,"o":"m 131 0 l 131 1014 l 726 1014 l 726 881 l 278 881 l 278 592 l 678 592 l 678 463 l 278 463 l 278 133 l 726 133 l 726 0 l 131 0 z "},"É":{"ha":833,"x_min":131,"x_max":726,"o":"m 131 0 l 131 1014 l 726 1014 l 726 881 l 278 881 l 278 592 l 678 592 l 678 463 l 278 463 l 278 133 l 726 133 l 726 0 l 131 0 m 336 1125 l 483 1319 l 644 1319 l 488 1125 l 336 1125 z "},"Ĕ":{"ha":833,"x_min":131,"x_max":726,"o":"m 131 0 l 131 1014 l 726 1014 l 726 881 l 278 881 l 278 592 l 678 592 l 678 463 l 278 463 l 278 133 l 726 133 l 726 0 l 131 0 m 429 1117 q 261 1172 325 1117 q 197 1319 197 1228 l 314 1319 q 345 1239 314 1269 q 428 1208 376 1208 q 513 1239 481 1208 q 544 1319 544 1269 l 663 1319 q 598 1172 663 1228 q 429 1117 533 1117 z "},"Ě":{"ha":833,"x_min":131,"x_max":726,"o":"m 131 0 l 131 1014 l 726 1014 l 726 881 l 278 881 l 278 592 l 678 592 l 678 463 l 278 463 l 278 133 l 726 133 l 726 0 l 131 0 m 360 1125 l 168 1319 l 321 1319 l 431 1214 l 536 1319 l 690 1319 l 499 1125 l 360 1125 z "},"Ê":{"ha":833,"x_min":131,"x_max":726,"o":"m 131 0 l 131 1014 l 726 1014 l 726 881 l 278 881 l 278 592 l 678 592 l 678 463 l 278 463 l 278 133 l 726 133 l 726 0 l 131 0 m 168 1125 l 360 1319 l 499 1319 l 690 1125 l 538 1125 l 428 1231 l 322 1125 l 168 1125 z "},"Ế":{"ha":833,"x_min":131,"x_max":890,"o":"m 131 0 l 131 1014 l 726 1014 l 726 881 l 278 881 l 278 592 l 678 592 l 678 463 l 278 463 l 278 133 l 726 133 l 726 0 l 131 0 m 585 1253 l 731 1417 l 890 1417 l 735 1253 l 585 1253 m 169 1083 l 360 1278 l 499 1278 l 690 1083 l 536 1083 l 429 1189 l 322 1083 l 169 1083 z "},"Ệ":{"ha":833,"x_min":131,"x_max":726,"o":"m 131 0 l 131 1014 l 726 1014 l 726 881 l 278 881 l 278 592 l 678 592 l 678 463 l 278 463 l 278 133 l 726 133 l 726 0 l 131 0 m 429 -304 q 351 -279 381 -304 q 322 -210 322 -254 q 351 -141 322 -167 q 429 -115 381 -115 q 507 -141 478 -115 q 536 -210 536 -167 q 507 -279 536 -254 q 429 -304 478 -304 m 168 1125 l 360 1319 l 499 1319 l 690 1125 l 538 1125 l 428 1231 l 322 1125 l 168 1125 z "},"Ề":{"ha":833,"x_min":131,"x_max":783,"o":"m 131 0 l 131 1014 l 726 1014 l 726 881 l 278 881 l 278 592 l 678 592 l 678 463 l 278 463 l 278 133 l 726 133 l 726 0 l 131 0 m 635 1253 l 471 1417 l 628 1417 l 783 1253 l 635 1253 m 169 1083 l 360 1278 l 499 1278 l 690 1083 l 536 1083 l 429 1189 l 322 1083 l 169 1083 z "},"Ể":{"ha":833,"x_min":131,"x_max":793,"o":"m 131 0 l 131 1014 l 726 1014 l 726 881 l 278 881 l 278 592 l 678 592 l 678 463 l 278 463 l 278 133 l 726 133 l 726 0 l 131 0 m 603 1218 l 664 1278 q 678 1306 678 1292 q 653 1329 678 1329 l 560 1329 l 560 1417 l 682 1417 q 763 1391 732 1417 q 793 1322 793 1365 q 768 1258 793 1282 l 725 1218 l 603 1218 m 169 1083 l 360 1278 l 499 1278 l 690 1083 l 536 1083 l 429 1189 l 322 1083 l 169 1083 z "},"Ễ":{"ha":833,"x_min":131,"x_max":726,"o":"m 131 0 l 131 1014 l 726 1014 l 726 881 l 278 881 l 278 592 l 678 592 l 678 463 l 278 463 l 278 133 l 726 133 l 726 0 l 131 0 m 538 1274 q 447 1289 481 1274 q 388 1319 413 1304 q 332 1333 363 1333 q 303 1323 314 1333 q 293 1294 293 1313 l 293 1286 l 194 1286 l 194 1294 q 229 1383 194 1350 q 324 1417 264 1417 q 414 1401 381 1417 q 472 1372 447 1386 q 526 1357 496 1357 q 556 1367 544 1357 q 567 1396 567 1378 l 567 1406 l 665 1406 l 665 1396 q 631 1307 665 1340 q 538 1274 596 1274 m 169 1083 l 321 1233 l 538 1233 l 690 1083 l 535 1083 l 429 1186 l 322 1083 l 169 1083 z "},"Ë":{"ha":833,"x_min":131,"x_max":726,"o":"m 131 0 l 131 1014 l 726 1014 l 726 881 l 278 881 l 278 592 l 678 592 l 678 463 l 278 463 l 278 133 l 726 133 l 726 0 l 131 0 m 588 1129 q 519 1154 544 1129 q 493 1222 493 1179 q 519 1292 493 1267 q 588 1318 544 1318 q 658 1292 632 1318 q 683 1222 683 1267 q 658 1154 683 1179 q 588 1129 632 1129 m 271 1129 q 201 1154 226 1129 q 175 1222 175 1179 q 201 1292 175 1267 q 271 1318 226 1318 q 340 1292 314 1318 q 367 1222 367 1267 q 340 1154 367 1179 q 271 1129 314 1129 z "},"Ė":{"ha":833,"x_min":131,"x_max":726,"o":"m 131 0 l 131 1014 l 726 1014 l 726 881 l 278 881 l 278 592 l 678 592 l 678 463 l 278 463 l 278 133 l 726 133 l 726 0 l 131 0 m 429 1128 q 351 1153 381 1128 q 322 1222 322 1179 q 351 1291 322 1265 q 429 1317 381 1317 q 507 1291 478 1317 q 536 1222 536 1265 q 507 1153 536 1179 q 429 1128 478 1128 z "},"Ẹ":{"ha":833,"x_min":131,"x_max":726,"o":"m 131 0 l 131 1014 l 726 1014 l 726 881 l 278 881 l 278 592 l 678 592 l 678 463 l 278 463 l 278 133 l 726 133 l 726 0 l 131 0 m 429 -304 q 351 -279 381 -304 q 322 -210 322 -254 q 351 -141 322 -167 q 429 -115 381 -115 q 507 -141 478 -115 q 536 -210 536 -167 q 507 -279 536 -254 q 429 -304 478 -304 z "},"È":{"ha":833,"x_min":131,"x_max":726,"o":"m 131 0 l 131 1014 l 726 1014 l 726 881 l 278 881 l 278 592 l 678 592 l 678 463 l 278 463 l 278 133 l 726 133 l 726 0 l 131 0 m 371 1125 l 210 1319 l 376 1319 l 526 1125 l 371 1125 z "},"Ẻ":{"ha":833,"x_min":131,"x_max":726,"o":"m 131 0 l 131 1014 l 726 1014 l 726 881 l 278 881 l 278 592 l 678 592 l 678 463 l 278 463 l 278 133 l 726 133 l 726 0 l 131 0 m 365 1110 l 429 1194 q 449 1238 449 1221 q 407 1265 449 1265 l 300 1265 l 300 1364 l 422 1364 q 528 1334 488 1364 q 568 1254 568 1304 q 542 1178 568 1213 l 493 1110 l 365 1110 z "},"Ē":{"ha":833,"x_min":131,"x_max":726,"o":"m 131 0 l 131 1014 l 726 1014 l 726 881 l 278 881 l 278 592 l 678 592 l 678 463 l 278 463 l 278 133 l 726 133 l 726 0 l 131 0 m 199 1158 l 199 1278 l 660 1278 l 660 1158 l 199 1158 z "},"Ę":{"ha":833,"x_min":131,"x_max":733,"o":"m 131 0 l 131 1014 l 726 1014 l 726 881 l 278 881 l 278 592 l 678 592 l 678 463 l 278 463 l 278 133 l 726 133 l 726 0 l 660 0 l 653 -7 q 574 -125 574 -74 q 593 -171 574 -153 q 646 -189 613 -189 l 733 -189 l 733 -292 l 613 -292 q 486 -253 533 -292 q 439 -154 439 -214 q 465 -77 439 -117 q 546 0 490 -37 l 131 0 z "},"Ɛ":{"ha":833,"x_min":82,"x_max":769,"o":"m 429 -14 q 249 23 326 -14 q 126 126 171 60 q 82 279 82 193 q 135 447 82 376 q 275 535 189 518 l 275 538 q 158 616 203 554 q 114 761 114 678 q 153 900 114 840 q 262 994 192 960 q 424 1028 332 1028 q 590 990 518 1028 q 701 886 661 953 q 742 732 742 819 l 593 732 q 547 852 593 806 q 425 899 500 899 q 308 857 353 899 q 264 747 264 815 q 309 635 264 678 q 426 592 354 592 l 546 592 l 546 463 l 428 463 q 289 415 343 463 q 235 290 235 367 q 289 165 235 213 q 428 117 343 117 q 566 163 513 117 q 621 282 619 208 l 769 282 q 726 128 769 194 q 606 24 682 61 q 429 -14 529 -14 z "},"Ẽ":{"ha":833,"x_min":131,"x_max":726,"o":"m 131 0 l 131 1014 l 726 1014 l 726 881 l 278 881 l 278 592 l 678 592 l 678 463 l 278 463 l 278 133 l 726 133 l 726 0 l 131 0 m 526 1126 q 457 1140 483 1126 q 413 1172 431 1154 q 378 1205 394 1190 q 339 1219 361 1219 q 297 1171 297 1219 l 297 1133 l 199 1133 l 199 1176 q 235 1281 199 1242 q 332 1319 272 1319 q 401 1305 375 1319 q 446 1272 428 1290 q 481 1240 464 1254 q 519 1226 497 1226 q 561 1271 561 1226 l 561 1313 l 660 1313 l 660 1268 q 623 1165 660 1203 q 526 1126 586 1126 z "},"F":{"ha":833,"x_min":122,"x_max":736,"o":"m 122 0 l 122 1014 l 736 1014 l 736 876 l 269 876 l 269 574 l 700 574 l 700 435 l 272 435 l 272 0 l 122 0 z "},"G":{"ha":833,"x_min":111,"x_max":732,"o":"m 422 -14 q 195 66 279 -14 q 111 282 111 146 l 111 732 q 195 949 111 869 q 422 1028 279 1028 q 648 948 564 1028 q 732 732 732 868 l 582 732 q 540 853 582 811 q 422 894 497 894 q 303 853 346 894 q 261 733 261 811 l 261 282 q 303 160 261 203 q 422 118 346 118 q 540 160 497 118 q 582 282 582 203 l 582 407 l 393 407 l 393 540 l 732 540 l 732 282 q 648 66 732 146 q 422 -14 564 -14 z "},"Ǵ":{"ha":833,"x_min":111,"x_max":732,"o":"m 422 -14 q 195 66 279 -14 q 111 282 111 146 l 111 732 q 195 949 111 869 q 422 1028 279 1028 q 648 948 564 1028 q 732 732 732 868 l 582 732 q 540 853 582 811 q 422 894 497 894 q 303 853 346 894 q 261 733 261 811 l 261 282 q 303 160 261 203 q 422 118 346 118 q 540 160 497 118 q 582 282 582 203 l 582 407 l 393 407 l 393 540 l 732 540 l 732 282 q 648 66 732 146 q 422 -14 564 -14 m 324 1125 l 471 1319 l 632 1319 l 475 1125 l 324 1125 z "},"Ğ":{"ha":833,"x_min":111,"x_max":732,"o":"m 422 -14 q 195 66 279 -14 q 111 282 111 146 l 111 732 q 195 949 111 869 q 422 1028 279 1028 q 648 948 564 1028 q 732 732 732 868 l 582 732 q 540 853 582 811 q 422 894 497 894 q 303 853 346 894 q 261 733 261 811 l 261 282 q 303 160 261 203 q 422 118 346 118 q 540 160 497 118 q 582 282 582 203 l 582 407 l 393 407 l 393 540 l 732 540 l 732 282 q 648 66 732 146 q 422 -14 564 -14 m 417 1117 q 249 1172 313 1117 q 185 1319 185 1228 l 301 1319 q 333 1239 301 1269 q 415 1208 364 1208 q 500 1239 468 1208 q 532 1319 532 1269 l 650 1319 q 585 1172 650 1228 q 417 1117 521 1117 z "},"Ǧ":{"ha":833,"x_min":111,"x_max":732,"o":"m 422 -14 q 195 66 279 -14 q 111 282 111 146 l 111 732 q 195 949 111 869 q 422 1028 279 1028 q 648 948 564 1028 q 732 732 732 868 l 582 732 q 540 853 582 811 q 422 894 497 894 q 303 853 346 894 q 261 733 261 811 l 261 282 q 303 160 261 203 q 422 118 346 118 q 540 160 497 118 q 582 282 582 203 l 582 407 l 393 407 l 393 540 l 732 540 l 732 282 q 648 66 732 146 q 422 -14 564 -14 m 347 1125 l 156 1319 l 308 1319 l 418 1214 l 524 1319 l 678 1319 l 486 1125 l 347 1125 z "},"Ĝ":{"ha":833,"x_min":111,"x_max":732,"o":"m 422 -14 q 195 66 279 -14 q 111 282 111 146 l 111 732 q 195 949 111 869 q 422 1028 279 1028 q 648 948 564 1028 q 732 732 732 868 l 582 732 q 540 853 582 811 q 422 894 497 894 q 303 853 346 894 q 261 733 261 811 l 261 282 q 303 160 261 203 q 422 118 346 118 q 540 160 497 118 q 582 282 582 203 l 582 407 l 393 407 l 393 540 l 732 540 l 732 282 q 648 66 732 146 q 422 -14 564 -14 m 156 1125 l 347 1319 l 486 1319 l 678 1125 l 525 1125 l 415 1231 l 310 1125 l 156 1125 z "},"Ģ":{"ha":833,"x_min":111,"x_max":732,"o":"m 422 -14 q 195 66 279 -14 q 111 282 111 146 l 111 732 q 195 949 111 869 q 422 1028 279 1028 q 648 948 564 1028 q 732 732 732 868 l 582 732 q 540 853 582 811 q 422 894 497 894 q 303 853 346 894 q 261 733 261 811 l 261 282 q 303 160 261 203 q 422 118 346 118 q 540 160 497 118 q 582 282 582 203 l 582 407 l 393 407 l 393 540 l 732 540 l 732 282 q 648 66 732 146 q 422 -14 564 -14 m 264 -333 l 396 -132 l 560 -132 l 410 -333 l 264 -333 z "},"Ġ":{"ha":833,"x_min":111,"x_max":732,"o":"m 422 -14 q 195 66 279 -14 q 111 282 111 146 l 111 732 q 195 949 111 869 q 422 1028 279 1028 q 648 948 564 1028 q 732 732 732 868 l 582 732 q 540 853 582 811 q 422 894 497 894 q 303 853 346 894 q 261 733 261 811 l 261 282 q 303 160 261 203 q 422 118 346 118 q 540 160 497 118 q 582 282 582 203 l 582 407 l 393 407 l 393 540 l 732 540 l 732 282 q 648 66 732 146 q 422 -14 564 -14 m 417 1128 q 339 1153 368 1128 q 310 1222 310 1179 q 339 1291 310 1265 q 417 1317 368 1317 q 494 1291 465 1317 q 524 1222 524 1265 q 494 1153 524 1179 q 417 1128 465 1128 z "},"H":{"ha":833,"x_min":118,"x_max":715,"o":"m 118 0 l 118 1014 l 268 1014 l 268 592 l 565 592 l 565 1014 l 715 1014 l 715 0 l 565 0 l 565 457 l 268 457 l 268 0 l 118 0 z "},"Ħ":{"ha":833,"x_min":14,"x_max":819,"o":"m 118 0 l 118 729 l 14 729 l 14 842 l 118 842 l 118 1014 l 268 1014 l 268 842 l 565 842 l 565 1014 l 715 1014 l 715 842 l 819 842 l 819 729 l 715 729 l 715 0 l 565 0 l 565 457 l 268 457 l 268 0 l 118 0 m 268 592 l 565 592 l 565 729 l 268 729 l 268 592 z "},"Ĥ":{"ha":833,"x_min":118,"x_max":715,"o":"m 118 0 l 118 1014 l 268 1014 l 268 592 l 565 592 l 565 1014 l 715 1014 l 715 0 l 565 0 l 565 457 l 268 457 l 268 0 l 118 0 m 156 1125 l 347 1319 l 486 1319 l 678 1125 l 525 1125 l 415 1231 l 310 1125 l 156 1125 z "},"I":{"ha":833,"x_min":136,"x_max":699,"o":"m 136 0 l 136 136 l 340 136 l 340 878 l 136 878 l 136 1014 l 699 1014 l 699 878 l 493 878 l 493 136 l 699 136 l 699 0 l 136 0 z "},"Í":{"ha":833,"x_min":136,"x_max":699,"o":"m 136 0 l 136 136 l 340 136 l 340 878 l 136 878 l 136 1014 l 699 1014 l 699 878 l 493 878 l 493 136 l 699 136 l 699 0 l 136 0 m 324 1125 l 471 1319 l 632 1319 l 475 1125 l 324 1125 z "},"Ĭ":{"ha":833,"x_min":136,"x_max":699,"o":"m 136 0 l 136 136 l 340 136 l 340 878 l 136 878 l 136 1014 l 699 1014 l 699 878 l 493 878 l 493 136 l 699 136 l 699 0 l 136 0 m 417 1117 q 249 1172 313 1117 q 185 1319 185 1228 l 301 1319 q 333 1239 301 1269 q 415 1208 364 1208 q 500 1239 468 1208 q 532 1319 532 1269 l 650 1319 q 585 1172 650 1228 q 417 1117 521 1117 z "},"Î":{"ha":833,"x_min":136,"x_max":699,"o":"m 136 0 l 136 136 l 340 136 l 340 878 l 136 878 l 136 1014 l 699 1014 l 699 878 l 493 878 l 493 136 l 699 136 l 699 0 l 136 0 m 156 1125 l 347 1319 l 486 1319 l 678 1125 l 525 1125 l 415 1231 l 310 1125 l 156 1125 z "},"Ï":{"ha":833,"x_min":136,"x_max":699,"o":"m 136 0 l 136 136 l 340 136 l 340 878 l 136 878 l 136 1014 l 699 1014 l 699 878 l 493 878 l 493 136 l 699 136 l 699 0 l 136 0 m 575 1129 q 506 1154 532 1129 q 481 1222 481 1179 q 506 1292 481 1267 q 575 1318 532 1318 q 645 1292 619 1318 q 671 1222 671 1267 q 645 1154 671 1179 q 575 1129 619 1129 m 258 1129 q 188 1154 214 1129 q 163 1222 163 1179 q 188 1292 163 1267 q 258 1318 214 1318 q 328 1292 301 1318 q 354 1222 354 1267 q 328 1154 354 1179 q 258 1129 301 1129 z "},"İ":{"ha":833,"x_min":136,"x_max":699,"o":"m 136 0 l 136 136 l 340 136 l 340 878 l 136 878 l 136 1014 l 699 1014 l 699 878 l 493 878 l 493 136 l 699 136 l 699 0 l 136 0 m 417 1128 q 339 1153 368 1128 q 310 1222 310 1179 q 339 1291 310 1265 q 417 1317 368 1317 q 494 1291 465 1317 q 524 1222 524 1265 q 494 1153 524 1179 q 417 1128 465 1128 z "},"Ị":{"ha":833,"x_min":136,"x_max":699,"o":"m 136 0 l 136 136 l 340 136 l 340 878 l 136 878 l 136 1014 l 699 1014 l 699 878 l 493 878 l 493 136 l 699 136 l 699 0 l 136 0 m 417 -304 q 339 -279 368 -304 q 310 -210 310 -254 q 339 -141 310 -167 q 417 -115 368 -115 q 494 -141 465 -115 q 524 -210 524 -167 q 494 -279 524 -254 q 417 -304 465 -304 z "},"Ì":{"ha":833,"x_min":136,"x_max":699,"o":"m 136 0 l 136 136 l 340 136 l 340 878 l 136 878 l 136 1014 l 699 1014 l 699 878 l 493 878 l 493 136 l 699 136 l 699 0 l 136 0 m 358 1125 l 197 1319 l 364 1319 l 514 1125 l 358 1125 z "},"Ỉ":{"ha":833,"x_min":136,"x_max":699,"o":"m 136 0 l 136 136 l 340 136 l 340 878 l 136 878 l 136 1014 l 699 1014 l 699 878 l 493 878 l 493 136 l 699 136 l 699 0 l 136 0 m 353 1110 l 417 1194 q 436 1238 436 1221 q 394 1265 436 1265 l 288 1265 l 288 1364 l 410 1364 q 515 1334 475 1364 q 556 1254 556 1304 q 529 1178 556 1213 l 481 1110 l 353 1110 z "},"Ī":{"ha":833,"x_min":136,"x_max":699,"o":"m 136 0 l 136 136 l 340 136 l 340 878 l 136 878 l 136 1014 l 699 1014 l 699 878 l 493 878 l 493 136 l 699 136 l 699 0 l 136 0 m 186 1158 l 186 1278 l 647 1278 l 647 1158 l 186 1158 z "},"Į":{"ha":833,"x_min":136,"x_max":699,"o":"m 136 0 l 136 136 l 340 136 l 340 878 l 136 878 l 136 1014 l 699 1014 l 699 878 l 493 878 l 493 136 l 699 136 l 699 0 l 469 0 l 463 -7 q 383 -125 383 -74 q 403 -171 383 -153 q 456 -189 422 -189 l 543 -189 l 543 -292 l 422 -292 q 296 -253 343 -292 q 249 -154 249 -214 q 274 -77 249 -117 q 356 0 300 -37 l 136 0 z "},"Ĩ":{"ha":833,"x_min":136,"x_max":699,"o":"m 136 0 l 136 136 l 340 136 l 340 878 l 136 878 l 136 1014 l 699 1014 l 699 878 l 493 878 l 493 136 l 699 136 l 699 0 l 136 0 m 514 1126 q 444 1140 471 1126 q 400 1172 418 1154 q 365 1205 382 1190 q 326 1219 349 1219 q 285 1171 285 1219 l 285 1133 l 186 1133 l 186 1176 q 223 1281 186 1242 q 319 1319 260 1319 q 389 1305 363 1319 q 433 1272 415 1290 q 468 1240 451 1254 q 507 1226 485 1226 q 549 1271 549 1226 l 549 1313 l 647 1313 l 647 1268 q 610 1165 647 1203 q 514 1126 574 1126 z "},"J":{"ha":833,"x_min":53,"x_max":699,"o":"m 375 -14 q 139 69 225 -14 q 53 296 53 153 l 203 296 q 248 165 203 213 q 375 118 293 118 q 502 165 456 118 q 549 296 549 211 l 549 1014 l 699 1014 l 699 296 q 612 69 699 153 q 375 -14 525 -14 z "},"Ĵ":{"ha":833,"x_min":53,"x_max":886,"o":"m 375 -14 q 139 69 225 -14 q 53 296 53 153 l 203 296 q 248 165 203 213 q 375 118 293 118 q 502 165 456 118 q 549 296 549 211 l 549 1014 l 699 1014 l 699 296 q 612 69 699 153 q 375 -14 525 -14 m 364 1125 l 556 1319 l 694 1319 l 886 1125 l 733 1125 l 624 1231 l 518 1125 l 364 1125 z "},"K":{"ha":833,"x_min":117,"x_max":785,"o":"m 117 0 l 117 1014 l 267 1014 l 267 589 l 401 589 l 610 1014 l 772 1014 l 532 528 l 785 0 l 615 0 l 399 458 l 267 458 l 267 0 l 117 0 z "},"Ķ":{"ha":833,"x_min":117,"x_max":785,"o":"m 117 0 l 117 1014 l 267 1014 l 267 589 l 401 589 l 610 1014 l 772 1014 l 532 528 l 785 0 l 615 0 l 399 458 l 267 458 l 267 0 l 117 0 m 258 -333 l 390 -132 l 554 -132 l 404 -333 l 258 -333 z "},"L":{"ha":833,"x_min":175,"x_max":768,"o":"m 175 0 l 175 1014 l 325 1014 l 325 136 l 768 136 l 768 0 l 175 0 z "},"Ĺ":{"ha":833,"x_min":157,"x_max":768,"o":"m 175 0 l 175 1014 l 325 1014 l 325 136 l 768 136 l 768 0 l 175 0 m 157 1125 l 304 1319 l 465 1319 l 308 1125 l 157 1125 z "},"Ľ":{"ha":833,"x_min":175,"x_max":768,"o":"m 175 0 l 175 1014 l 325 1014 l 325 136 l 768 136 l 768 0 l 175 0 m 479 764 l 499 1014 l 632 1014 l 600 764 l 479 764 z "},"Ļ":{"ha":833,"x_min":175,"x_max":768,"o":"m 175 0 l 175 1014 l 325 1014 l 325 136 l 768 136 l 768 0 l 175 0 m 314 -333 l 446 -132 l 610 -132 l 460 -333 l 314 -333 z "},"Ŀ":{"ha":833,"x_min":175,"x_max":779,"o":"m 175 0 l 175 1014 l 325 1014 l 325 136 l 768 136 l 768 0 l 175 0 m 657 368 q 569 401 603 368 q 535 488 535 433 q 569 576 535 542 q 657 610 603 610 q 745 576 711 610 q 779 488 779 542 q 745 401 779 433 q 657 368 711 368 z "},"Ł":{"ha":833,"x_min":28,"x_max":772,"o":"m 179 0 l 179 413 l 28 319 l 28 456 l 179 549 l 179 1014 l 329 1014 l 329 643 l 546 778 l 546 642 l 329 507 l 329 136 l 772 136 l 772 0 l 179 0 z "},"M":{"ha":833,"x_min":88,"x_max":746,"o":"m 88 0 l 88 1014 l 293 1014 l 414 576 l 539 1014 l 746 1014 l 746 0 l 604 0 l 604 453 q 608 622 604 531 q 617 801 611 713 q 629 963 622 890 l 476 446 l 350 446 l 203 950 q 222 724 215 851 q 229 453 229 596 l 229 0 l 88 0 z "},"N":{"ha":833,"x_min":113,"x_max":721,"o":"m 113 0 l 113 1014 l 303 1014 l 597 171 q 590 265 594 210 q 584 381 586 321 q 582 490 582 440 l 582 1014 l 721 1014 l 721 0 l 532 0 l 238 843 q 244 752 240 806 q 250 640 247 699 q 253 532 253 582 l 253 0 l 113 0 z "},"Ń":{"ha":833,"x_min":113,"x_max":721,"o":"m 113 0 l 113 1014 l 303 1014 l 597 171 q 590 265 594 210 q 584 381 586 321 q 582 490 582 440 l 582 1014 l 721 1014 l 721 0 l 532 0 l 238 843 q 244 752 240 806 q 250 640 247 699 q 253 532 253 582 l 253 0 l 113 0 m 324 1125 l 471 1319 l 632 1319 l 475 1125 l 324 1125 z "},"Ň":{"ha":833,"x_min":113,"x_max":721,"o":"m 113 0 l 113 1014 l 303 1014 l 597 171 q 590 265 594 210 q 584 381 586 321 q 582 490 582 440 l 582 1014 l 721 1014 l 721 0 l 532 0 l 238 843 q 244 752 240 806 q 250 640 247 699 q 253 532 253 582 l 253 0 l 113 0 m 347 1125 l 156 1319 l 308 1319 l 418 1214 l 524 1319 l 678 1319 l 486 1125 l 347 1125 z "},"Ņ":{"ha":833,"x_min":113,"x_max":721,"o":"m 113 0 l 113 1014 l 303 1014 l 597 171 q 590 265 594 210 q 584 381 586 321 q 582 490 582 440 l 582 1014 l 721 1014 l 721 0 l 532 0 l 238 843 q 244 752 240 806 q 250 640 247 699 q 253 532 253 582 l 253 0 l 113 0 m 258 -333 l 390 -132 l 554 -132 l 404 -333 l 258 -333 z "},"Ŋ":{"ha":833,"x_min":113,"x_max":721,"o":"m 338 -250 l 338 -110 l 426 -110 q 532 -72 493 -110 q 571 32 571 -35 l 238 843 q 244 752 240 806 q 250 640 247 699 q 253 532 253 582 l 253 0 l 113 0 l 113 1014 l 303 1014 l 597 285 q 590 380 594 324 q 584 496 586 436 q 582 606 582 556 l 582 1014 l 721 1014 l 721 25 q 683 -119 721 -57 q 578 -216 646 -182 q 422 -250 511 -250 l 338 -250 z "},"Ñ":{"ha":833,"x_min":113,"x_max":721,"o":"m 113 0 l 113 1014 l 303 1014 l 597 171 q 590 265 594 210 q 584 381 586 321 q 582 490 582 440 l 582 1014 l 721 1014 l 721 0 l 532 0 l 238 843 q 244 752 240 806 q 250 640 247 699 q 253 532 253 582 l 253 0 l 113 0 m 514 1126 q 444 1140 471 1126 q 400 1172 418 1154 q 365 1205 382 1190 q 326 1219 349 1219 q 285 1171 285 1219 l 285 1133 l 186 1133 l 186 1176 q 223 1281 186 1242 q 319 1319 260 1319 q 389 1305 363 1319 q 433 1272 415 1290 q 468 1240 451 1254 q 507 1226 485 1226 q 549 1271 549 1226 l 549 1313 l 647 1313 l 647 1268 q 610 1165 647 1203 q 514 1126 574 1126 z "},"O":{"ha":833,"x_min":111,"x_max":722,"o":"m 417 -14 q 193 67 275 -14 q 111 296 111 149 l 111 718 q 193 947 111 865 q 417 1028 275 1028 q 640 947 558 1028 q 722 719 722 865 l 722 296 q 640 67 722 149 q 417 -14 558 -14 m 417 119 q 532 161 492 119 q 572 282 572 203 l 572 732 q 533 853 572 811 q 417 894 493 894 q 301 853 340 894 q 261 732 261 811 l 261 282 q 301 161 261 203 q 417 119 342 119 z "},"Ó":{"ha":833,"x_min":111,"x_max":722,"o":"m 417 -14 q 193 67 275 -14 q 111 296 111 149 l 111 718 q 193 947 111 865 q 417 1028 275 1028 q 640 947 558 1028 q 722 719 722 865 l 722 296 q 640 67 722 149 q 417 -14 558 -14 m 417 119 q 532 161 492 119 q 572 282 572 203 l 572 732 q 533 853 572 811 q 417 894 493 894 q 301 853 340 894 q 261 732 261 811 l 261 282 q 301 161 261 203 q 417 119 342 119 m 324 1125 l 471 1319 l 632 1319 l 475 1125 l 324 1125 z "},"Ŏ":{"ha":833,"x_min":111,"x_max":722,"o":"m 417 -14 q 193 67 275 -14 q 111 296 111 149 l 111 718 q 193 947 111 865 q 417 1028 275 1028 q 640 947 558 1028 q 722 719 722 865 l 722 296 q 640 67 722 149 q 417 -14 558 -14 m 417 119 q 532 161 492 119 q 572 282 572 203 l 572 732 q 533 853 572 811 q 417 894 493 894 q 301 853 340 894 q 261 732 261 811 l 261 282 q 301 161 261 203 q 417 119 342 119 m 417 1117 q 249 1172 313 1117 q 185 1319 185 1228 l 301 1319 q 333 1239 301 1269 q 415 1208 364 1208 q 500 1239 468 1208 q 532 1319 532 1269 l 650 1319 q 585 1172 650 1228 q 417 1117 521 1117 z "},"Ô":{"ha":833,"x_min":111,"x_max":722,"o":"m 417 -14 q 193 67 275 -14 q 111 296 111 149 l 111 718 q 193 947 111 865 q 417 1028 275 1028 q 640 947 558 1028 q 722 719 722 865 l 722 296 q 640 67 722 149 q 417 -14 558 -14 m 417 119 q 532 161 492 119 q 572 282 572 203 l 572 732 q 533 853 572 811 q 417 894 493 894 q 301 853 340 894 q 261 732 261 811 l 261 282 q 301 161 261 203 q 417 119 342 119 m 156 1125 l 347 1319 l 486 1319 l 678 1125 l 525 1125 l 415 1231 l 310 1125 l 156 1125 z "},"Ố":{"ha":833,"x_min":111,"x_max":878,"o":"m 417 -14 q 193 67 275 -14 q 111 296 111 149 l 111 718 q 193 947 111 865 q 417 1028 275 1028 q 640 947 558 1028 q 722 719 722 865 l 722 296 q 640 67 722 149 q 417 -14 558 -14 m 417 119 q 532 161 492 119 q 572 282 572 203 l 572 732 q 533 853 572 811 q 417 894 493 894 q 301 853 340 894 q 261 732 261 811 l 261 282 q 301 161 261 203 q 417 119 342 119 m 572 1253 l 718 1417 l 878 1417 l 722 1253 l 572 1253 m 157 1083 l 347 1278 l 486 1278 l 678 1083 l 524 1083 l 417 1189 l 310 1083 l 157 1083 z "},"Ộ":{"ha":833,"x_min":111,"x_max":722,"o":"m 417 -14 q 193 67 275 -14 q 111 296 111 149 l 111 718 q 193 947 111 865 q 417 1028 275 1028 q 640 947 558 1028 q 722 719 722 865 l 722 296 q 640 67 722 149 q 417 -14 558 -14 m 417 119 q 532 161 492 119 q 572 282 572 203 l 572 732 q 533 853 572 811 q 417 894 493 894 q 301 853 340 894 q 261 732 261 811 l 261 282 q 301 161 261 203 q 417 119 342 119 m 417 -304 q 339 -279 368 -304 q 310 -210 310 -254 q 339 -141 310 -167 q 417 -115 368 -115 q 494 -141 465 -115 q 524 -210 524 -167 q 494 -279 524 -254 q 417 -304 465 -304 m 156 1125 l 347 1319 l 486 1319 l 678 1125 l 525 1125 l 415 1231 l 310 1125 l 156 1125 z "},"Ồ":{"ha":833,"x_min":111,"x_max":771,"o":"m 417 -14 q 193 67 275 -14 q 111 296 111 149 l 111 718 q 193 947 111 865 q 417 1028 275 1028 q 640 947 558 1028 q 722 719 722 865 l 722 296 q 640 67 722 149 q 417 -14 558 -14 m 417 119 q 532 161 492 119 q 572 282 572 203 l 572 732 q 533 853 572 811 q 417 894 493 894 q 301 853 340 894 q 261 732 261 811 l 261 282 q 301 161 261 203 q 417 119 342 119 m 622 1253 l 458 1417 l 615 1417 l 771 1253 l 622 1253 m 157 1083 l 347 1278 l 486 1278 l 678 1083 l 524 1083 l 417 1189 l 310 1083 l 157 1083 z "},"Ổ":{"ha":833,"x_min":111,"x_max":781,"o":"m 417 -14 q 193 67 275 -14 q 111 296 111 149 l 111 718 q 193 947 111 865 q 417 1028 275 1028 q 640 947 558 1028 q 722 719 722 865 l 722 296 q 640 67 722 149 q 417 -14 558 -14 m 417 119 q 532 161 492 119 q 572 282 572 203 l 572 732 q 533 853 572 811 q 417 894 493 894 q 301 853 340 894 q 261 732 261 811 l 261 282 q 301 161 261 203 q 417 119 342 119 m 590 1218 l 651 1278 q 665 1306 665 1292 q 640 1329 665 1329 l 547 1329 l 547 1417 l 669 1417 q 750 1391 719 1417 q 781 1322 781 1365 q 756 1258 781 1282 l 713 1218 l 590 1218 m 157 1083 l 347 1278 l 486 1278 l 678 1083 l 524 1083 l 417 1189 l 310 1083 l 157 1083 z "},"Ỗ":{"ha":833,"x_min":111,"x_max":722,"o":"m 417 -14 q 193 67 275 -14 q 111 296 111 149 l 111 718 q 193 947 111 865 q 417 1028 275 1028 q 640 947 558 1028 q 722 719 722 865 l 722 296 q 640 67 722 149 q 417 -14 558 -14 m 417 119 q 532 161 492 119 q 572 282 572 203 l 572 732 q 533 853 572 811 q 417 894 493 894 q 301 853 340 894 q 261 732 261 811 l 261 282 q 301 161 261 203 q 417 119 342 119 m 525 1274 q 434 1289 468 1274 q 375 1319 400 1304 q 319 1333 350 1333 q 291 1323 301 1333 q 281 1294 281 1313 l 281 1286 l 182 1286 l 182 1294 q 217 1383 182 1350 q 311 1417 251 1417 q 401 1401 368 1417 q 459 1372 435 1386 q 514 1357 483 1357 q 543 1367 532 1357 q 554 1396 554 1378 l 554 1406 l 653 1406 l 653 1396 q 618 1307 653 1340 q 525 1274 583 1274 m 157 1083 l 308 1233 l 525 1233 l 678 1083 l 522 1083 l 417 1186 l 310 1083 l 157 1083 z "},"Ö":{"ha":833,"x_min":111,"x_max":722,"o":"m 417 -14 q 193 67 275 -14 q 111 296 111 149 l 111 718 q 193 947 111 865 q 417 1028 275 1028 q 640 947 558 1028 q 722 719 722 865 l 722 296 q 640 67 722 149 q 417 -14 558 -14 m 417 119 q 532 161 492 119 q 572 282 572 203 l 572 732 q 533 853 572 811 q 417 894 493 894 q 301 853 340 894 q 261 732 261 811 l 261 282 q 301 161 261 203 q 417 119 342 119 m 575 1129 q 506 1154 532 1129 q 481 1222 481 1179 q 506 1292 481 1267 q 575 1318 532 1318 q 645 1292 619 1318 q 671 1222 671 1267 q 645 1154 671 1179 q 575 1129 619 1129 m 258 1129 q 188 1154 214 1129 q 163 1222 163 1179 q 188 1292 163 1267 q 258 1318 214 1318 q 328 1292 301 1318 q 354 1222 354 1267 q 328 1154 354 1179 q 258 1129 301 1129 z "},"Ọ":{"ha":833,"x_min":111,"x_max":722,"o":"m 417 -14 q 193 67 275 -14 q 111 296 111 149 l 111 718 q 193 947 111 865 q 417 1028 275 1028 q 640 947 558 1028 q 722 719 722 865 l 722 296 q 640 67 722 149 q 417 -14 558 -14 m 417 119 q 532 161 492 119 q 572 282 572 203 l 572 732 q 533 853 572 811 q 417 894 493 894 q 301 853 340 894 q 261 732 261 811 l 261 282 q 301 161 261 203 q 417 119 342 119 m 417 -304 q 339 -279 368 -304 q 310 -210 310 -254 q 339 -141 310 -167 q 417 -115 368 -115 q 494 -141 465 -115 q 524 -210 524 -167 q 494 -279 524 -254 q 417 -304 465 -304 z "},"Ò":{"ha":833,"x_min":111,"x_max":722,"o":"m 417 -14 q 193 67 275 -14 q 111 296 111 149 l 111 718 q 193 947 111 865 q 417 1028 275 1028 q 640 947 558 1028 q 722 719 722 865 l 722 296 q 640 67 722 149 q 417 -14 558 -14 m 417 119 q 532 161 492 119 q 572 282 572 203 l 572 732 q 533 853 572 811 q 417 894 493 894 q 301 853 340 894 q 261 732 261 811 l 261 282 q 301 161 261 203 q 417 119 342 119 m 358 1125 l 197 1319 l 364 1319 l 514 1125 l 358 1125 z "},"Ỏ":{"ha":833,"x_min":111,"x_max":722,"o":"m 417 -14 q 193 67 275 -14 q 111 296 111 149 l 111 718 q 193 947 111 865 q 417 1028 275 1028 q 640 947 558 1028 q 722 719 722 865 l 722 296 q 640 67 722 149 q 417 -14 558 -14 m 417 119 q 532 161 492 119 q 572 282 572 203 l 572 732 q 533 853 572 811 q 417 894 493 894 q 301 853 340 894 q 261 732 261 811 l 261 282 q 301 161 261 203 q 417 119 342 119 m 353 1110 l 417 1194 q 436 1238 436 1221 q 394 1265 436 1265 l 288 1265 l 288 1364 l 410 1364 q 515 1334 475 1364 q 556 1254 556 1304 q 529 1178 556 1213 l 481 1110 l 353 1110 z "},"Ơ":{"ha":833,"x_min":111,"x_max":760,"o":"m 417 -14 q 193 67 275 -14 q 111 296 111 149 l 111 718 q 193 947 111 865 q 417 1028 275 1028 q 606 975 531 1028 q 636 1021 636 985 l 636 1125 l 760 1125 l 760 1017 q 685 888 760 925 q 722 719 722 817 l 722 296 q 640 67 722 149 q 417 -14 558 -14 m 417 119 q 532 161 492 119 q 572 282 572 203 l 572 732 q 533 853 572 811 q 417 894 493 894 q 301 853 340 894 q 261 732 261 811 l 261 282 q 301 161 261 203 q 417 119 342 119 z "},"Ớ":{"ha":833,"x_min":111,"x_max":760,"o":"m 417 -14 q 193 67 275 -14 q 111 296 111 149 l 111 718 q 193 947 111 865 q 417 1028 275 1028 q 606 975 531 1028 q 636 1021 636 985 l 636 1125 l 760 1125 l 760 1017 q 685 888 760 925 q 722 719 722 817 l 722 296 q 640 67 722 149 q 417 -14 558 -14 m 417 119 q 532 161 492 119 q 572 282 572 203 l 572 732 q 533 853 572 811 q 417 894 493 894 q 301 853 340 894 q 261 732 261 811 l 261 282 q 301 161 261 203 q 417 119 342 119 m 310 1125 l 457 1319 l 618 1319 l 461 1125 l 310 1125 z "},"Ợ":{"ha":833,"x_min":111,"x_max":760,"o":"m 417 -14 q 193 67 275 -14 q 111 296 111 149 l 111 718 q 193 947 111 865 q 417 1028 275 1028 q 606 975 531 1028 q 636 1021 636 985 l 636 1125 l 760 1125 l 760 1017 q 685 888 760 925 q 722 719 722 817 l 722 296 q 640 67 722 149 q 417 -14 558 -14 m 417 119 q 532 161 492 119 q 572 282 572 203 l 572 732 q 533 853 572 811 q 417 894 493 894 q 301 853 340 894 q 261 732 261 811 l 261 282 q 301 161 261 203 q 417 119 342 119 m 417 -304 q 339 -279 368 -304 q 310 -210 310 -254 q 339 -141 310 -167 q 417 -115 368 -115 q 494 -141 465 -115 q 524 -210 524 -167 q 494 -279 524 -254 q 417 -304 465 -304 z "},"Ờ":{"ha":833,"x_min":111,"x_max":760,"o":"m 417 -14 q 193 67 275 -14 q 111 296 111 149 l 111 718 q 193 947 111 865 q 417 1028 275 1028 q 606 975 531 1028 q 636 1021 636 985 l 636 1125 l 760 1125 l 760 1017 q 685 888 760 925 q 722 719 722 817 l 722 296 q 640 67 722 149 q 417 -14 558 -14 m 417 119 q 532 161 492 119 q 572 282 572 203 l 572 732 q 533 853 572 811 q 417 894 493 894 q 301 853 340 894 q 261 732 261 811 l 261 282 q 301 161 261 203 q 417 119 342 119 m 344 1125 l 183 1319 l 350 1319 l 500 1125 l 344 1125 z "},"Ở":{"ha":833,"x_min":111,"x_max":760,"o":"m 417 -14 q 193 67 275 -14 q 111 296 111 149 l 111 718 q 193 947 111 865 q 417 1028 275 1028 q 606 975 531 1028 q 636 1021 636 985 l 636 1125 l 760 1125 l 760 1017 q 685 888 760 925 q 722 719 722 817 l 722 296 q 640 67 722 149 q 417 -14 558 -14 m 417 119 q 532 161 492 119 q 572 282 572 203 l 572 732 q 533 853 572 811 q 417 894 493 894 q 301 853 340 894 q 261 732 261 811 l 261 282 q 301 161 261 203 q 417 119 342 119 m 339 1110 l 403 1194 q 422 1238 422 1221 q 381 1265 422 1265 l 274 1265 l 274 1364 l 396 1364 q 501 1334 461 1364 q 542 1254 542 1304 q 515 1178 542 1213 l 467 1110 l 339 1110 z "},"Ỡ":{"ha":833,"x_min":111,"x_max":760,"o":"m 417 -14 q 193 67 275 -14 q 111 296 111 149 l 111 718 q 193 947 111 865 q 417 1028 275 1028 q 606 975 531 1028 q 636 1021 636 985 l 636 1125 l 760 1125 l 760 1017 q 685 888 760 925 q 722 719 722 817 l 722 296 q 640 67 722 149 q 417 -14 558 -14 m 417 119 q 532 161 492 119 q 572 282 572 203 l 572 732 q 533 853 572 811 q 417 894 493 894 q 301 853 340 894 q 261 732 261 811 l 261 282 q 301 161 261 203 q 417 119 342 119 m 500 1126 q 431 1140 457 1126 q 386 1172 404 1154 q 351 1205 368 1190 q 313 1219 335 1219 q 271 1171 271 1219 l 271 1133 l 172 1133 l 172 1176 q 209 1281 172 1242 q 306 1319 246 1319 q 375 1305 349 1319 q 419 1272 401 1290 q 454 1240 438 1254 q 493 1226 471 1226 q 535 1271 535 1226 l 535 1313 l 633 1313 l 633 1268 q 597 1165 633 1203 q 500 1126 560 1126 z "},"Ő":{"ha":833,"x_min":111,"x_max":751,"o":"m 417 -14 q 193 67 275 -14 q 111 296 111 149 l 111 718 q 193 947 111 865 q 417 1028 275 1028 q 640 947 558 1028 q 722 719 722 865 l 722 296 q 640 67 722 149 q 417 -14 558 -14 m 417 119 q 532 161 492 119 q 572 282 572 203 l 572 732 q 533 853 572 811 q 417 894 493 894 q 301 853 340 894 q 261 732 261 811 l 261 282 q 301 161 261 203 q 417 119 342 119 m 451 1125 l 601 1319 l 751 1319 l 592 1125 l 451 1125 m 186 1125 l 338 1319 l 486 1319 l 326 1125 l 186 1125 z "},"Ō":{"ha":833,"x_min":111,"x_max":722,"o":"m 417 -14 q 193 67 275 -14 q 111 296 111 149 l 111 718 q 193 947 111 865 q 417 1028 275 1028 q 640 947 558 1028 q 722 719 722 865 l 722 296 q 640 67 722 149 q 417 -14 558 -14 m 417 119 q 532 161 492 119 q 572 282 572 203 l 572 732 q 533 853 572 811 q 417 894 493 894 q 301 853 340 894 q 261 732 261 811 l 261 282 q 301 161 261 203 q 417 119 342 119 m 186 1158 l 186 1278 l 647 1278 l 647 1158 l 186 1158 z "},"Ǫ":{"ha":833,"x_min":111,"x_max":722,"o":"m 517 -292 q 390 -253 436 -292 q 343 -154 343 -214 q 370 -81 343 -121 q 440 -7 397 -42 q 417 -14 431 -14 q 193 66 275 -14 q 111 282 111 146 l 111 732 q 193 948 111 868 q 417 1028 275 1028 q 640 949 558 1028 q 722 733 722 869 l 722 282 q 690 135 722 199 q 599 33 657 71 l 551 -6 q 494 -69 510 -40 q 478 -125 478 -99 q 497 -171 478 -153 q 550 -189 515 -189 l 638 -189 l 638 -292 l 517 -292 m 417 119 q 532 161 492 119 q 572 282 572 203 l 572 732 q 533 853 572 811 q 417 894 493 894 q 301 853 340 894 q 261 732 261 811 l 261 282 q 301 161 261 203 q 417 119 342 119 z "},"Ø":{"ha":833,"x_min":40,"x_max":793,"o":"m 40 -56 l 146 129 q 111 282 111 194 l 111 732 q 193 948 111 868 q 417 1028 275 1028 q 619 967 540 1028 l 663 1042 l 793 1042 l 696 869 q 722 733 722 810 l 722 282 q 640 66 722 146 q 417 -14 558 -14 q 225 39 303 -14 l 171 -56 l 40 -56 m 258 732 l 258 329 l 546 838 q 417 894 506 894 q 299 853 340 894 q 258 732 258 811 m 417 119 q 534 161 493 119 q 575 282 575 203 l 575 657 l 296 165 q 417 119 338 119 z "},"Ǿ":{"ha":833,"x_min":40,"x_max":793,"o":"m 40 -56 l 146 129 q 111 282 111 194 l 111 732 q 193 948 111 868 q 417 1028 275 1028 q 619 967 540 1028 l 663 1042 l 793 1042 l 696 869 q 722 733 722 810 l 722 282 q 640 66 722 146 q 417 -14 558 -14 q 225 39 303 -14 l 171 -56 l 40 -56 m 258 732 l 258 329 l 546 838 q 417 894 506 894 q 299 853 340 894 q 258 732 258 811 m 417 119 q 534 161 493 119 q 575 282 575 203 l 575 657 l 296 165 q 417 119 338 119 m 324 1125 l 471 1319 l 632 1319 l 475 1125 l 324 1125 z "},"Õ":{"ha":833,"x_min":111,"x_max":722,"o":"m 417 -14 q 193 67 275 -14 q 111 296 111 149 l 111 718 q 193 947 111 865 q 417 1028 275 1028 q 640 947 558 1028 q 722 719 722 865 l 722 296 q 640 67 722 149 q 417 -14 558 -14 m 417 119 q 532 161 492 119 q 572 282 572 203 l 572 732 q 533 853 572 811 q 417 894 493 894 q 301 853 340 894 q 261 732 261 811 l 261 282 q 301 161 261 203 q 417 119 342 119 m 514 1126 q 444 1140 471 1126 q 400 1172 418 1154 q 365 1205 382 1190 q 326 1219 349 1219 q 285 1171 285 1219 l 285 1133 l 186 1133 l 186 1176 q 223 1281 186 1242 q 319 1319 260 1319 q 389 1305 363 1319 q 433 1272 415 1290 q 468 1240 451 1254 q 507 1226 485 1226 q 549 1271 549 1226 l 549 1313 l 647 1313 l 647 1268 q 610 1165 647 1203 q 514 1126 574 1126 z "},"Œ":{"ha":833,"x_min":51,"x_max":801,"o":"m 263 -11 q 108 60 164 -11 q 51 257 51 132 l 51 760 q 108 956 51 885 q 263 1028 164 1028 q 344 1008 311 1028 q 394 959 376 988 q 415 903 411 931 l 422 903 l 422 1014 l 801 1014 l 801 882 l 561 882 l 561 589 l 767 589 l 767 457 l 561 457 l 561 132 l 801 132 l 801 0 l 422 0 l 422 114 l 415 114 q 394 58 411 86 q 344 9 376 29 q 263 -11 311 -11 m 308 118 q 390 155 361 118 q 419 257 419 192 l 419 760 q 390 862 419 825 q 308 899 361 899 q 227 861 257 899 q 197 760 197 824 l 197 257 q 227 155 197 192 q 308 118 257 118 z "},"P":{"ha":833,"x_min":117,"x_max":772,"o":"m 117 0 l 117 1014 l 449 1014 q 620 976 547 1014 q 733 870 693 939 q 772 708 772 801 q 732 547 772 615 q 619 440 692 478 q 449 403 547 403 l 267 403 l 267 0 l 117 0 m 267 536 l 449 536 q 573 583 526 536 q 619 708 619 631 q 573 833 619 786 q 449 881 526 881 l 267 881 l 267 536 z "},"Þ":{"ha":833,"x_min":117,"x_max":772,"o":"m 117 0 l 117 1014 l 267 1014 l 267 813 l 465 813 q 689 735 606 813 q 772 528 772 657 q 690 321 772 397 q 465 244 607 244 l 267 244 l 267 0 l 117 0 m 267 374 l 456 374 q 576 415 532 374 q 619 528 619 456 q 576 641 619 600 q 456 682 532 682 l 267 682 l 267 374 z "},"Q":{"ha":833,"x_min":103,"x_max":743,"o":"m 576 -250 l 433 -14 q 417 -14 424 -14 q 251 24 321 -14 q 142 128 181 61 q 103 288 103 196 l 103 728 q 188 946 103 864 q 417 1028 274 1028 q 583 990 513 1028 q 692 885 653 953 q 731 728 731 818 l 731 288 q 690 125 731 194 q 578 21 650 56 l 743 -250 l 576 -250 m 417 118 q 537 164 493 118 q 581 288 581 210 l 581 728 q 537 851 581 806 q 417 896 493 896 q 297 851 340 896 q 253 728 253 806 l 253 288 q 297 164 253 210 q 417 118 340 118 z "},"R":{"ha":833,"x_min":118,"x_max":765,"o":"m 118 0 l 118 1014 l 435 1014 q 601 977 529 1014 q 712 874 672 940 q 751 717 751 807 q 700 540 751 615 q 563 435 649 465 l 765 0 l 601 0 l 413 417 l 267 417 l 267 0 l 118 0 m 267 550 l 435 550 q 554 594 510 550 q 599 714 599 639 q 553 835 599 790 q 435 881 508 881 l 267 881 l 267 550 z "},"Ŕ":{"ha":833,"x_min":118,"x_max":765,"o":"m 118 0 l 118 1014 l 435 1014 q 601 977 529 1014 q 712 874 672 940 q 751 717 751 807 q 700 540 751 615 q 563 435 649 465 l 765 0 l 601 0 l 413 417 l 267 417 l 267 0 l 118 0 m 267 550 l 435 550 q 554 594 510 550 q 599 714 599 639 q 553 835 599 790 q 435 881 508 881 l 267 881 l 267 550 m 324 1125 l 471 1319 l 632 1319 l 475 1125 l 324 1125 z "},"Ř":{"ha":833,"x_min":118,"x_max":765,"o":"m 118 0 l 118 1014 l 435 1014 q 601 977 529 1014 q 712 874 672 940 q 751 717 751 807 q 700 540 751 615 q 563 435 649 465 l 765 0 l 601 0 l 413 417 l 267 417 l 267 0 l 118 0 m 267 550 l 435 550 q 554 594 510 550 q 599 714 599 639 q 553 835 599 790 q 435 881 508 881 l 267 881 l 267 550 m 347 1125 l 156 1319 l 308 1319 l 418 1214 l 524 1319 l 678 1319 l 486 1125 l 347 1125 z "},"Ŗ":{"ha":833,"x_min":118,"x_max":765,"o":"m 118 0 l 118 1014 l 435 1014 q 601 977 529 1014 q 712 874 672 940 q 751 717 751 807 q 700 540 751 615 q 563 435 649 465 l 765 0 l 601 0 l 413 417 l 267 417 l 267 0 l 118 0 m 267 550 l 435 550 q 554 594 510 550 q 599 714 599 639 q 553 835 599 790 q 435 881 508 881 l 267 881 l 267 550 m 258 -333 l 390 -132 l 554 -132 l 404 -333 l 258 -333 z "},"S":{"ha":833,"x_min":90,"x_max":744,"o":"m 421 -14 q 181 65 271 -14 q 90 282 90 144 l 238 282 q 288 162 238 206 q 421 118 338 118 q 550 163 503 118 q 597 281 597 207 q 567 378 597 336 q 479 435 536 419 l 333 474 q 172 575 231 501 q 113 751 113 649 q 149 897 113 835 q 254 993 186 958 q 413 1028 322 1028 q 572 993 503 1028 q 678 897 640 958 q 717 753 717 835 l 569 753 q 526 858 569 818 q 413 897 482 897 q 301 858 343 897 q 258 754 258 818 q 287 668 258 703 q 367 619 315 633 l 517 579 q 683 471 622 551 q 744 281 744 390 q 704 124 744 190 q 592 22 664 58 q 421 -14 519 -14 z "},"Ś":{"ha":833,"x_min":90,"x_max":744,"o":"m 421 -14 q 181 65 271 -14 q 90 282 90 144 l 238 282 q 288 162 238 206 q 421 118 338 118 q 550 163 503 118 q 597 281 597 207 q 567 378 597 336 q 479 435 536 419 l 333 474 q 172 575 231 501 q 113 751 113 649 q 149 897 113 835 q 254 993 186 958 q 413 1028 322 1028 q 572 993 503 1028 q 678 897 640 958 q 717 753 717 835 l 569 753 q 526 858 569 818 q 413 897 482 897 q 301 858 343 897 q 258 754 258 818 q 287 668 258 703 q 367 619 315 633 l 517 579 q 683 471 622 551 q 744 281 744 390 q 704 124 744 190 q 592 22 664 58 q 421 -14 519 -14 m 324 1125 l 471 1319 l 632 1319 l 475 1125 l 324 1125 z "},"Š":{"ha":833,"x_min":90,"x_max":744,"o":"m 421 -14 q 181 65 271 -14 q 90 282 90 144 l 238 282 q 288 162 238 206 q 421 118 338 118 q 550 163 503 118 q 597 281 597 207 q 567 378 597 336 q 479 435 536 419 l 333 474 q 172 575 231 501 q 113 751 113 649 q 149 897 113 835 q 254 993 186 958 q 413 1028 322 1028 q 572 993 503 1028 q 678 897 640 958 q 717 753 717 835 l 569 753 q 526 858 569 818 q 413 897 482 897 q 301 858 343 897 q 258 754 258 818 q 287 668 258 703 q 367 619 315 633 l 517 579 q 683 471 622 551 q 744 281 744 390 q 704 124 744 190 q 592 22 664 58 q 421 -14 519 -14 m 347 1125 l 156 1319 l 308 1319 l 418 1214 l 524 1319 l 678 1319 l 486 1125 l 347 1125 z "},"Ş":{"ha":833,"x_min":90,"x_max":744,"o":"m 281 -292 l 281 -208 l 382 -208 q 433 -192 414 -208 q 453 -158 453 -176 q 413 -114 453 -132 q 303 -96 374 -96 l 336 -7 q 156 90 222 14 q 90 282 90 165 l 238 282 q 288 162 238 206 q 421 118 338 118 q 550 163 503 118 q 597 281 597 207 q 567 378 597 336 q 479 435 536 419 l 333 474 q 172 575 231 501 q 113 751 113 649 q 149 897 113 835 q 254 993 186 958 q 413 1028 322 1028 q 572 993 503 1028 q 678 897 640 958 q 717 753 717 835 l 569 753 q 526 858 569 818 q 413 897 482 897 q 301 858 343 897 q 258 754 258 818 q 287 668 258 703 q 367 619 315 633 l 517 579 q 683 471 622 551 q 744 281 744 390 q 704 124 744 190 q 592 22 664 58 q 421 -14 519 -14 l 421 -14 l 408 -50 q 487 -69 446 -54 q 556 -109 528 -83 q 585 -172 585 -135 q 536 -256 585 -221 q 410 -292 488 -292 l 281 -292 z "},"Ŝ":{"ha":833,"x_min":90,"x_max":744,"o":"m 421 -14 q 181 65 271 -14 q 90 282 90 144 l 238 282 q 288 162 238 206 q 421 118 338 118 q 550 163 503 118 q 597 281 597 207 q 567 378 597 336 q 479 435 536 419 l 333 474 q 172 575 231 501 q 113 751 113 649 q 149 897 113 835 q 254 993 186 958 q 413 1028 322 1028 q 572 993 503 1028 q 678 897 640 958 q 717 753 717 835 l 569 753 q 526 858 569 818 q 413 897 482 897 q 301 858 343 897 q 258 754 258 818 q 287 668 258 703 q 367 619 315 633 l 517 579 q 683 471 622 551 q 744 281 744 390 q 704 124 744 190 q 592 22 664 58 q 421 -14 519 -14 m 156 1125 l 347 1319 l 486 1319 l 678 1125 l 525 1125 l 415 1231 l 310 1125 l 156 1125 z "},"Ș":{"ha":833,"x_min":90,"x_max":744,"o":"m 421 -14 q 181 65 271 -14 q 90 282 90 144 l 238 282 q 288 162 238 206 q 421 118 338 118 q 550 163 503 118 q 597 281 597 207 q 567 378 597 336 q 479 435 536 419 l 333 474 q 172 575 231 501 q 113 751 113 649 q 149 897 113 835 q 254 993 186 958 q 413 1028 322 1028 q 572 993 503 1028 q 678 897 640 958 q 717 753 717 835 l 569 753 q 526 858 569 818 q 413 897 482 897 q 301 858 343 897 q 258 754 258 818 q 287 668 258 703 q 367 619 315 633 l 517 579 q 683 471 622 551 q 744 281 744 390 q 704 124 744 190 q 592 22 664 58 q 421 -14 519 -14 m 258 -333 l 390 -132 l 554 -132 l 404 -333 l 258 -333 z "},"ẞ":{"ha":833,"x_min":114,"x_max":758,"o":"m 114 0 l 114 722 q 152 876 114 810 q 258 978 190 942 q 417 1014 326 1014 l 742 1014 l 742 869 l 518 588 q 693 499 628 576 q 758 299 758 421 q 719 142 758 208 q 610 38 681 75 q 446 0 540 0 l 358 0 l 358 132 l 433 132 q 558 178 513 132 q 603 304 603 225 q 557 426 603 381 q 433 472 511 472 l 371 472 l 371 594 l 593 882 l 417 882 q 301 839 343 882 q 258 722 258 796 l 258 0 l 114 0 z "},"Ə":{"ha":833,"x_min":113,"x_max":721,"o":"m 417 -14 q 194 67 276 -14 q 113 282 113 149 l 113 563 l 571 563 l 571 733 q 532 853 571 811 q 417 896 493 896 q 303 853 342 896 q 264 732 264 811 l 114 732 q 195 948 114 868 q 417 1028 276 1028 q 640 949 560 1028 q 721 732 721 869 l 721 282 q 640 67 721 149 q 417 -14 558 -14 m 417 107 q 534 152 497 107 q 571 282 571 197 l 571 449 l 263 449 l 263 282 q 417 107 263 107 z "},"T":{"ha":833,"x_min":71,"x_max":764,"o":"m 342 0 l 342 878 l 71 878 l 71 1014 l 764 1014 l 764 878 l 492 878 l 492 0 l 342 0 z "},"Ŧ":{"ha":833,"x_min":71,"x_max":764,"o":"m 342 0 l 342 397 l 149 397 l 149 522 l 342 522 l 342 878 l 71 878 l 71 1014 l 764 1014 l 764 878 l 492 878 l 492 522 l 685 522 l 685 397 l 492 397 l 492 0 l 342 0 z "},"Ť":{"ha":833,"x_min":71,"x_max":764,"o":"m 342 0 l 342 878 l 71 878 l 71 1014 l 764 1014 l 764 878 l 492 878 l 492 0 l 342 0 m 347 1125 l 156 1319 l 308 1319 l 418 1214 l 524 1319 l 678 1319 l 486 1125 l 347 1125 z "},"Ţ":{"ha":833,"x_min":71,"x_max":764,"o":"m 342 0 l 342 878 l 71 878 l 71 1014 l 764 1014 l 764 878 l 492 878 l 492 0 l 475 -50 q 553 -69 513 -54 q 622 -109 594 -83 q 650 -172 650 -135 q 602 -256 650 -221 q 475 -292 554 -292 l 347 -292 l 347 -208 l 449 -208 q 499 -192 479 -208 q 519 -158 519 -176 q 480 -114 519 -132 q 368 -96 440 -96 l 406 0 l 342 0 z "},"Ț":{"ha":833,"x_min":71,"x_max":764,"o":"m 342 0 l 342 878 l 71 878 l 71 1014 l 764 1014 l 764 878 l 492 878 l 492 0 l 342 0 m 258 -333 l 390 -132 l 554 -132 l 404 -333 l 258 -333 z "},"U":{"ha":833,"x_min":113,"x_max":721,"o":"m 417 -14 q 192 66 271 -14 q 113 283 113 146 l 113 1014 l 263 1014 l 263 285 q 301 163 263 207 q 417 118 340 118 q 532 163 493 118 q 571 285 571 207 l 571 1014 l 721 1014 l 721 283 q 642 65 721 144 q 417 -14 563 -14 z "},"Ú":{"ha":833,"x_min":113,"x_max":721,"o":"m 417 -14 q 192 66 271 -14 q 113 283 113 146 l 113 1014 l 263 1014 l 263 285 q 301 163 263 207 q 417 118 340 118 q 532 163 493 118 q 571 285 571 207 l 571 1014 l 721 1014 l 721 283 q 642 65 721 144 q 417 -14 563 -14 m 324 1125 l 471 1319 l 632 1319 l 475 1125 l 324 1125 z "},"Ŭ":{"ha":833,"x_min":113,"x_max":721,"o":"m 417 -14 q 192 66 271 -14 q 113 283 113 146 l 113 1014 l 263 1014 l 263 285 q 301 163 263 207 q 417 118 340 118 q 532 163 493 118 q 571 285 571 207 l 571 1014 l 721 1014 l 721 283 q 642 65 721 144 q 417 -14 563 -14 m 417 1117 q 249 1172 313 1117 q 185 1319 185 1228 l 301 1319 q 333 1239 301 1269 q 415 1208 364 1208 q 500 1239 468 1208 q 532 1319 532 1269 l 650 1319 q 585 1172 650 1228 q 417 1117 521 1117 z "},"Û":{"ha":833,"x_min":113,"x_max":721,"o":"m 417 -14 q 192 66 271 -14 q 113 283 113 146 l 113 1014 l 263 1014 l 263 285 q 301 163 263 207 q 417 118 340 118 q 532 163 493 118 q 571 285 571 207 l 571 1014 l 721 1014 l 721 283 q 642 65 721 144 q 417 -14 563 -14 m 156 1125 l 347 1319 l 486 1319 l 678 1125 l 525 1125 l 415 1231 l 310 1125 l 156 1125 z "},"Ü":{"ha":833,"x_min":113,"x_max":721,"o":"m 417 -14 q 192 66 271 -14 q 113 283 113 146 l 113 1014 l 263 1014 l 263 285 q 301 163 263 207 q 417 118 340 118 q 532 163 493 118 q 571 285 571 207 l 571 1014 l 721 1014 l 721 283 q 642 65 721 144 q 417 -14 563 -14 m 575 1129 q 506 1154 532 1129 q 481 1222 481 1179 q 506 1292 481 1267 q 575 1318 532 1318 q 645 1292 619 1318 q 671 1222 671 1267 q 645 1154 671 1179 q 575 1129 619 1129 m 258 1129 q 188 1154 214 1129 q 163 1222 163 1179 q 188 1292 163 1267 q 258 1318 214 1318 q 328 1292 301 1318 q 354 1222 354 1267 q 328 1154 354 1179 q 258 1129 301 1129 z "},"Ụ":{"ha":833,"x_min":113,"x_max":721,"o":"m 417 -14 q 192 66 271 -14 q 113 283 113 146 l 113 1014 l 263 1014 l 263 285 q 301 163 263 207 q 417 118 340 118 q 532 163 493 118 q 571 285 571 207 l 571 1014 l 721 1014 l 721 283 q 642 65 721 144 q 417 -14 563 -14 m 417 -304 q 339 -279 368 -304 q 310 -210 310 -254 q 339 -141 310 -167 q 417 -115 368 -115 q 494 -141 465 -115 q 524 -210 524 -167 q 494 -279 524 -254 q 417 -304 465 -304 z "},"Ù":{"ha":833,"x_min":113,"x_max":721,"o":"m 417 -14 q 192 66 271 -14 q 113 283 113 146 l 113 1014 l 263 1014 l 263 285 q 301 163 263 207 q 417 118 340 118 q 532 163 493 118 q 571 285 571 207 l 571 1014 l 721 1014 l 721 283 q 642 65 721 144 q 417 -14 563 -14 m 358 1125 l 197 1319 l 364 1319 l 514 1125 l 358 1125 z "},"Ủ":{"ha":833,"x_min":113,"x_max":721,"o":"m 417 -14 q 192 66 271 -14 q 113 283 113 146 l 113 1014 l 263 1014 l 263 285 q 301 163 263 207 q 417 118 340 118 q 532 163 493 118 q 571 285 571 207 l 571 1014 l 721 1014 l 721 283 q 642 65 721 144 q 417 -14 563 -14 m 353 1110 l 417 1194 q 436 1238 436 1221 q 394 1265 436 1265 l 288 1265 l 288 1364 l 410 1364 q 515 1334 475 1364 q 556 1254 556 1304 q 529 1178 556 1213 l 481 1110 l 353 1110 z "},"Ư":{"ha":833,"x_min":113,"x_max":850,"o":"m 417 -14 q 192 66 271 -14 q 113 283 113 146 l 113 1014 l 263 1014 l 263 285 q 301 163 263 207 q 417 118 340 118 q 532 163 493 118 q 571 285 571 207 l 571 1014 l 678 1014 q 713 1027 700 1014 q 726 1063 726 1040 l 726 1167 l 850 1167 l 850 1058 q 815 960 850 999 q 721 911 781 921 l 721 283 q 642 65 721 144 q 417 -14 563 -14 z "},"Ứ":{"ha":833,"x_min":113,"x_max":850,"o":"m 417 -14 q 192 66 271 -14 q 113 283 113 146 l 113 1014 l 263 1014 l 263 285 q 301 163 263 207 q 417 118 340 118 q 532 163 493 118 q 571 285 571 207 l 571 1014 l 678 1014 q 713 1027 700 1014 q 726 1063 726 1040 l 726 1167 l 850 1167 l 850 1058 q 815 960 850 999 q 721 911 781 921 l 721 283 q 642 65 721 144 q 417 -14 563 -14 m 324 1125 l 471 1319 l 632 1319 l 475 1125 l 324 1125 z "},"Ự":{"ha":833,"x_min":113,"x_max":850,"o":"m 417 -14 q 192 66 271 -14 q 113 283 113 146 l 113 1014 l 263 1014 l 263 285 q 301 163 263 207 q 417 118 340 118 q 532 163 493 118 q 571 285 571 207 l 571 1014 l 678 1014 q 713 1027 700 1014 q 726 1063 726 1040 l 726 1167 l 850 1167 l 850 1058 q 815 960 850 999 q 721 911 781 921 l 721 283 q 642 65 721 144 q 417 -14 563 -14 m 417 -304 q 339 -279 368 -304 q 310 -210 310 -254 q 339 -141 310 -167 q 417 -115 368 -115 q 494 -141 465 -115 q 524 -210 524 -167 q 494 -279 524 -254 q 417 -304 465 -304 z "},"Ừ":{"ha":833,"x_min":113,"x_max":850,"o":"m 417 -14 q 192 66 271 -14 q 113 283 113 146 l 113 1014 l 263 1014 l 263 285 q 301 163 263 207 q 417 118 340 118 q 532 163 493 118 q 571 285 571 207 l 571 1014 l 678 1014 q 713 1027 700 1014 q 726 1063 726 1040 l 726 1167 l 850 1167 l 850 1058 q 815 960 850 999 q 721 911 781 921 l 721 283 q 642 65 721 144 q 417 -14 563 -14 m 358 1125 l 197 1319 l 364 1319 l 514 1125 l 358 1125 z "},"Ử":{"ha":833,"x_min":113,"x_max":850,"o":"m 417 -14 q 192 66 271 -14 q 113 283 113 146 l 113 1014 l 263 1014 l 263 285 q 301 163 263 207 q 417 118 340 118 q 532 163 493 118 q 571 285 571 207 l 571 1014 l 678 1014 q 713 1027 700 1014 q 726 1063 726 1040 l 726 1167 l 850 1167 l 850 1058 q 815 960 850 999 q 721 911 781 921 l 721 283 q 642 65 721 144 q 417 -14 563 -14 m 353 1110 l 417 1194 q 436 1238 436 1221 q 394 1265 436 1265 l 288 1265 l 288 1364 l 410 1364 q 515 1334 475 1364 q 556 1254 556 1304 q 529 1178 556 1213 l 481 1110 l 353 1110 z "},"Ữ":{"ha":833,"x_min":113,"x_max":850,"o":"m 417 -14 q 192 66 271 -14 q 113 283 113 146 l 113 1014 l 263 1014 l 263 285 q 301 163 263 207 q 417 118 340 118 q 532 163 493 118 q 571 285 571 207 l 571 1014 l 678 1014 q 713 1027 700 1014 q 726 1063 726 1040 l 726 1167 l 850 1167 l 850 1058 q 815 960 850 999 q 721 911 781 921 l 721 283 q 642 65 721 144 q 417 -14 563 -14 m 514 1126 q 444 1140 471 1126 q 400 1172 418 1154 q 365 1205 382 1190 q 326 1219 349 1219 q 285 1171 285 1219 l 285 1133 l 186 1133 l 186 1176 q 223 1281 186 1242 q 319 1319 260 1319 q 389 1305 363 1319 q 433 1272 415 1290 q 468 1240 451 1254 q 507 1226 485 1226 q 549 1271 549 1226 l 549 1313 l 647 1313 l 647 1268 q 610 1165 647 1203 q 514 1126 574 1126 z "},"Ű":{"ha":833,"x_min":113,"x_max":751,"o":"m 417 -14 q 192 66 271 -14 q 113 283 113 146 l 113 1014 l 263 1014 l 263 285 q 301 163 263 207 q 417 118 340 118 q 532 163 493 118 q 571 285 571 207 l 571 1014 l 721 1014 l 721 283 q 642 65 721 144 q 417 -14 563 -14 m 451 1125 l 601 1319 l 751 1319 l 592 1125 l 451 1125 m 186 1125 l 338 1319 l 486 1319 l 326 1125 l 186 1125 z "},"Ū":{"ha":833,"x_min":113,"x_max":721,"o":"m 417 -14 q 192 66 271 -14 q 113 283 113 146 l 113 1014 l 263 1014 l 263 285 q 301 163 263 207 q 417 118 340 118 q 532 163 493 118 q 571 285 571 207 l 571 1014 l 721 1014 l 721 283 q 642 65 721 144 q 417 -14 563 -14 m 186 1158 l 186 1278 l 647 1278 l 647 1158 l 186 1158 z "},"Ų":{"ha":833,"x_min":113,"x_max":721,"o":"m 517 -292 q 390 -253 436 -292 q 343 -154 343 -214 q 370 -81 343 -121 q 440 -7 397 -42 q 417 -14 431 -14 q 194 66 275 -14 q 113 282 113 146 l 113 1014 l 263 1014 l 263 282 q 302 161 263 203 q 417 119 342 119 q 531 161 492 119 q 571 282 571 203 l 571 1014 l 721 1014 l 721 282 q 689 135 721 199 q 599 33 657 71 l 551 -6 q 494 -69 510 -40 q 478 -125 478 -99 q 497 -171 478 -153 q 550 -189 515 -189 l 638 -189 l 638 -292 l 517 -292 z "},"Ů":{"ha":833,"x_min":113,"x_max":721,"o":"m 417 -14 q 192 66 271 -14 q 113 283 113 146 l 113 1014 l 263 1014 l 263 285 q 301 163 263 207 q 417 118 340 118 q 532 163 493 118 q 571 285 571 207 l 571 1014 l 721 1014 l 721 283 q 642 65 721 144 q 417 -14 563 -14 m 417 1058 q 290 1103 338 1058 q 242 1222 242 1149 q 290 1341 242 1296 q 417 1386 338 1386 q 544 1341 496 1386 q 592 1222 592 1296 q 544 1103 592 1149 q 417 1058 496 1058 m 417 1139 q 477 1162 454 1139 q 500 1222 500 1185 q 477 1283 500 1260 q 417 1307 454 1307 q 356 1283 379 1307 q 333 1222 333 1260 q 356 1162 333 1185 q 417 1139 379 1139 z "},"Ũ":{"ha":833,"x_min":113,"x_max":721,"o":"m 417 -14 q 192 66 271 -14 q 113 283 113 146 l 113 1014 l 263 1014 l 263 285 q 301 163 263 207 q 417 118 340 118 q 532 163 493 118 q 571 285 571 207 l 571 1014 l 721 1014 l 721 283 q 642 65 721 144 q 417 -14 563 -14 m 514 1126 q 444 1140 471 1126 q 400 1172 418 1154 q 365 1205 382 1190 q 326 1219 349 1219 q 285 1171 285 1219 l 285 1133 l 186 1133 l 186 1176 q 223 1281 186 1242 q 319 1319 260 1319 q 389 1305 363 1319 q 433 1272 415 1290 q 468 1240 451 1254 q 507 1226 485 1226 q 549 1271 549 1226 l 549 1313 l 647 1313 l 647 1268 q 610 1165 647 1203 q 514 1126 574 1126 z "},"V":{"ha":833,"x_min":60,"x_max":775,"o":"m 317 0 l 60 1014 l 213 1014 l 376 339 q 403 219 392 278 q 419 129 414 161 q 437 220 425 161 q 464 340 449 279 l 621 1014 l 775 1014 l 517 0 l 317 0 z "},"W":{"ha":833,"x_min":24,"x_max":810,"o":"m 136 0 l 24 1014 l 154 1014 l 225 286 q 232 192 229 244 q 236 106 235 139 q 244 192 240 139 q 254 286 249 244 l 349 1014 l 490 1014 l 578 286 q 588 192 582 244 q 597 106 594 139 q 603 192 600 139 q 611 286 607 244 l 683 1014 l 810 1014 l 693 0 l 518 0 l 433 738 q 425 832 429 781 q 418 915 421 883 q 412 832 415 883 q 403 738 408 781 l 313 0 l 136 0 z "},"Ẃ":{"ha":833,"x_min":24,"x_max":810,"o":"m 136 0 l 24 1014 l 154 1014 l 225 286 q 232 192 229 244 q 236 106 235 139 q 244 192 240 139 q 254 286 249 244 l 349 1014 l 490 1014 l 578 286 q 588 192 582 244 q 597 106 594 139 q 603 192 600 139 q 611 286 607 244 l 683 1014 l 810 1014 l 693 0 l 518 0 l 433 738 q 425 832 429 781 q 418 915 421 883 q 412 832 415 883 q 403 738 408 781 l 313 0 l 136 0 m 324 1125 l 471 1319 l 632 1319 l 475 1125 l 324 1125 z "},"Ŵ":{"ha":833,"x_min":24,"x_max":810,"o":"m 136 0 l 24 1014 l 154 1014 l 225 286 q 232 192 229 244 q 236 106 235 139 q 244 192 240 139 q 254 286 249 244 l 349 1014 l 490 1014 l 578 286 q 588 192 582 244 q 597 106 594 139 q 603 192 600 139 q 611 286 607 244 l 683 1014 l 810 1014 l 693 0 l 518 0 l 433 738 q 425 832 429 781 q 418 915 421 883 q 412 832 415 883 q 403 738 408 781 l 313 0 l 136 0 m 156 1125 l 347 1319 l 486 1319 l 678 1125 l 525 1125 l 415 1231 l 310 1125 l 156 1125 z "},"Ẅ":{"ha":833,"x_min":24,"x_max":810,"o":"m 136 0 l 24 1014 l 154 1014 l 225 286 q 232 192 229 244 q 236 106 235 139 q 244 192 240 139 q 254 286 249 244 l 349 1014 l 490 1014 l 578 286 q 588 192 582 244 q 597 106 594 139 q 603 192 600 139 q 611 286 607 244 l 683 1014 l 810 1014 l 693 0 l 518 0 l 433 738 q 425 832 429 781 q 418 915 421 883 q 412 832 415 883 q 403 738 408 781 l 313 0 l 136 0 m 575 1129 q 506 1154 532 1129 q 481 1222 481 1179 q 506 1292 481 1267 q 575 1318 532 1318 q 645 1292 619 1318 q 671 1222 671 1267 q 645 1154 671 1179 q 575 1129 619 1129 m 258 1129 q 188 1154 214 1129 q 163 1222 163 1179 q 188 1292 163 1267 q 258 1318 214 1318 q 328 1292 301 1318 q 354 1222 354 1267 q 328 1154 354 1179 q 258 1129 301 1129 z "},"Ẁ":{"ha":833,"x_min":24,"x_max":810,"o":"m 136 0 l 24 1014 l 154 1014 l 225 286 q 232 192 229 244 q 236 106 235 139 q 244 192 240 139 q 254 286 249 244 l 349 1014 l 490 1014 l 578 286 q 588 192 582 244 q 597 106 594 139 q 603 192 600 139 q 611 286 607 244 l 683 1014 l 810 1014 l 693 0 l 518 0 l 433 738 q 425 832 429 781 q 418 915 421 883 q 412 832 415 883 q 403 738 408 781 l 313 0 l 136 0 m 358 1125 l 197 1319 l 364 1319 l 514 1125 l 358 1125 z "},"X":{"ha":833,"x_min":47,"x_max":786,"o":"m 47 0 l 333 517 l 64 1014 l 233 1014 l 375 738 q 400 685 388 711 q 419 644 413 658 q 437 685 425 658 q 463 738 449 711 l 607 1014 l 769 1014 l 500 522 l 786 0 l 617 0 l 460 300 q 433 353 446 326 q 414 396 421 381 q 396 353 408 381 q 371 301 383 326 l 211 0 l 47 0 z "},"Y":{"ha":833,"x_min":40,"x_max":793,"o":"m 342 0 l 342 374 l 40 1014 l 199 1014 l 375 631 q 404 560 393 593 q 419 510 415 526 q 435 560 424 526 q 463 631 446 593 l 638 1014 l 793 1014 l 492 374 l 492 0 l 342 0 z "},"Ý":{"ha":833,"x_min":40,"x_max":793,"o":"m 342 0 l 342 374 l 40 1014 l 199 1014 l 375 631 q 404 560 393 593 q 419 510 415 526 q 435 560 424 526 q 463 631 446 593 l 638 1014 l 793 1014 l 492 374 l 492 0 l 342 0 m 324 1125 l 471 1319 l 632 1319 l 475 1125 l 324 1125 z "},"Ŷ":{"ha":833,"x_min":40,"x_max":793,"o":"m 342 0 l 342 374 l 40 1014 l 199 1014 l 375 631 q 404 560 393 593 q 419 510 415 526 q 435 560 424 526 q 463 631 446 593 l 638 1014 l 793 1014 l 492 374 l 492 0 l 342 0 m 156 1125 l 347 1319 l 486 1319 l 678 1125 l 525 1125 l 415 1231 l 310 1125 l 156 1125 z "},"Ÿ":{"ha":833,"x_min":40,"x_max":793,"o":"m 342 0 l 342 374 l 40 1014 l 199 1014 l 375 631 q 404 560 393 593 q 419 510 415 526 q 435 560 424 526 q 463 631 446 593 l 638 1014 l 793 1014 l 492 374 l 492 0 l 342 0 m 575 1129 q 506 1154 532 1129 q 481 1222 481 1179 q 506 1292 481 1267 q 575 1318 532 1318 q 645 1292 619 1318 q 671 1222 671 1267 q 645 1154 671 1179 q 575 1129 619 1129 m 258 1129 q 188 1154 214 1129 q 163 1222 163 1179 q 188 1292 163 1267 q 258 1318 214 1318 q 328 1292 301 1318 q 354 1222 354 1267 q 328 1154 354 1179 q 258 1129 301 1129 z "},"Ỵ":{"ha":833,"x_min":40,"x_max":793,"o":"m 342 0 l 342 374 l 40 1014 l 199 1014 l 375 631 q 404 560 393 593 q 419 510 415 526 q 435 560 424 526 q 463 631 446 593 l 638 1014 l 793 1014 l 492 374 l 492 0 l 342 0 m 417 -304 q 339 -279 368 -304 q 310 -210 310 -254 q 339 -141 310 -167 q 417 -115 368 -115 q 494 -141 465 -115 q 524 -210 524 -167 q 494 -279 524 -254 q 417 -304 465 -304 z "},"Ỳ":{"ha":833,"x_min":40,"x_max":793,"o":"m 342 0 l 342 374 l 40 1014 l 199 1014 l 375 631 q 404 560 393 593 q 419 510 415 526 q 435 560 424 526 q 463 631 446 593 l 638 1014 l 793 1014 l 492 374 l 492 0 l 342 0 m 358 1125 l 197 1319 l 364 1319 l 514 1125 l 358 1125 z "},"Ỷ":{"ha":833,"x_min":40,"x_max":793,"o":"m 342 0 l 342 374 l 40 1014 l 199 1014 l 375 631 q 404 560 393 593 q 419 510 415 526 q 435 560 424 526 q 463 631 446 593 l 638 1014 l 793 1014 l 492 374 l 492 0 l 342 0 m 353 1110 l 417 1194 q 436 1238 436 1221 q 394 1265 436 1265 l 288 1265 l 288 1364 l 410 1364 q 515 1334 475 1364 q 556 1254 556 1304 q 529 1178 556 1213 l 481 1110 l 353 1110 z "},"Ȳ":{"ha":833,"x_min":40,"x_max":793,"o":"m 342 0 l 342 374 l 40 1014 l 199 1014 l 375 631 q 404 560 393 593 q 419 510 415 526 q 435 560 424 526 q 463 631 446 593 l 638 1014 l 793 1014 l 492 374 l 492 0 l 342 0 m 186 1158 l 186 1278 l 647 1278 l 647 1158 l 186 1158 z "},"Ỹ":{"ha":833,"x_min":40,"x_max":793,"o":"m 342 0 l 342 374 l 40 1014 l 199 1014 l 375 631 q 404 560 393 593 q 419 510 415 526 q 435 560 424 526 q 463 631 446 593 l 638 1014 l 793 1014 l 492 374 l 492 0 l 342 0 m 514 1126 q 444 1140 471 1126 q 400 1172 418 1154 q 365 1205 382 1190 q 326 1219 349 1219 q 285 1171 285 1219 l 285 1133 l 186 1133 l 186 1176 q 223 1281 186 1242 q 319 1319 260 1319 q 389 1305 363 1319 q 433 1272 415 1290 q 468 1240 451 1254 q 507 1226 485 1226 q 549 1271 549 1226 l 549 1313 l 647 1313 l 647 1268 q 610 1165 647 1203 q 514 1126 574 1126 z "},"Z":{"ha":833,"x_min":114,"x_max":719,"o":"m 114 0 l 114 144 l 546 878 l 122 878 l 122 1014 l 706 1014 l 706 871 l 274 136 l 719 136 l 719 0 l 114 0 z "},"Ź":{"ha":833,"x_min":114,"x_max":719,"o":"m 114 0 l 114 144 l 546 878 l 122 878 l 122 1014 l 706 1014 l 706 871 l 274 136 l 719 136 l 719 0 l 114 0 m 324 1125 l 471 1319 l 632 1319 l 475 1125 l 324 1125 z "},"Ž":{"ha":833,"x_min":114,"x_max":719,"o":"m 114 0 l 114 144 l 546 878 l 122 878 l 122 1014 l 706 1014 l 706 871 l 274 136 l 719 136 l 719 0 l 114 0 m 347 1125 l 156 1319 l 308 1319 l 418 1214 l 524 1319 l 678 1319 l 486 1125 l 347 1125 z "},"Ż":{"ha":833,"x_min":114,"x_max":719,"o":"m 114 0 l 114 144 l 546 878 l 122 878 l 122 1014 l 706 1014 l 706 871 l 274 136 l 719 136 l 719 0 l 114 0 m 417 1128 q 339 1153 368 1128 q 310 1222 310 1179 q 339 1291 310 1265 q 417 1317 368 1317 q 494 1291 465 1317 q 524 1222 524 1265 q 494 1153 524 1179 q 417 1128 465 1128 z "},"a":{"ha":833,"x_min":86,"x_max":717,"o":"m 340 -14 q 155 52 224 -14 q 86 225 86 118 q 160 399 86 333 q 356 465 233 465 l 567 465 l 567 521 q 418 653 567 653 q 311 628 351 653 q 268 558 271 603 l 121 558 q 207 716 128 654 q 419 778 286 778 q 639 710 561 778 q 717 522 717 643 l 717 0 l 569 0 l 569 143 l 568 143 q 499 28 558 69 q 340 -14 439 -14 m 383 110 q 517 151 468 110 q 567 261 567 192 l 567 360 l 367 360 q 272 325 307 360 q 236 236 236 290 q 275 144 236 178 q 383 110 314 110 z "},"á":{"ha":833,"x_min":86,"x_max":717,"o":"m 340 -14 q 155 52 224 -14 q 86 225 86 118 q 160 399 86 333 q 356 465 233 465 l 567 465 l 567 521 q 418 653 567 653 q 311 628 351 653 q 268 558 271 603 l 121 558 q 207 716 128 654 q 419 778 286 778 q 639 710 561 778 q 717 522 717 643 l 717 0 l 569 0 l 569 143 l 568 143 q 499 28 558 69 q 340 -14 439 -14 m 383 110 q 517 151 468 110 q 567 261 567 192 l 567 360 l 367 360 q 272 325 307 360 q 236 236 236 290 q 275 144 236 178 q 383 110 314 110 m 331 896 l 478 1090 l 639 1090 l 482 896 l 331 896 z "},"ă":{"ha":833,"x_min":86,"x_max":717,"o":"m 340 -14 q 155 52 224 -14 q 86 225 86 118 q 160 399 86 333 q 356 465 233 465 l 567 465 l 567 521 q 418 653 567 653 q 311 628 351 653 q 268 558 271 603 l 121 558 q 207 716 128 654 q 419 778 286 778 q 639 710 561 778 q 717 522 717 643 l 717 0 l 569 0 l 569 143 l 568 143 q 499 28 558 69 q 340 -14 439 -14 m 383 110 q 517 151 468 110 q 567 261 567 192 l 567 360 l 367 360 q 272 325 307 360 q 236 236 236 290 q 275 144 236 178 q 383 110 314 110 m 424 888 q 256 943 319 888 q 192 1090 192 999 l 308 1090 q 340 1010 308 1040 q 422 979 371 979 q 507 1010 475 979 q 539 1090 539 1040 l 657 1090 q 592 943 657 999 q 424 888 528 888 z "},"ắ":{"ha":833,"x_min":86,"x_max":717,"o":"m 340 -14 q 155 52 224 -14 q 86 225 86 118 q 160 399 86 333 q 356 465 233 465 l 567 465 l 567 521 q 418 653 567 653 q 311 628 351 653 q 268 558 271 603 l 121 558 q 207 716 128 654 q 419 778 286 778 q 639 710 561 778 q 717 522 717 643 l 717 0 l 569 0 l 569 143 l 568 143 q 499 28 558 69 q 340 -14 439 -14 m 383 110 q 517 151 468 110 q 567 261 567 192 l 567 360 l 367 360 q 272 325 307 360 q 236 236 236 290 q 275 144 236 178 q 383 110 314 110 m 335 1068 l 494 1253 l 643 1253 l 474 1068 l 335 1068 m 424 889 q 249 940 315 889 q 182 1074 182 990 l 296 1074 q 331 1009 296 1033 q 424 985 365 985 q 517 1009 482 985 q 553 1074 553 1033 l 667 1074 q 599 940 667 990 q 424 889 532 889 z "},"ặ":{"ha":833,"x_min":86,"x_max":717,"o":"m 340 -14 q 155 52 224 -14 q 86 225 86 118 q 160 399 86 333 q 356 465 233 465 l 567 465 l 567 521 q 418 653 567 653 q 311 628 351 653 q 268 558 271 603 l 121 558 q 207 716 128 654 q 419 778 286 778 q 639 710 561 778 q 717 522 717 643 l 717 0 l 569 0 l 569 143 l 568 143 q 499 28 558 69 q 340 -14 439 -14 m 383 110 q 517 151 468 110 q 567 261 567 192 l 567 360 l 367 360 q 272 325 307 360 q 236 236 236 290 q 275 144 236 178 q 383 110 314 110 m 424 -304 q 346 -279 375 -304 q 317 -210 317 -254 q 346 -141 317 -167 q 424 -115 375 -115 q 501 -141 472 -115 q 531 -210 531 -167 q 501 -279 531 -254 q 424 -304 472 -304 m 424 888 q 256 943 319 888 q 192 1090 192 999 l 308 1090 q 340 1010 308 1040 q 422 979 371 979 q 507 1010 475 979 q 539 1090 539 1040 l 657 1090 q 592 943 657 999 q 424 888 528 888 z "},"ằ":{"ha":833,"x_min":86,"x_max":717,"o":"m 340 -14 q 155 52 224 -14 q 86 225 86 118 q 160 399 86 333 q 356 465 233 465 l 567 465 l 567 521 q 418 653 567 653 q 311 628 351 653 q 268 558 271 603 l 121 558 q 207 716 128 654 q 419 778 286 778 q 639 710 561 778 q 717 522 717 643 l 717 0 l 569 0 l 569 143 l 568 143 q 499 28 558 69 q 340 -14 439 -14 m 383 110 q 517 151 468 110 q 567 261 567 192 l 567 360 l 367 360 q 272 325 307 360 q 236 236 236 290 q 275 144 236 178 q 383 110 314 110 m 374 1068 l 204 1253 l 353 1253 l 513 1068 l 374 1068 m 424 889 q 249 940 315 889 q 182 1074 182 990 l 296 1074 q 331 1009 296 1033 q 424 985 365 985 q 517 1009 482 985 q 553 1074 553 1033 l 667 1074 q 599 940 667 990 q 424 889 532 889 z "},"ẳ":{"ha":833,"x_min":86,"x_max":717,"o":"m 340 -14 q 155 52 224 -14 q 86 225 86 118 q 160 399 86 333 q 356 465 233 465 l 567 465 l 567 521 q 418 653 567 653 q 311 628 351 653 q 268 558 271 603 l 121 558 q 207 716 128 654 q 419 778 286 778 q 639 710 561 778 q 717 522 717 643 l 717 0 l 569 0 l 569 143 l 568 143 q 499 28 558 69 q 340 -14 439 -14 m 383 110 q 517 151 468 110 q 567 261 567 192 l 567 360 l 367 360 q 272 325 307 360 q 236 236 236 290 q 275 144 236 178 q 383 110 314 110 m 353 1068 l 415 1150 q 431 1186 431 1168 q 393 1217 431 1217 l 310 1217 l 310 1311 l 413 1311 q 511 1282 474 1311 q 549 1206 549 1253 q 522 1132 549 1168 l 475 1068 l 353 1068 m 424 889 q 249 940 315 889 q 182 1074 182 990 l 296 1074 q 331 1009 296 1033 q 424 985 365 985 q 517 1009 482 985 q 553 1074 553 1033 l 667 1074 q 599 940 667 990 q 424 889 532 889 z "},"ẵ":{"ha":833,"x_min":86,"x_max":717,"o":"m 340 -14 q 155 52 224 -14 q 86 225 86 118 q 160 399 86 333 q 356 465 233 465 l 567 465 l 567 521 q 418 653 567 653 q 311 628 351 653 q 268 558 271 603 l 121 558 q 207 716 128 654 q 419 778 286 778 q 639 710 561 778 q 717 522 717 643 l 717 0 l 569 0 l 569 143 l 568 143 q 499 28 558 69 q 340 -14 439 -14 m 383 110 q 517 151 468 110 q 567 261 567 192 l 567 360 l 367 360 q 272 325 307 360 q 236 236 236 290 q 275 144 236 178 q 383 110 314 110 m 517 1125 q 447 1139 474 1125 q 404 1170 421 1153 q 372 1201 388 1188 q 333 1215 356 1215 q 292 1172 292 1215 l 292 1135 l 193 1135 l 193 1169 q 231 1266 193 1229 q 331 1303 269 1303 q 401 1289 375 1303 q 444 1257 426 1275 q 476 1226 461 1239 q 514 1213 492 1213 q 556 1253 556 1213 l 556 1293 l 654 1293 l 654 1258 q 616 1162 654 1199 q 517 1125 578 1125 m 424 894 q 256 945 319 894 q 192 1079 192 996 l 300 1079 q 333 1013 300 1038 q 422 989 367 989 q 513 1013 479 989 q 547 1079 547 1038 l 657 1079 q 592 945 657 996 q 424 894 528 894 z "},"ǎ":{"ha":833,"x_min":86,"x_max":717,"o":"m 340 -14 q 155 52 224 -14 q 86 225 86 118 q 160 399 86 333 q 356 465 233 465 l 567 465 l 567 521 q 418 653 567 653 q 311 628 351 653 q 268 558 271 603 l 121 558 q 207 716 128 654 q 419 778 286 778 q 639 710 561 778 q 717 522 717 643 l 717 0 l 569 0 l 569 143 l 568 143 q 499 28 558 69 q 340 -14 439 -14 m 383 110 q 517 151 468 110 q 567 261 567 192 l 567 360 l 367 360 q 272 325 307 360 q 236 236 236 290 q 275 144 236 178 q 383 110 314 110 m 354 896 l 163 1090 l 315 1090 l 425 985 l 531 1090 l 685 1090 l 493 896 l 354 896 z "},"â":{"ha":833,"x_min":86,"x_max":717,"o":"m 340 -14 q 155 52 224 -14 q 86 225 86 118 q 160 399 86 333 q 356 465 233 465 l 567 465 l 567 521 q 418 653 567 653 q 311 628 351 653 q 268 558 271 603 l 121 558 q 207 716 128 654 q 419 778 286 778 q 639 710 561 778 q 717 522 717 643 l 717 0 l 569 0 l 569 143 l 568 143 q 499 28 558 69 q 340 -14 439 -14 m 383 110 q 517 151 468 110 q 567 261 567 192 l 567 360 l 367 360 q 272 325 307 360 q 236 236 236 290 q 275 144 236 178 q 383 110 314 110 m 163 896 l 354 1090 l 493 1090 l 685 896 l 532 896 l 422 1001 l 317 896 l 163 896 z "},"ấ":{"ha":833,"x_min":86,"x_max":900,"o":"m 340 -14 q 155 52 224 -14 q 86 225 86 118 q 160 399 86 333 q 356 465 233 465 l 567 465 l 567 521 q 418 653 567 653 q 311 628 351 653 q 268 558 271 603 l 121 558 q 207 716 128 654 q 419 778 286 778 q 639 710 561 778 q 717 522 717 643 l 717 0 l 569 0 l 569 143 l 568 143 q 499 28 558 69 q 340 -14 439 -14 m 383 110 q 517 151 468 110 q 567 261 567 192 l 567 360 l 367 360 q 272 325 307 360 q 236 236 236 290 q 275 144 236 178 q 383 110 314 110 m 581 1056 l 743 1250 l 900 1250 l 729 1056 l 581 1056 m 164 896 l 354 1090 l 493 1090 l 685 896 l 531 896 l 424 1001 l 317 896 l 164 896 z "},"ậ":{"ha":833,"x_min":86,"x_max":717,"o":"m 340 -14 q 155 52 224 -14 q 86 225 86 118 q 160 399 86 333 q 356 465 233 465 l 567 465 l 567 521 q 418 653 567 653 q 311 628 351 653 q 268 558 271 603 l 121 558 q 207 716 128 654 q 419 778 286 778 q 639 710 561 778 q 717 522 717 643 l 717 0 l 569 0 l 569 143 l 568 143 q 499 28 558 69 q 340 -14 439 -14 m 383 110 q 517 151 468 110 q 567 261 567 192 l 567 360 l 367 360 q 272 325 307 360 q 236 236 236 290 q 275 144 236 178 q 383 110 314 110 m 424 -304 q 346 -279 375 -304 q 317 -210 317 -254 q 346 -141 317 -167 q 424 -115 375 -115 q 501 -141 472 -115 q 531 -210 531 -167 q 501 -279 531 -254 q 424 -304 472 -304 m 163 896 l 354 1090 l 493 1090 l 685 896 l 532 896 l 422 1001 l 317 896 l 163 896 z "},"ầ":{"ha":833,"x_min":86,"x_max":792,"o":"m 340 -14 q 155 52 224 -14 q 86 225 86 118 q 160 399 86 333 q 356 465 233 465 l 567 465 l 567 521 q 418 653 567 653 q 311 628 351 653 q 268 558 271 603 l 121 558 q 207 716 128 654 q 419 778 286 778 q 639 710 561 778 q 717 522 717 643 l 717 0 l 569 0 l 569 143 l 568 143 q 499 28 558 69 q 340 -14 439 -14 m 383 110 q 517 151 468 110 q 567 261 567 192 l 567 360 l 367 360 q 272 325 307 360 q 236 236 236 290 q 275 144 236 178 q 383 110 314 110 m 643 1056 l 463 1250 l 619 1250 l 792 1056 l 643 1056 m 164 896 l 354 1090 l 493 1090 l 685 896 l 531 896 l 424 1001 l 317 896 l 164 896 z "},"ẩ":{"ha":833,"x_min":86,"x_max":788,"o":"m 340 -14 q 155 52 224 -14 q 86 225 86 118 q 160 399 86 333 q 356 465 233 465 l 567 465 l 567 521 q 418 653 567 653 q 311 628 351 653 q 268 558 271 603 l 121 558 q 207 716 128 654 q 419 778 286 778 q 639 710 561 778 q 717 522 717 643 l 717 0 l 569 0 l 569 143 l 568 143 q 499 28 558 69 q 340 -14 439 -14 m 383 110 q 517 151 468 110 q 567 261 567 192 l 567 360 l 367 360 q 272 325 307 360 q 236 236 236 290 q 275 144 236 178 q 383 110 314 110 m 594 1056 l 658 1139 q 674 1175 674 1160 q 632 1206 674 1206 l 550 1206 l 550 1300 l 647 1300 q 749 1270 711 1300 q 788 1190 788 1240 q 763 1122 788 1157 l 714 1056 l 594 1056 m 164 896 l 354 1090 l 493 1090 l 685 896 l 531 896 l 424 1001 l 317 896 l 164 896 z "},"ẫ":{"ha":833,"x_min":86,"x_max":717,"o":"m 340 -14 q 155 52 224 -14 q 86 225 86 118 q 160 399 86 333 q 356 465 233 465 l 567 465 l 567 521 q 418 653 567 653 q 311 628 351 653 q 268 558 271 603 l 121 558 q 207 716 128 654 q 419 778 286 778 q 639 710 561 778 q 717 522 717 643 l 717 0 l 569 0 l 569 143 l 568 143 q 499 28 558 69 q 340 -14 439 -14 m 383 110 q 517 151 468 110 q 567 261 567 192 l 567 360 l 367 360 q 272 325 307 360 q 236 236 236 290 q 275 144 236 178 q 383 110 314 110 m 517 1133 q 447 1147 474 1133 q 404 1176 421 1160 q 372 1206 388 1193 q 333 1219 356 1219 q 292 1176 292 1219 l 292 1143 l 193 1143 l 193 1174 q 231 1270 193 1233 q 331 1307 269 1307 q 401 1294 375 1307 q 444 1263 426 1281 q 476 1233 461 1246 q 514 1221 492 1221 q 556 1261 556 1221 l 556 1296 l 654 1296 l 654 1267 q 616 1170 654 1207 q 517 1133 578 1133 m 164 896 l 354 1090 l 493 1090 l 685 896 l 531 896 l 424 1001 l 317 896 l 164 896 z "},"ä":{"ha":833,"x_min":86,"x_max":717,"o":"m 340 -14 q 155 52 224 -14 q 86 225 86 118 q 160 399 86 333 q 356 465 233 465 l 567 465 l 567 521 q 418 653 567 653 q 311 628 351 653 q 268 558 271 603 l 121 558 q 207 716 128 654 q 419 778 286 778 q 639 710 561 778 q 717 522 717 643 l 717 0 l 569 0 l 569 143 l 568 143 q 499 28 558 69 q 340 -14 439 -14 m 383 110 q 517 151 468 110 q 567 261 567 192 l 567 360 l 367 360 q 272 325 307 360 q 236 236 236 290 q 275 144 236 178 q 383 110 314 110 m 582 896 q 513 922 539 896 q 488 990 488 947 q 513 1060 488 1035 q 582 1086 539 1086 q 652 1060 626 1086 q 678 990 678 1035 q 652 922 678 947 q 582 896 626 896 m 265 896 q 195 922 221 896 q 169 990 169 947 q 195 1060 169 1035 q 265 1086 221 1086 q 335 1060 308 1086 q 361 990 361 1035 q 335 922 361 947 q 265 896 308 896 z "},"ạ":{"ha":833,"x_min":86,"x_max":717,"o":"m 340 -14 q 155 52 224 -14 q 86 225 86 118 q 160 399 86 333 q 356 465 233 465 l 567 465 l 567 521 q 418 653 567 653 q 311 628 351 653 q 268 558 271 603 l 121 558 q 207 716 128 654 q 419 778 286 778 q 639 710 561 778 q 717 522 717 643 l 717 0 l 569 0 l 569 143 l 568 143 q 499 28 558 69 q 340 -14 439 -14 m 383 110 q 517 151 468 110 q 567 261 567 192 l 567 360 l 367 360 q 272 325 307 360 q 236 236 236 290 q 275 144 236 178 q 383 110 314 110 m 424 -304 q 346 -279 375 -304 q 317 -210 317 -254 q 346 -141 317 -167 q 424 -115 375 -115 q 501 -141 472 -115 q 531 -210 531 -167 q 501 -279 531 -254 q 424 -304 472 -304 z "},"à":{"ha":833,"x_min":86,"x_max":717,"o":"m 340 -14 q 155 52 224 -14 q 86 225 86 118 q 160 399 86 333 q 356 465 233 465 l 567 465 l 567 521 q 418 653 567 653 q 311 628 351 653 q 268 558 271 603 l 121 558 q 207 716 128 654 q 419 778 286 778 q 639 710 561 778 q 717 522 717 643 l 717 0 l 569 0 l 569 143 l 568 143 q 499 28 558 69 q 340 -14 439 -14 m 383 110 q 517 151 468 110 q 567 261 567 192 l 567 360 l 367 360 q 272 325 307 360 q 236 236 236 290 q 275 144 236 178 q 383 110 314 110 m 365 896 l 204 1090 l 371 1090 l 521 896 l 365 896 z "},"ả":{"ha":833,"x_min":86,"x_max":717,"o":"m 340 -14 q 155 52 224 -14 q 86 225 86 118 q 160 399 86 333 q 356 465 233 465 l 567 465 l 567 521 q 418 653 567 653 q 311 628 351 653 q 268 558 271 603 l 121 558 q 207 716 128 654 q 419 778 286 778 q 639 710 561 778 q 717 522 717 643 l 717 0 l 569 0 l 569 143 l 568 143 q 499 28 558 69 q 340 -14 439 -14 m 383 110 q 517 151 468 110 q 567 261 567 192 l 567 360 l 367 360 q 272 325 307 360 q 236 236 236 290 q 275 144 236 178 q 383 110 314 110 m 360 896 l 428 982 q 449 1025 449 1007 q 406 1051 449 1051 l 294 1051 l 294 1150 l 440 1150 q 532 1121 497 1150 q 567 1042 567 1092 q 542 964 567 996 l 488 896 l 360 896 z "},"ā":{"ha":833,"x_min":86,"x_max":717,"o":"m 340 -14 q 155 52 224 -14 q 86 225 86 118 q 160 399 86 333 q 356 465 233 465 l 567 465 l 567 521 q 418 653 567 653 q 311 628 351 653 q 268 558 271 603 l 121 558 q 207 716 128 654 q 419 778 286 778 q 639 710 561 778 q 717 522 717 643 l 717 0 l 569 0 l 569 143 l 568 143 q 499 28 558 69 q 340 -14 439 -14 m 383 110 q 517 151 468 110 q 567 261 567 192 l 567 360 l 367 360 q 272 325 307 360 q 236 236 236 290 q 275 144 236 178 q 383 110 314 110 m 193 925 l 193 1043 l 654 1043 l 654 925 l 193 925 z "},"ą":{"ha":833,"x_min":86,"x_max":792,"o":"m 340 -14 q 155 52 224 -14 q 86 225 86 118 q 160 399 86 333 q 356 465 233 465 l 567 465 l 567 521 q 418 653 567 653 q 311 628 351 653 q 268 558 271 603 l 121 558 q 207 716 128 654 q 419 778 286 778 q 639 710 561 778 q 717 522 717 643 l 717 0 l 719 0 q 652 -69 672 -40 q 632 -125 632 -99 q 651 -171 632 -153 q 704 -189 671 -189 l 792 -189 l 792 -292 l 671 -292 q 544 -253 592 -292 q 497 -154 497 -214 q 523 -77 497 -117 q 604 0 549 -37 l 569 0 l 569 143 l 568 143 q 499 28 558 69 q 340 -14 439 -14 m 383 110 q 517 151 468 110 q 567 261 567 192 l 567 360 l 367 360 q 272 325 307 360 q 236 236 236 290 q 275 144 236 178 q 383 110 314 110 z "},"å":{"ha":833,"x_min":86,"x_max":717,"o":"m 340 -14 q 155 52 224 -14 q 86 225 86 118 q 160 399 86 333 q 356 465 233 465 l 567 465 l 567 521 q 418 653 567 653 q 311 628 351 653 q 268 558 271 603 l 121 558 q 207 716 128 654 q 419 778 286 778 q 639 710 561 778 q 717 522 717 643 l 717 0 l 569 0 l 569 143 l 568 143 q 499 28 558 69 q 340 -14 439 -14 m 383 110 q 517 151 468 110 q 567 261 567 192 l 567 360 l 367 360 q 272 325 307 360 q 236 236 236 290 q 275 144 236 178 q 383 110 314 110 m 424 840 q 297 885 344 840 q 249 1004 249 931 q 297 1123 249 1078 q 424 1168 344 1168 q 551 1123 503 1168 q 599 1004 599 1078 q 551 885 599 931 q 424 840 503 840 m 424 921 q 484 944 461 921 q 507 1004 507 967 q 484 1065 507 1042 q 424 1089 461 1089 q 363 1065 386 1089 q 340 1004 340 1042 q 363 944 340 967 q 424 921 386 921 z "},"ã":{"ha":833,"x_min":86,"x_max":717,"o":"m 340 -14 q 155 52 224 -14 q 86 225 86 118 q 160 399 86 333 q 356 465 233 465 l 567 465 l 567 521 q 418 653 567 653 q 311 628 351 653 q 268 558 271 603 l 121 558 q 207 716 128 654 q 419 778 286 778 q 639 710 561 778 q 717 522 717 643 l 717 0 l 569 0 l 569 143 l 568 143 q 499 28 558 69 q 340 -14 439 -14 m 383 110 q 517 151 468 110 q 567 261 567 192 l 567 360 l 367 360 q 272 325 307 360 q 236 236 236 290 q 275 144 236 178 q 383 110 314 110 m 521 897 q 451 911 478 897 q 407 943 425 925 q 372 976 389 961 q 333 990 356 990 q 292 942 292 990 l 292 904 l 193 904 l 193 947 q 230 1051 193 1013 q 326 1090 267 1090 q 396 1076 369 1090 q 440 1043 422 1061 q 475 1011 458 1025 q 514 997 492 997 q 556 1042 556 997 l 556 1083 l 654 1083 l 654 1039 q 617 935 654 974 q 521 897 581 897 z "},"æ":{"ha":833,"x_min":42,"x_max":788,"o":"m 247 -14 q 99 51 156 -14 q 42 221 42 117 q 102 388 42 324 q 260 453 163 453 l 357 453 l 357 554 q 335 635 357 607 q 272 664 313 664 q 210 638 233 664 q 186 569 186 613 l 60 569 q 113 720 60 663 q 253 778 167 778 q 367 744 319 778 q 421 653 414 710 q 474 744 428 710 q 583 778 519 778 q 731 716 674 778 q 788 556 788 654 l 788 353 l 483 353 l 483 208 q 506 128 483 157 q 569 100 529 100 q 633 126 610 100 q 656 196 656 153 l 788 196 q 731 44 788 103 q 585 -14 675 -14 q 477 21 524 -14 q 421 111 431 56 q 363 21 411 56 q 247 -14 314 -14 m 483 453 l 656 453 l 656 556 q 633 635 656 606 q 569 664 610 664 q 507 635 531 664 q 483 556 483 606 l 483 453 m 268 100 q 333 129 308 100 q 357 208 357 158 l 357 353 l 261 353 q 197 318 221 353 q 174 225 174 283 q 199 134 174 168 q 268 100 224 100 z "},"ǽ":{"ha":833,"x_min":42,"x_max":788,"o":"m 247 -14 q 99 51 156 -14 q 42 221 42 117 q 102 388 42 324 q 260 453 163 453 l 357 453 l 357 554 q 335 635 357 607 q 272 664 313 664 q 210 638 233 664 q 186 569 186 613 l 60 569 q 113 720 60 663 q 253 778 167 778 q 367 744 319 778 q 421 653 414 710 q 474 744 428 710 q 583 778 519 778 q 731 716 674 778 q 788 556 788 654 l 788 353 l 483 353 l 483 208 q 506 128 483 157 q 569 100 529 100 q 633 126 610 100 q 656 196 656 153 l 788 196 q 731 44 788 103 q 585 -14 675 -14 q 477 21 524 -14 q 421 111 431 56 q 363 21 411 56 q 247 -14 314 -14 m 483 453 l 656 453 l 656 556 q 633 635 656 606 q 569 664 610 664 q 507 635 531 664 q 483 556 483 606 l 483 453 m 268 100 q 333 129 308 100 q 357 208 357 158 l 357 353 l 261 353 q 197 318 221 353 q 174 225 174 283 q 199 134 174 168 q 268 100 224 100 m 324 896 l 471 1090 l 632 1090 l 475 896 l 324 896 z "},"b":{"ha":833,"x_min":117,"x_max":724,"o":"m 474 -14 q 335 28 390 -14 q 265 144 281 69 l 265 0 l 117 0 l 117 1014 l 267 1014 l 267 796 l 263 619 q 335 735 279 693 q 474 778 392 778 q 656 700 588 778 q 724 489 724 622 l 724 274 q 656 64 724 142 q 474 -14 588 -14 m 421 117 q 533 155 493 117 q 574 278 574 193 l 574 488 q 533 609 574 571 q 421 647 493 647 q 308 603 349 647 q 267 481 267 560 l 267 285 q 308 160 267 204 q 421 117 349 117 z "},"c":{"ha":833,"x_min":113,"x_max":739,"o":"m 428 -14 q 199 65 285 -14 q 113 282 113 144 l 113 482 q 199 699 113 619 q 428 778 285 778 q 650 706 567 778 q 739 508 733 633 l 590 508 q 542 610 586 574 q 428 646 499 646 q 307 603 351 646 q 263 483 263 561 l 263 282 q 307 160 263 203 q 428 118 351 118 q 543 154 500 118 q 590 257 586 190 l 739 257 q 650 59 733 132 q 428 -14 567 -14 z "},"ć":{"ha":833,"x_min":113,"x_max":739,"o":"m 428 -14 q 199 65 285 -14 q 113 282 113 144 l 113 482 q 199 699 113 619 q 428 778 285 778 q 650 706 567 778 q 739 508 733 633 l 590 508 q 542 610 586 574 q 428 646 499 646 q 307 603 351 646 q 263 483 263 561 l 263 282 q 307 160 263 203 q 428 118 351 118 q 543 154 500 118 q 590 257 586 190 l 739 257 q 650 59 733 132 q 428 -14 567 -14 m 335 896 l 482 1090 l 643 1090 l 486 896 l 335 896 z "},"č":{"ha":833,"x_min":113,"x_max":739,"o":"m 428 -14 q 199 65 285 -14 q 113 282 113 144 l 113 482 q 199 699 113 619 q 428 778 285 778 q 650 706 567 778 q 739 508 733 633 l 590 508 q 542 610 586 574 q 428 646 499 646 q 307 603 351 646 q 263 483 263 561 l 263 282 q 307 160 263 203 q 428 118 351 118 q 543 154 500 118 q 590 257 586 190 l 739 257 q 650 59 733 132 q 428 -14 567 -14 m 358 896 l 167 1090 l 319 1090 l 429 985 l 535 1090 l 689 1090 l 497 896 l 358 896 z "},"ç":{"ha":833,"x_min":113,"x_max":739,"o":"m 283 -292 l 283 -208 l 385 -208 q 436 -192 417 -208 q 456 -158 456 -176 q 416 -114 456 -132 q 306 -96 376 -96 l 340 -6 q 174 93 235 18 q 113 282 113 168 l 113 482 q 199 699 113 619 q 428 778 285 778 q 650 706 567 778 q 739 508 733 633 l 590 508 q 542 610 586 574 q 428 646 499 646 q 307 603 351 646 q 263 483 263 561 l 263 282 q 307 160 263 203 q 428 118 351 118 q 543 154 500 118 q 590 257 586 190 l 739 257 q 650 59 733 132 q 428 -14 567 -14 q 424 -14 425 -14 l 411 -50 q 490 -69 449 -54 q 559 -109 531 -83 q 588 -172 588 -135 q 539 -256 588 -221 q 413 -292 490 -292 l 283 -292 z "},"ĉ":{"ha":833,"x_min":113,"x_max":739,"o":"m 428 -14 q 199 65 285 -14 q 113 282 113 144 l 113 482 q 199 699 113 619 q 428 778 285 778 q 650 706 567 778 q 739 508 733 633 l 590 508 q 542 610 586 574 q 428 646 499 646 q 307 603 351 646 q 263 483 263 561 l 263 282 q 307 160 263 203 q 428 118 351 118 q 543 154 500 118 q 590 257 586 190 l 739 257 q 650 59 733 132 q 428 -14 567 -14 m 167 896 l 358 1090 l 497 1090 l 689 896 l 536 896 l 426 1001 l 321 896 l 167 896 z "},"ċ":{"ha":833,"x_min":113,"x_max":739,"o":"m 428 -14 q 199 65 285 -14 q 113 282 113 144 l 113 482 q 199 699 113 619 q 428 778 285 778 q 650 706 567 778 q 739 508 733 633 l 590 508 q 542 610 586 574 q 428 646 499 646 q 307 603 351 646 q 263 483 263 561 l 263 282 q 307 160 263 203 q 428 118 351 118 q 543 154 500 118 q 590 257 586 190 l 739 257 q 650 59 733 132 q 428 -14 567 -14 m 428 896 q 350 922 379 896 q 321 990 321 947 q 350 1060 321 1035 q 428 1086 379 1086 q 506 1060 476 1086 q 535 990 535 1035 q 506 922 535 947 q 428 896 476 896 z "},"d":{"ha":833,"x_min":110,"x_max":717,"o":"m 360 -14 q 178 64 246 -14 q 110 274 110 142 l 110 489 q 178 700 110 622 q 360 778 246 778 q 498 736 442 778 q 571 619 554 694 l 567 796 l 567 1014 l 717 1014 l 717 0 l 568 0 l 568 144 q 498 28 553 69 q 360 -14 443 -14 m 413 117 q 526 160 485 117 q 567 285 567 204 l 567 481 q 526 603 567 560 q 413 647 485 647 q 300 609 340 647 q 260 488 260 571 l 260 278 q 300 155 260 193 q 413 117 340 117 z "},"ð":{"ha":833,"x_min":85,"x_max":749,"o":"m 415 -10 q 242 30 317 -10 q 126 141 168 69 q 85 307 85 213 q 121 469 85 400 q 222 576 157 538 q 375 614 288 614 q 483 584 439 614 q 544 526 528 554 l 561 526 q 534 574 557 536 q 467 671 511 611 l 381 788 l 158 690 l 158 813 l 313 881 l 214 1014 l 385 1014 l 442 935 l 654 1026 l 654 904 l 508 842 l 607 703 q 713 509 676 608 q 749 321 749 410 q 708 147 749 221 q 592 31 667 72 q 415 -10 517 -10 m 415 121 q 549 172 499 121 q 599 307 599 222 q 549 443 599 392 q 415 494 499 494 q 285 443 335 494 q 235 307 235 392 q 285 172 235 222 q 415 121 335 121 z "},"ď":{"ha":833,"x_min":78,"x_max":847,"o":"m 307 -14 q 140 62 201 -14 q 78 267 78 138 l 78 496 q 140 702 78 626 q 307 778 201 778 q 430 735 382 778 q 488 618 478 692 l 492 618 l 488 796 l 488 1014 l 633 1014 l 633 0 l 490 0 l 490 146 l 488 146 q 430 29 478 72 q 307 -14 382 -14 m 694 764 l 714 1014 l 847 1014 l 815 764 l 694 764 m 358 113 q 453 156 419 113 q 488 275 488 199 l 488 489 q 453 609 488 567 q 358 651 419 651 q 259 609 294 651 q 224 489 224 567 l 224 275 q 259 156 224 199 q 358 113 294 113 z "},"đ":{"ha":833,"x_min":113,"x_max":833,"o":"m 363 -14 q 180 63 247 -14 q 113 274 113 140 l 113 406 q 179 617 113 539 q 363 694 246 694 q 500 652 446 694 q 564 535 554 610 l 568 535 l 564 713 l 564 786 l 343 786 l 343 896 l 564 896 l 564 1014 l 714 1014 l 714 896 l 833 896 l 833 786 l 714 786 l 714 0 l 567 0 l 567 146 l 564 146 q 501 28 554 71 q 363 -14 447 -14 m 414 117 q 524 160 485 117 q 564 282 564 203 l 564 399 q 524 520 564 476 q 414 564 485 564 q 301 521 340 564 q 263 399 263 478 l 263 282 q 301 159 263 201 q 414 117 340 117 z "},"e":{"ha":833,"x_min":107,"x_max":726,"o":"m 417 -14 q 192 68 276 -14 q 107 292 107 150 l 107 472 q 192 696 107 614 q 417 778 276 778 q 581 741 511 778 q 688 638 650 704 q 726 482 726 571 l 726 344 l 251 344 l 251 282 q 296 157 251 201 q 417 113 340 113 q 521 135 479 113 q 571 199 563 158 l 719 199 q 622 44 704 101 q 417 -14 539 -14 m 251 482 l 251 450 l 582 450 l 582 483 q 539 614 582 568 q 417 660 496 660 q 294 613 338 660 q 251 482 251 567 z "},"é":{"ha":833,"x_min":107,"x_max":726,"o":"m 417 -14 q 192 68 276 -14 q 107 292 107 150 l 107 472 q 192 696 107 614 q 417 778 276 778 q 581 741 511 778 q 688 638 650 704 q 726 482 726 571 l 726 344 l 251 344 l 251 282 q 296 157 251 201 q 417 113 340 113 q 521 135 479 113 q 571 199 563 158 l 719 199 q 622 44 704 101 q 417 -14 539 -14 m 251 482 l 251 450 l 582 450 l 582 483 q 539 614 582 568 q 417 660 496 660 q 294 613 338 660 q 251 482 251 567 m 324 896 l 471 1090 l 632 1090 l 475 896 l 324 896 z "},"ĕ":{"ha":833,"x_min":107,"x_max":726,"o":"m 417 -14 q 192 68 276 -14 q 107 292 107 150 l 107 472 q 192 696 107 614 q 417 778 276 778 q 581 741 511 778 q 688 638 650 704 q 726 482 726 571 l 726 344 l 251 344 l 251 282 q 296 157 251 201 q 417 113 340 113 q 521 135 479 113 q 571 199 563 158 l 719 199 q 622 44 704 101 q 417 -14 539 -14 m 251 482 l 251 450 l 582 450 l 582 483 q 539 614 582 568 q 417 660 496 660 q 294 613 338 660 q 251 482 251 567 m 417 888 q 249 943 313 888 q 185 1090 185 999 l 301 1090 q 333 1010 301 1040 q 415 979 364 979 q 500 1010 468 979 q 532 1090 532 1040 l 650 1090 q 585 943 650 999 q 417 888 521 888 z "},"ě":{"ha":833,"x_min":107,"x_max":726,"o":"m 417 -14 q 192 68 276 -14 q 107 292 107 150 l 107 472 q 192 696 107 614 q 417 778 276 778 q 581 741 511 778 q 688 638 650 704 q 726 482 726 571 l 726 344 l 251 344 l 251 282 q 296 157 251 201 q 417 113 340 113 q 521 135 479 113 q 571 199 563 158 l 719 199 q 622 44 704 101 q 417 -14 539 -14 m 251 482 l 251 450 l 582 450 l 582 483 q 539 614 582 568 q 417 660 496 660 q 294 613 338 660 q 251 482 251 567 m 347 896 l 156 1090 l 308 1090 l 418 985 l 524 1090 l 678 1090 l 486 896 l 347 896 z "},"ê":{"ha":833,"x_min":107,"x_max":726,"o":"m 417 -14 q 192 68 276 -14 q 107 292 107 150 l 107 472 q 192 696 107 614 q 417 778 276 778 q 581 741 511 778 q 688 638 650 704 q 726 482 726 571 l 726 344 l 251 344 l 251 282 q 296 157 251 201 q 417 113 340 113 q 521 135 479 113 q 571 199 563 158 l 719 199 q 622 44 704 101 q 417 -14 539 -14 m 251 482 l 251 450 l 582 450 l 582 483 q 539 614 582 568 q 417 660 496 660 q 294 613 338 660 q 251 482 251 567 m 156 896 l 347 1090 l 486 1090 l 678 896 l 525 896 l 415 1001 l 310 896 l 156 896 z "},"ế":{"ha":833,"x_min":107,"x_max":893,"o":"m 417 -14 q 192 68 276 -14 q 107 292 107 150 l 107 472 q 192 696 107 614 q 417 778 276 778 q 581 741 511 778 q 688 638 650 704 q 726 482 726 571 l 726 344 l 251 344 l 251 282 q 296 157 251 201 q 417 113 340 113 q 521 135 479 113 q 571 199 563 158 l 719 199 q 622 44 704 101 q 417 -14 539 -14 m 251 482 l 251 450 l 582 450 l 582 483 q 539 614 582 568 q 417 660 496 660 q 294 613 338 660 q 251 482 251 567 m 574 1056 l 736 1250 l 893 1250 l 722 1056 l 574 1056 m 157 896 l 347 1090 l 486 1090 l 678 896 l 524 896 l 417 1001 l 310 896 l 157 896 z "},"ệ":{"ha":833,"x_min":107,"x_max":726,"o":"m 417 -14 q 192 68 276 -14 q 107 292 107 150 l 107 472 q 192 696 107 614 q 417 778 276 778 q 581 741 511 778 q 688 638 650 704 q 726 482 726 571 l 726 344 l 251 344 l 251 282 q 296 157 251 201 q 417 113 340 113 q 521 135 479 113 q 571 199 563 158 l 719 199 q 622 44 704 101 q 417 -14 539 -14 m 251 482 l 251 450 l 582 450 l 582 483 q 539 614 582 568 q 417 660 496 660 q 294 613 338 660 q 251 482 251 567 m 417 -304 q 339 -279 368 -304 q 310 -210 310 -254 q 339 -141 310 -167 q 417 -115 368 -115 q 494 -141 465 -115 q 524 -210 524 -167 q 494 -279 524 -254 q 417 -304 465 -304 m 156 896 l 347 1090 l 486 1090 l 678 896 l 525 896 l 415 1001 l 310 896 l 156 896 z "},"ề":{"ha":833,"x_min":107,"x_max":785,"o":"m 417 -14 q 192 68 276 -14 q 107 292 107 150 l 107 472 q 192 696 107 614 q 417 778 276 778 q 581 741 511 778 q 688 638 650 704 q 726 482 726 571 l 726 344 l 251 344 l 251 282 q 296 157 251 201 q 417 113 340 113 q 521 135 479 113 q 571 199 563 158 l 719 199 q 622 44 704 101 q 417 -14 539 -14 m 251 482 l 251 450 l 582 450 l 582 483 q 539 614 582 568 q 417 660 496 660 q 294 613 338 660 q 251 482 251 567 m 636 1056 l 456 1250 l 613 1250 l 785 1056 l 636 1056 m 157 896 l 347 1090 l 486 1090 l 678 896 l 524 896 l 417 1001 l 310 896 l 157 896 z "},"ể":{"ha":833,"x_min":107,"x_max":781,"o":"m 417 -14 q 192 68 276 -14 q 107 292 107 150 l 107 472 q 192 696 107 614 q 417 778 276 778 q 581 741 511 778 q 688 638 650 704 q 726 482 726 571 l 726 344 l 251 344 l 251 282 q 296 157 251 201 q 417 113 340 113 q 521 135 479 113 q 571 199 563 158 l 719 199 q 622 44 704 101 q 417 -14 539 -14 m 251 482 l 251 450 l 582 450 l 582 483 q 539 614 582 568 q 417 660 496 660 q 294 613 338 660 q 251 482 251 567 m 588 1056 l 651 1139 q 667 1175 667 1160 q 625 1206 667 1206 l 543 1206 l 543 1300 l 640 1300 q 742 1270 704 1300 q 781 1190 781 1240 q 756 1122 781 1157 l 707 1056 l 588 1056 m 157 896 l 347 1090 l 486 1090 l 678 896 l 524 896 l 417 1001 l 310 896 l 157 896 z "},"ễ":{"ha":833,"x_min":107,"x_max":726,"o":"m 417 -14 q 192 68 276 -14 q 107 292 107 150 l 107 472 q 192 696 107 614 q 417 778 276 778 q 581 741 511 778 q 688 638 650 704 q 726 482 726 571 l 726 344 l 251 344 l 251 282 q 296 157 251 201 q 417 113 340 113 q 521 135 479 113 q 571 199 563 158 l 719 199 q 622 44 704 101 q 417 -14 539 -14 m 251 482 l 251 450 l 582 450 l 582 483 q 539 614 582 568 q 417 660 496 660 q 294 613 338 660 q 251 482 251 567 m 510 1133 q 440 1147 467 1133 q 397 1176 414 1160 q 365 1206 381 1193 q 326 1219 349 1219 q 285 1176 285 1219 l 285 1143 l 186 1143 l 186 1174 q 224 1270 186 1233 q 324 1307 263 1307 q 394 1294 368 1307 q 437 1263 419 1281 q 469 1233 454 1246 q 507 1221 485 1221 q 549 1261 549 1221 l 549 1296 l 647 1296 l 647 1267 q 609 1170 647 1207 q 510 1133 571 1133 m 157 896 l 347 1090 l 486 1090 l 678 896 l 524 896 l 417 1001 l 310 896 l 157 896 z "},"ë":{"ha":833,"x_min":107,"x_max":726,"o":"m 417 -14 q 192 68 276 -14 q 107 292 107 150 l 107 472 q 192 696 107 614 q 417 778 276 778 q 581 741 511 778 q 688 638 650 704 q 726 482 726 571 l 726 344 l 251 344 l 251 282 q 296 157 251 201 q 417 113 340 113 q 521 135 479 113 q 571 199 563 158 l 719 199 q 622 44 704 101 q 417 -14 539 -14 m 251 482 l 251 450 l 582 450 l 582 483 q 539 614 582 568 q 417 660 496 660 q 294 613 338 660 q 251 482 251 567 m 575 896 q 506 922 532 896 q 481 990 481 947 q 506 1060 481 1035 q 575 1086 532 1086 q 645 1060 619 1086 q 671 990 671 1035 q 645 922 671 947 q 575 896 619 896 m 258 896 q 188 922 214 896 q 163 990 163 947 q 188 1060 163 1035 q 258 1086 214 1086 q 328 1060 301 1086 q 354 990 354 1035 q 328 922 354 947 q 258 896 301 896 z "},"ė":{"ha":833,"x_min":107,"x_max":726,"o":"m 417 -14 q 192 68 276 -14 q 107 292 107 150 l 107 472 q 192 696 107 614 q 417 778 276 778 q 581 741 511 778 q 688 638 650 704 q 726 482 726 571 l 726 344 l 251 344 l 251 282 q 296 157 251 201 q 417 113 340 113 q 521 135 479 113 q 571 199 563 158 l 719 199 q 622 44 704 101 q 417 -14 539 -14 m 251 482 l 251 450 l 582 450 l 582 483 q 539 614 582 568 q 417 660 496 660 q 294 613 338 660 q 251 482 251 567 m 417 896 q 339 922 368 896 q 310 990 310 947 q 339 1060 310 1035 q 417 1086 368 1086 q 494 1060 465 1086 q 524 990 524 1035 q 494 922 524 947 q 417 896 465 896 z "},"ẹ":{"ha":833,"x_min":107,"x_max":726,"o":"m 417 -14 q 192 68 276 -14 q 107 292 107 150 l 107 472 q 192 696 107 614 q 417 778 276 778 q 581 741 511 778 q 688 638 650 704 q 726 482 726 571 l 726 344 l 251 344 l 251 282 q 296 157 251 201 q 417 113 340 113 q 521 135 479 113 q 571 199 563 158 l 719 199 q 622 44 704 101 q 417 -14 539 -14 m 251 482 l 251 450 l 582 450 l 582 483 q 539 614 582 568 q 417 660 496 660 q 294 613 338 660 q 251 482 251 567 m 417 -304 q 339 -279 368 -304 q 310 -210 310 -254 q 339 -141 310 -167 q 417 -115 368 -115 q 494 -141 465 -115 q 524 -210 524 -167 q 494 -279 524 -254 q 417 -304 465 -304 z "},"è":{"ha":833,"x_min":107,"x_max":726,"o":"m 417 -14 q 192 68 276 -14 q 107 292 107 150 l 107 472 q 192 696 107 614 q 417 778 276 778 q 581 741 511 778 q 688 638 650 704 q 726 482 726 571 l 726 344 l 251 344 l 251 282 q 296 157 251 201 q 417 113 340 113 q 521 135 479 113 q 571 199 563 158 l 719 199 q 622 44 704 101 q 417 -14 539 -14 m 251 482 l 251 450 l 582 450 l 582 483 q 539 614 582 568 q 417 660 496 660 q 294 613 338 660 q 251 482 251 567 m 358 896 l 197 1090 l 364 1090 l 514 896 l 358 896 z "},"ẻ":{"ha":833,"x_min":107,"x_max":726,"o":"m 417 -14 q 192 68 276 -14 q 107 292 107 150 l 107 472 q 192 696 107 614 q 417 778 276 778 q 581 741 511 778 q 688 638 650 704 q 726 482 726 571 l 726 344 l 251 344 l 251 282 q 296 157 251 201 q 417 113 340 113 q 521 135 479 113 q 571 199 563 158 l 719 199 q 622 44 704 101 q 417 -14 539 -14 m 251 482 l 251 450 l 582 450 l 582 483 q 539 614 582 568 q 417 660 496 660 q 294 613 338 660 q 251 482 251 567 m 353 896 l 421 982 q 442 1025 442 1007 q 399 1051 442 1051 l 288 1051 l 288 1150 l 433 1150 q 525 1121 490 1150 q 560 1042 560 1092 q 535 964 560 996 l 481 896 l 353 896 z "},"ē":{"ha":833,"x_min":107,"x_max":726,"o":"m 417 -14 q 192 68 276 -14 q 107 292 107 150 l 107 472 q 192 696 107 614 q 417 778 276 778 q 581 741 511 778 q 688 638 650 704 q 726 482 726 571 l 726 344 l 251 344 l 251 282 q 296 157 251 201 q 417 113 340 113 q 521 135 479 113 q 571 199 563 158 l 719 199 q 622 44 704 101 q 417 -14 539 -14 m 251 482 l 251 450 l 582 450 l 582 483 q 539 614 582 568 q 417 660 496 660 q 294 613 338 660 q 251 482 251 567 m 186 925 l 186 1043 l 647 1043 l 647 925 l 186 925 z "},"ę":{"ha":833,"x_min":111,"x_max":722,"o":"m 513 -292 q 386 -253 433 -292 q 339 -156 339 -214 q 433 -11 339 -86 q 417 -14 425 -14 q 255 23 324 -14 q 149 126 186 60 q 111 282 111 193 l 111 482 q 149 638 111 571 q 255 741 186 704 q 417 778 324 778 q 580 741 511 778 q 685 638 649 704 q 722 482 722 571 l 722 346 l 256 346 l 256 282 q 418 108 256 108 q 569 199 550 108 l 719 199 q 676 97 710 142 q 590 26 642 53 l 553 -7 q 474 -125 474 -74 q 493 -171 474 -153 q 546 -189 513 -189 l 633 -189 l 633 -292 l 513 -292 m 256 482 l 256 447 l 578 449 l 578 483 q 538 613 578 568 q 417 658 497 658 q 296 613 336 658 q 256 482 256 567 z "},"ẽ":{"ha":833,"x_min":107,"x_max":726,"o":"m 417 -14 q 192 68 276 -14 q 107 292 107 150 l 107 472 q 192 696 107 614 q 417 778 276 778 q 581 741 511 778 q 688 638 650 704 q 726 482 726 571 l 726 344 l 251 344 l 251 282 q 296 157 251 201 q 417 113 340 113 q 521 135 479 113 q 571 199 563 158 l 719 199 q 622 44 704 101 q 417 -14 539 -14 m 251 482 l 251 450 l 582 450 l 582 483 q 539 614 582 568 q 417 660 496 660 q 294 613 338 660 q 251 482 251 567 m 514 897 q 444 911 471 897 q 400 943 418 925 q 365 976 382 961 q 326 990 349 990 q 285 942 285 990 l 285 904 l 186 904 l 186 947 q 223 1051 186 1013 q 319 1090 260 1090 q 389 1076 363 1090 q 433 1043 415 1061 q 468 1011 451 1025 q 507 997 485 997 q 549 1042 549 997 l 549 1083 l 647 1083 l 647 1039 q 610 935 647 974 q 514 897 574 897 z "},"ə":{"ha":833,"x_min":113,"x_max":721,"o":"m 417 -14 q 194 67 276 -14 q 113 282 113 149 l 113 418 l 576 418 l 576 482 q 415 656 576 656 q 265 565 286 656 l 117 565 q 214 720 133 663 q 417 778 294 778 q 639 697 557 778 q 721 482 721 615 l 721 282 q 639 67 721 149 q 417 -14 557 -14 m 417 107 q 537 152 497 107 q 576 282 576 197 l 576 317 l 258 317 l 258 282 q 297 152 258 197 q 417 107 336 107 z "},"f":{"ha":833,"x_min":72,"x_max":740,"o":"m 289 0 l 289 524 l 72 524 l 72 660 l 289 660 l 289 807 q 350 958 289 903 q 517 1014 411 1014 l 740 1014 l 740 881 l 519 881 q 439 806 439 881 l 439 660 l 740 660 l 740 524 l 439 524 l 439 0 l 289 0 z "},"g":{"ha":833,"x_min":111,"x_max":715,"o":"m 217 -250 l 217 -121 l 432 -121 q 531 -86 494 -121 q 567 8 567 -51 l 567 65 l 569 193 q 498 88 551 125 q 365 50 444 50 q 179 126 247 50 q 111 336 111 203 l 111 490 q 179 700 111 622 q 365 778 247 778 q 497 740 444 778 q 568 635 550 703 l 568 764 l 715 764 l 715 6 q 640 -181 715 -112 q 433 -250 564 -250 l 217 -250 m 414 176 q 526 220 485 176 q 567 343 567 264 l 567 482 q 526 603 567 560 q 414 647 485 647 q 301 606 340 647 q 261 492 261 564 l 261 333 q 301 218 261 260 q 414 176 340 176 z "},"ǵ":{"ha":833,"x_min":111,"x_max":715,"o":"m 217 -250 l 217 -121 l 432 -121 q 531 -86 494 -121 q 567 8 567 -51 l 567 65 l 569 193 q 498 88 551 125 q 365 50 444 50 q 179 126 247 50 q 111 336 111 203 l 111 490 q 179 700 111 622 q 365 778 247 778 q 497 740 444 778 q 568 635 550 703 l 568 764 l 715 764 l 715 6 q 640 -181 715 -112 q 433 -250 564 -250 l 217 -250 m 414 176 q 526 220 485 176 q 567 343 567 264 l 567 482 q 526 603 567 560 q 414 647 485 647 q 301 606 340 647 q 261 492 261 564 l 261 333 q 301 218 261 260 q 414 176 340 176 m 319 896 l 467 1090 l 628 1090 l 471 896 l 319 896 z "},"ğ":{"ha":833,"x_min":111,"x_max":715,"o":"m 217 -250 l 217 -121 l 432 -121 q 531 -86 494 -121 q 567 8 567 -51 l 567 65 l 569 193 q 498 88 551 125 q 365 50 444 50 q 179 126 247 50 q 111 336 111 203 l 111 490 q 179 700 111 622 q 365 778 247 778 q 497 740 444 778 q 568 635 550 703 l 568 764 l 715 764 l 715 6 q 640 -181 715 -112 q 433 -250 564 -250 l 217 -250 m 414 176 q 526 220 485 176 q 567 343 567 264 l 567 482 q 526 603 567 560 q 414 647 485 647 q 301 606 340 647 q 261 492 261 564 l 261 333 q 301 218 261 260 q 414 176 340 176 m 413 888 q 244 943 308 888 q 181 1090 181 999 l 297 1090 q 328 1010 297 1040 q 411 979 360 979 q 496 1010 464 979 q 528 1090 528 1040 l 646 1090 q 581 943 646 999 q 413 888 517 888 z "},"ǧ":{"ha":833,"x_min":111,"x_max":715,"o":"m 217 -250 l 217 -121 l 432 -121 q 531 -86 494 -121 q 567 8 567 -51 l 567 65 l 569 193 q 498 88 551 125 q 365 50 444 50 q 179 126 247 50 q 111 336 111 203 l 111 490 q 179 700 111 622 q 365 778 247 778 q 497 740 444 778 q 568 635 550 703 l 568 764 l 715 764 l 715 6 q 640 -181 715 -112 q 433 -250 564 -250 l 217 -250 m 414 176 q 526 220 485 176 q 567 343 567 264 l 567 482 q 526 603 567 560 q 414 647 485 647 q 301 606 340 647 q 261 492 261 564 l 261 333 q 301 218 261 260 q 414 176 340 176 m 343 896 l 151 1090 l 304 1090 l 414 985 l 519 1090 l 674 1090 l 482 896 l 343 896 z "},"ĝ":{"ha":833,"x_min":111,"x_max":715,"o":"m 217 -250 l 217 -121 l 432 -121 q 531 -86 494 -121 q 567 8 567 -51 l 567 65 l 569 193 q 498 88 551 125 q 365 50 444 50 q 179 126 247 50 q 111 336 111 203 l 111 490 q 179 700 111 622 q 365 778 247 778 q 497 740 444 778 q 568 635 550 703 l 568 764 l 715 764 l 715 6 q 640 -181 715 -112 q 433 -250 564 -250 l 217 -250 m 414 176 q 526 220 485 176 q 567 343 567 264 l 567 482 q 526 603 567 560 q 414 647 485 647 q 301 606 340 647 q 261 492 261 564 l 261 333 q 301 218 261 260 q 414 176 340 176 m 151 896 l 343 1090 l 482 1090 l 674 896 l 521 896 l 411 1001 l 306 896 l 151 896 z "},"ģ":{"ha":833,"x_min":111,"x_max":715,"o":"m 217 -250 l 217 -121 l 432 -121 q 531 -86 494 -121 q 567 8 567 -51 l 567 65 l 569 193 q 498 88 551 125 q 365 50 444 50 q 179 126 247 50 q 111 336 111 203 l 111 490 q 179 700 111 622 q 365 778 247 778 q 497 740 444 778 q 568 635 550 703 l 568 764 l 715 764 l 715 6 q 640 -181 715 -112 q 433 -250 564 -250 l 217 -250 m 414 176 q 526 220 485 176 q 567 343 567 264 l 567 482 q 526 603 567 560 q 414 647 485 647 q 301 606 340 647 q 261 492 261 564 l 261 333 q 301 218 261 260 q 414 176 340 176 m 583 1222 l 472 896 l 279 896 l 460 1222 l 583 1222 z "},"ġ":{"ha":833,"x_min":111,"x_max":715,"o":"m 217 -250 l 217 -121 l 432 -121 q 531 -86 494 -121 q 567 8 567 -51 l 567 65 l 569 193 q 498 88 551 125 q 365 50 444 50 q 179 126 247 50 q 111 336 111 203 l 111 490 q 179 700 111 622 q 365 778 247 778 q 497 740 444 778 q 568 635 550 703 l 568 764 l 715 764 l 715 6 q 640 -181 715 -112 q 433 -250 564 -250 l 217 -250 m 414 176 q 526 220 485 176 q 567 343 567 264 l 567 482 q 526 603 567 560 q 414 647 485 647 q 301 606 340 647 q 261 492 261 564 l 261 333 q 301 218 261 260 q 414 176 340 176 m 413 896 q 335 922 364 896 q 306 990 306 947 q 335 1060 306 1035 q 413 1086 364 1086 q 490 1060 461 1086 q 519 990 519 1035 q 490 922 519 947 q 413 896 461 896 z "},"h":{"ha":833,"x_min":117,"x_max":719,"o":"m 117 0 l 117 1014 l 267 1014 l 267 764 l 265 618 l 265 618 q 330 735 276 693 q 469 778 383 778 q 651 705 583 778 q 719 508 719 632 l 719 0 l 569 0 l 569 488 q 529 608 569 565 q 419 650 489 650 q 308 606 349 650 q 267 482 267 561 l 267 0 l 117 0 z "},"ħ":{"ha":833,"x_min":0,"x_max":719,"o":"m 0 786 l 0 896 l 117 896 l 117 1014 l 267 1014 l 267 896 l 490 896 l 490 786 l 267 786 l 267 681 l 265 535 l 267 535 q 331 653 278 611 q 469 694 383 694 q 651 622 583 694 q 719 425 719 549 l 719 0 l 569 0 l 569 408 q 529 525 569 483 q 419 567 489 567 q 308 522 349 567 q 267 399 267 478 l 267 0 l 117 0 l 117 786 l 0 786 z "},"ĥ":{"ha":833,"x_min":-68,"x_max":719,"o":"m 117 0 l 117 1014 l 267 1014 l 267 764 l 265 618 l 265 618 q 330 735 276 693 q 469 778 383 778 q 651 705 583 778 q 719 508 719 632 l 719 0 l 569 0 l 569 488 q 529 608 569 565 q 419 650 489 650 q 308 606 349 650 q 267 482 267 561 l 267 0 l 117 0 m -68 1146 l 124 1340 l 263 1340 l 454 1146 l 301 1146 l 192 1251 l 86 1146 l -68 1146 z "},"i":{"ha":833,"x_min":113,"x_max":774,"o":"m 113 0 l 113 136 l 378 136 l 378 628 l 140 628 l 140 764 l 528 764 l 528 136 l 774 136 l 774 0 l 113 0 m 440 896 q 363 922 392 896 q 333 990 333 947 q 363 1060 333 1035 q 440 1086 392 1086 q 518 1060 489 1086 q 547 990 547 1035 q 518 922 547 947 q 440 896 489 896 z "},"ı":{"ha":833,"x_min":113,"x_max":774,"o":"m 113 0 l 113 136 l 378 136 l 378 628 l 140 628 l 140 764 l 528 764 l 528 136 l 774 136 l 774 0 l 113 0 z "},"í":{"ha":833,"x_min":113,"x_max":774,"o":"m 113 0 l 113 136 l 378 136 l 378 628 l 140 628 l 140 764 l 528 764 l 528 136 l 774 136 l 774 0 l 113 0 m 347 896 l 494 1090 l 656 1090 l 499 896 l 347 896 z "},"ĭ":{"ha":833,"x_min":113,"x_max":774,"o":"m 113 0 l 113 136 l 378 136 l 378 628 l 140 628 l 140 764 l 528 764 l 528 136 l 774 136 l 774 0 l 113 0 m 440 888 q 272 943 336 888 q 208 1090 208 999 l 325 1090 q 356 1010 325 1040 q 439 979 388 979 q 524 1010 492 979 q 556 1090 556 1040 l 674 1090 q 609 943 674 999 q 440 888 544 888 z "},"ǐ":{"ha":833,"x_min":113,"x_max":774,"o":"m 113 0 l 113 136 l 378 136 l 378 628 l 140 628 l 140 764 l 528 764 l 528 136 l 774 136 l 774 0 l 113 0 m 371 896 l 179 1090 l 332 1090 l 442 985 l 547 1090 l 701 1090 l 510 896 l 371 896 z "},"î":{"ha":833,"x_min":113,"x_max":774,"o":"m 113 0 l 113 136 l 378 136 l 378 628 l 140 628 l 140 764 l 528 764 l 528 136 l 774 136 l 774 0 l 113 0 m 179 896 l 371 1090 l 510 1090 l 701 896 l 549 896 l 439 1001 l 333 896 l 179 896 z "},"ï":{"ha":833,"x_min":113,"x_max":774,"o":"m 113 0 l 113 136 l 378 136 l 378 628 l 140 628 l 140 764 l 528 764 l 528 136 l 774 136 l 774 0 l 113 0 m 599 896 q 530 922 556 896 q 504 990 504 947 q 530 1060 504 1035 q 599 1086 556 1086 q 669 1060 643 1086 q 694 990 694 1035 q 669 922 694 947 q 599 896 643 896 m 282 896 q 212 922 238 896 q 186 990 186 947 q 212 1060 186 1035 q 282 1086 238 1086 q 351 1060 325 1086 q 378 990 378 1035 q 351 922 378 947 q 282 896 325 896 z "},"ị":{"ha":833,"x_min":113,"x_max":774,"o":"m 113 0 l 113 136 l 378 136 l 378 628 l 140 628 l 140 764 l 528 764 l 528 136 l 774 136 l 774 0 l 113 0 m 440 896 q 363 922 392 896 q 333 990 333 947 q 363 1060 333 1035 q 440 1086 392 1086 q 518 1060 489 1086 q 547 990 547 1035 q 518 922 547 947 q 440 896 489 896 m 440 -304 q 363 -279 392 -304 q 333 -210 333 -254 q 363 -141 333 -167 q 440 -115 392 -115 q 518 -141 489 -115 q 547 -210 547 -167 q 518 -279 547 -254 q 440 -304 489 -304 z "},"ì":{"ha":833,"x_min":113,"x_max":774,"o":"m 113 0 l 113 136 l 378 136 l 378 628 l 140 628 l 140 764 l 528 764 l 528 136 l 774 136 l 774 0 l 113 0 m 382 896 l 221 1090 l 388 1090 l 538 896 l 382 896 z "},"ỉ":{"ha":833,"x_min":113,"x_max":774,"o":"m 113 0 l 113 136 l 378 136 l 378 628 l 140 628 l 140 764 l 528 764 l 528 136 l 774 136 l 774 0 l 113 0 m 376 896 l 444 982 q 465 1025 465 1007 q 422 1051 465 1051 l 311 1051 l 311 1150 l 457 1150 q 549 1121 514 1150 q 583 1042 583 1092 q 558 964 583 996 l 504 896 l 376 896 z "},"ī":{"ha":833,"x_min":113,"x_max":774,"o":"m 113 0 l 113 136 l 378 136 l 378 628 l 140 628 l 140 764 l 528 764 l 528 136 l 774 136 l 774 0 l 113 0 m 210 925 l 210 1043 l 671 1043 l 671 925 l 210 925 z "},"į":{"ha":833,"x_min":113,"x_max":774,"o":"m 440 896 q 362 922 390 896 q 333 990 333 947 q 362 1060 333 1035 q 440 1086 390 1086 q 517 1060 489 1086 q 546 990 546 1035 q 517 922 546 947 q 440 896 489 896 m 113 0 l 113 136 l 378 136 l 378 628 l 140 628 l 140 764 l 528 764 l 528 136 l 774 136 l 774 0 l 493 0 l 485 -7 q 406 -125 406 -74 q 425 -171 406 -153 q 479 -189 444 -189 l 565 -189 l 565 -292 l 444 -292 q 319 -253 365 -292 q 272 -154 272 -214 q 297 -77 272 -117 q 378 0 322 -37 l 113 0 z "},"ĩ":{"ha":833,"x_min":113,"x_max":774,"o":"m 113 0 l 113 136 l 378 136 l 378 628 l 140 628 l 140 764 l 528 764 l 528 136 l 774 136 l 774 0 l 113 0 m 538 897 q 468 911 494 897 q 424 943 442 925 q 389 976 406 961 q 350 990 372 990 q 308 942 308 990 l 308 904 l 210 904 l 210 947 q 247 1051 210 1013 q 343 1090 283 1090 q 413 1076 386 1090 q 457 1043 439 1061 q 492 1011 475 1025 q 531 997 508 997 q 572 1042 572 997 l 572 1083 l 671 1083 l 671 1039 q 634 935 671 974 q 538 897 597 897 z "},"j":{"ha":833,"x_min":113,"x_max":639,"o":"m 119 -250 l 119 -114 l 306 -114 q 426 -71 382 -114 q 469 49 469 -28 l 469 628 l 113 628 l 113 764 l 619 764 l 619 47 q 536 -170 619 -90 q 311 -250 453 -250 l 119 -250 m 532 896 q 454 922 483 896 q 425 990 425 947 q 454 1060 425 1035 q 532 1086 483 1086 q 610 1060 581 1086 q 639 990 639 1035 q 610 922 639 947 q 532 896 581 896 z "},"ȷ":{"ha":833,"x_min":113,"x_max":619,"o":"m 119 -250 l 119 -114 l 306 -114 q 426 -71 382 -114 q 469 49 469 -28 l 469 628 l 113 628 l 113 764 l 619 764 l 619 47 q 536 -170 619 -90 q 311 -250 453 -250 l 119 -250 z "},"ĵ":{"ha":833,"x_min":113,"x_max":793,"o":"m 119 -250 l 119 -114 l 306 -114 q 426 -71 382 -114 q 469 49 469 -28 l 469 628 l 113 628 l 113 764 l 619 764 l 619 47 q 536 -170 619 -90 q 311 -250 453 -250 l 119 -250 m 271 896 l 463 1090 l 601 1090 l 793 896 l 640 896 l 531 1001 l 425 896 l 271 896 z "},"k":{"ha":833,"x_min":124,"x_max":785,"o":"m 124 0 l 124 1014 l 274 1014 l 274 457 l 408 457 l 606 764 l 774 764 l 539 397 l 785 0 l 613 0 l 410 328 l 274 328 l 274 0 l 124 0 z "},"ķ":{"ha":833,"x_min":124,"x_max":785,"o":"m 124 0 l 124 1014 l 274 1014 l 274 457 l 408 457 l 606 764 l 774 764 l 539 397 l 785 0 l 613 0 l 410 328 l 274 328 l 274 0 l 124 0 m 258 -333 l 390 -132 l 554 -132 l 404 -333 l 258 -333 z "},"ĸ":{"ha":833,"x_min":131,"x_max":792,"o":"m 131 0 l 131 764 l 281 764 l 281 460 l 417 460 l 608 764 l 778 764 l 544 396 l 792 0 l 619 0 l 417 324 l 281 324 l 281 0 l 131 0 z "},"l":{"ha":833,"x_min":40,"x_max":771,"o":"m 535 0 q 362 63 426 0 q 297 232 297 126 l 297 878 l 40 878 l 40 1014 l 447 1014 l 447 235 q 472 163 447 189 q 540 136 497 136 l 771 136 l 771 0 l 535 0 z "},"ĺ":{"ha":833,"x_min":40,"x_max":771,"o":"m 535 0 q 362 63 426 0 q 297 232 297 126 l 297 878 l 40 878 l 40 1014 l 447 1014 l 447 235 q 472 163 447 189 q 540 136 497 136 l 771 136 l 771 0 l 535 0 m 253 1125 l 400 1319 l 561 1319 l 404 1125 l 253 1125 z "},"ƛ":{"ha":833,"x_min":60,"x_max":775,"o":"m 60 0 l 344 753 l 125 643 l 125 764 l 306 854 l 242 1014 l 401 1014 l 436 919 l 653 1028 l 653 907 l 474 817 l 775 0 l 615 0 l 450 471 q 426 553 435 514 q 413 617 418 593 q 405 553 411 593 q 383 471 399 514 l 221 0 l 60 0 z "},"ľ":{"ha":833,"x_min":40,"x_max":771,"o":"m 535 0 q 362 63 426 0 q 297 232 297 126 l 297 878 l 40 878 l 40 1014 l 447 1014 l 447 235 q 472 163 447 189 q 540 136 497 136 l 771 136 l 771 0 l 535 0 m 575 764 l 594 1014 l 728 1014 l 696 764 l 575 764 z "},"ļ":{"ha":833,"x_min":40,"x_max":771,"o":"m 535 0 q 362 63 426 0 q 297 232 297 126 l 297 878 l 40 878 l 40 1014 l 447 1014 l 447 235 q 472 163 447 189 q 540 136 497 136 l 771 136 l 771 0 l 535 0 m 286 -333 l 418 -132 l 582 -132 l 432 -333 l 286 -333 z "},"ŀ":{"ha":833,"x_min":13,"x_max":892,"o":"m 507 0 q 334 63 399 0 q 269 232 269 126 l 269 878 l 13 878 l 13 1014 l 419 1014 l 419 235 q 444 163 419 189 q 513 136 469 136 l 743 136 l 743 0 l 507 0 m 769 368 q 681 401 715 368 q 647 488 647 433 q 681 576 647 542 q 769 610 715 610 q 858 576 824 610 q 892 488 892 542 q 858 401 892 433 q 769 368 824 368 z "},"ł":{"ha":833,"x_min":40,"x_max":771,"o":"m 139 319 l 139 456 l 297 554 l 297 878 l 40 878 l 40 1014 l 447 1014 l 447 647 l 657 778 l 657 642 l 447 511 l 447 235 q 472 163 447 189 q 540 136 497 136 l 771 136 l 771 0 l 535 0 q 362 63 426 0 q 297 232 297 126 l 297 418 l 139 319 z "},"m":{"ha":833,"x_min":74,"x_max":760,"o":"m 74 0 l 74 764 l 201 764 l 201 657 l 204 657 q 244 744 210 711 q 332 778 279 778 q 417 747 382 778 q 467 663 453 715 l 467 663 q 510 747 475 715 q 599 778 544 778 q 715 723 669 778 q 760 582 760 668 l 760 0 l 624 0 l 624 575 q 604 641 624 617 q 550 665 585 665 q 497 642 515 665 q 478 576 478 618 l 478 0 l 356 0 l 356 575 q 337 641 356 617 q 283 665 318 665 q 229 642 249 665 q 210 576 210 618 l 210 0 l 74 0 z "},"n":{"ha":833,"x_min":117,"x_max":719,"o":"m 117 0 l 117 764 l 265 764 l 265 618 l 265 618 q 330 735 276 693 q 469 778 383 778 q 651 705 583 778 q 719 508 719 632 l 719 0 l 569 0 l 569 486 q 529 608 569 565 q 419 650 489 650 q 308 606 349 650 q 267 482 267 561 l 267 0 l 117 0 z "},"ń":{"ha":833,"x_min":117,"x_max":719,"o":"m 117 0 l 117 764 l 265 764 l 265 618 l 265 618 q 330 735 276 693 q 469 778 383 778 q 651 705 583 778 q 719 508 719 632 l 719 0 l 569 0 l 569 486 q 529 608 569 565 q 419 650 489 650 q 308 606 349 650 q 267 482 267 561 l 267 0 l 117 0 m 331 896 l 478 1090 l 639 1090 l 482 896 l 331 896 z "},"ŉ":{"ha":833,"x_min":-19,"x_max":719,"o":"m 117 0 l 117 764 l 265 764 l 265 618 l 265 618 q 330 735 276 693 q 469 778 383 778 q 651 705 583 778 q 719 508 719 632 l 719 0 l 569 0 l 569 486 q 529 608 569 565 q 419 650 489 650 q 308 606 349 650 q 267 482 267 561 l 267 0 l 117 0 m -19 896 l 113 1097 l 276 1097 l 126 896 l -19 896 z "},"ň":{"ha":833,"x_min":117,"x_max":719,"o":"m 117 0 l 117 764 l 265 764 l 265 618 l 265 618 q 330 735 276 693 q 469 778 383 778 q 651 705 583 778 q 719 508 719 632 l 719 0 l 569 0 l 569 486 q 529 608 569 565 q 419 650 489 650 q 308 606 349 650 q 267 482 267 561 l 267 0 l 117 0 m 354 896 l 163 1090 l 315 1090 l 425 985 l 531 1090 l 685 1090 l 493 896 l 354 896 z "},"ņ":{"ha":833,"x_min":117,"x_max":719,"o":"m 117 0 l 117 764 l 265 764 l 265 618 l 265 618 q 330 735 276 693 q 469 778 383 778 q 651 705 583 778 q 719 508 719 632 l 719 0 l 569 0 l 569 486 q 529 608 569 565 q 419 650 489 650 q 308 606 349 650 q 267 482 267 561 l 267 0 l 117 0 m 258 -333 l 390 -132 l 554 -132 l 404 -333 l 258 -333 z "},"ŋ":{"ha":833,"x_min":119,"x_max":717,"o":"m 336 -250 l 336 -110 l 422 -110 q 528 -72 490 -110 q 567 32 567 -35 l 567 492 q 528 608 567 567 q 419 650 489 650 q 309 606 349 650 q 269 482 269 561 l 269 0 l 119 0 l 119 764 l 267 764 l 267 618 l 269 618 q 331 736 279 694 q 469 778 383 778 q 650 705 583 778 q 717 508 717 632 l 717 25 q 679 -119 717 -57 q 574 -216 642 -182 q 418 -250 507 -250 l 336 -250 z "},"ñ":{"ha":833,"x_min":117,"x_max":719,"o":"m 117 0 l 117 764 l 265 764 l 265 618 l 265 618 q 330 735 276 693 q 469 778 383 778 q 651 705 583 778 q 719 508 719 632 l 719 0 l 569 0 l 569 486 q 529 608 569 565 q 419 650 489 650 q 308 606 349 650 q 267 482 267 561 l 267 0 l 117 0 m 521 897 q 451 911 478 897 q 407 943 425 925 q 372 976 389 961 q 333 990 356 990 q 292 942 292 990 l 292 904 l 193 904 l 193 947 q 230 1051 193 1013 q 326 1090 267 1090 q 396 1076 369 1090 q 440 1043 422 1061 q 475 1011 458 1025 q 514 997 492 997 q 556 1042 556 997 l 556 1083 l 654 1083 l 654 1039 q 617 935 654 974 q 521 897 581 897 z "},"o":{"ha":833,"x_min":107,"x_max":726,"o":"m 417 -12 q 191 69 275 -12 q 107 293 107 151 l 107 471 q 190 695 107 614 q 417 776 274 776 q 643 695 560 776 q 726 471 726 614 l 726 293 q 642 69 726 151 q 417 -12 558 -12 m 417 119 q 534 162 492 119 q 576 283 576 204 l 576 481 q 534 602 576 560 q 417 644 492 644 q 299 602 342 644 q 257 481 257 560 l 257 283 q 299 162 257 204 q 417 119 342 119 z "},"ó":{"ha":833,"x_min":107,"x_max":726,"o":"m 417 -12 q 191 69 275 -12 q 107 293 107 151 l 107 471 q 190 695 107 614 q 417 776 274 776 q 643 695 560 776 q 726 471 726 614 l 726 293 q 642 69 726 151 q 417 -12 558 -12 m 417 119 q 534 162 492 119 q 576 283 576 204 l 576 481 q 534 602 576 560 q 417 644 492 644 q 299 602 342 644 q 257 481 257 560 l 257 283 q 299 162 257 204 q 417 119 342 119 m 324 896 l 471 1090 l 632 1090 l 475 896 l 324 896 z "},"ŏ":{"ha":833,"x_min":107,"x_max":726,"o":"m 417 -12 q 191 69 275 -12 q 107 293 107 151 l 107 471 q 190 695 107 614 q 417 776 274 776 q 643 695 560 776 q 726 471 726 614 l 726 293 q 642 69 726 151 q 417 -12 558 -12 m 417 119 q 534 162 492 119 q 576 283 576 204 l 576 481 q 534 602 576 560 q 417 644 492 644 q 299 602 342 644 q 257 481 257 560 l 257 283 q 299 162 257 204 q 417 119 342 119 m 417 888 q 249 943 313 888 q 185 1090 185 999 l 301 1090 q 333 1010 301 1040 q 415 979 364 979 q 500 1010 468 979 q 532 1090 532 1040 l 650 1090 q 585 943 650 999 q 417 888 521 888 z "},"ǒ":{"ha":833,"x_min":107,"x_max":726,"o":"m 417 -12 q 191 69 275 -12 q 107 293 107 151 l 107 471 q 190 695 107 614 q 417 776 274 776 q 643 695 560 776 q 726 471 726 614 l 726 293 q 642 69 726 151 q 417 -12 558 -12 m 417 119 q 534 162 492 119 q 576 283 576 204 l 576 481 q 534 602 576 560 q 417 644 492 644 q 299 602 342 644 q 257 481 257 560 l 257 283 q 299 162 257 204 q 417 119 342 119 m 347 896 l 156 1090 l 308 1090 l 418 985 l 524 1090 l 678 1090 l 486 896 l 347 896 z "},"ô":{"ha":833,"x_min":107,"x_max":726,"o":"m 417 -12 q 191 69 275 -12 q 107 293 107 151 l 107 471 q 190 695 107 614 q 417 776 274 776 q 643 695 560 776 q 726 471 726 614 l 726 293 q 642 69 726 151 q 417 -12 558 -12 m 417 119 q 534 162 492 119 q 576 283 576 204 l 576 481 q 534 602 576 560 q 417 644 492 644 q 299 602 342 644 q 257 481 257 560 l 257 283 q 299 162 257 204 q 417 119 342 119 m 156 896 l 347 1090 l 486 1090 l 678 896 l 525 896 l 415 1001 l 310 896 l 156 896 z "},"ố":{"ha":833,"x_min":107,"x_max":893,"o":"m 417 -12 q 191 69 275 -12 q 107 293 107 151 l 107 471 q 190 695 107 614 q 417 776 274 776 q 643 695 560 776 q 726 471 726 614 l 726 293 q 642 69 726 151 q 417 -12 558 -12 m 417 119 q 534 162 492 119 q 576 283 576 204 l 576 481 q 534 602 576 560 q 417 644 492 644 q 299 602 342 644 q 257 481 257 560 l 257 283 q 299 162 257 204 q 417 119 342 119 m 574 1056 l 736 1250 l 893 1250 l 722 1056 l 574 1056 m 157 896 l 347 1090 l 486 1090 l 678 896 l 524 896 l 417 1001 l 310 896 l 157 896 z "},"ộ":{"ha":833,"x_min":107,"x_max":726,"o":"m 417 -12 q 191 69 275 -12 q 107 293 107 151 l 107 471 q 190 695 107 614 q 417 776 274 776 q 643 695 560 776 q 726 471 726 614 l 726 293 q 642 69 726 151 q 417 -12 558 -12 m 417 119 q 534 162 492 119 q 576 283 576 204 l 576 481 q 534 602 576 560 q 417 644 492 644 q 299 602 342 644 q 257 481 257 560 l 257 283 q 299 162 257 204 q 417 119 342 119 m 417 -304 q 339 -279 368 -304 q 310 -210 310 -254 q 339 -141 310 -167 q 417 -115 368 -115 q 494 -141 465 -115 q 524 -210 524 -167 q 494 -279 524 -254 q 417 -304 465 -304 m 156 896 l 347 1090 l 486 1090 l 678 896 l 525 896 l 415 1001 l 310 896 l 156 896 z "},"ồ":{"ha":833,"x_min":107,"x_max":785,"o":"m 417 -12 q 191 69 275 -12 q 107 293 107 151 l 107 471 q 190 695 107 614 q 417 776 274 776 q 643 695 560 776 q 726 471 726 614 l 726 293 q 642 69 726 151 q 417 -12 558 -12 m 417 119 q 534 162 492 119 q 576 283 576 204 l 576 481 q 534 602 576 560 q 417 644 492 644 q 299 602 342 644 q 257 481 257 560 l 257 283 q 299 162 257 204 q 417 119 342 119 m 636 1056 l 456 1250 l 613 1250 l 785 1056 l 636 1056 m 157 896 l 347 1090 l 486 1090 l 678 896 l 524 896 l 417 1001 l 310 896 l 157 896 z "},"ổ":{"ha":833,"x_min":107,"x_max":781,"o":"m 417 -12 q 191 69 275 -12 q 107 293 107 151 l 107 471 q 190 695 107 614 q 417 776 274 776 q 643 695 560 776 q 726 471 726 614 l 726 293 q 642 69 726 151 q 417 -12 558 -12 m 417 119 q 534 162 492 119 q 576 283 576 204 l 576 481 q 534 602 576 560 q 417 644 492 644 q 299 602 342 644 q 257 481 257 560 l 257 283 q 299 162 257 204 q 417 119 342 119 m 588 1056 l 651 1139 q 667 1175 667 1160 q 625 1206 667 1206 l 543 1206 l 543 1300 l 640 1300 q 742 1270 704 1300 q 781 1190 781 1240 q 756 1122 781 1157 l 707 1056 l 588 1056 m 157 896 l 347 1090 l 486 1090 l 678 896 l 524 896 l 417 1001 l 310 896 l 157 896 z "},"ỗ":{"ha":833,"x_min":107,"x_max":726,"o":"m 417 -12 q 191 69 275 -12 q 107 293 107 151 l 107 471 q 190 695 107 614 q 417 776 274 776 q 643 695 560 776 q 726 471 726 614 l 726 293 q 642 69 726 151 q 417 -12 558 -12 m 417 119 q 534 162 492 119 q 576 283 576 204 l 576 481 q 534 602 576 560 q 417 644 492 644 q 299 602 342 644 q 257 481 257 560 l 257 283 q 299 162 257 204 q 417 119 342 119 m 510 1133 q 440 1147 467 1133 q 397 1176 414 1160 q 365 1206 381 1193 q 326 1219 349 1219 q 285 1176 285 1219 l 285 1143 l 186 1143 l 186 1174 q 224 1270 186 1233 q 324 1307 263 1307 q 394 1294 368 1307 q 437 1263 419 1281 q 469 1233 454 1246 q 507 1221 485 1221 q 549 1261 549 1221 l 549 1296 l 647 1296 l 647 1267 q 609 1170 647 1207 q 510 1133 571 1133 m 157 896 l 347 1090 l 486 1090 l 678 896 l 524 896 l 417 1001 l 310 896 l 157 896 z "},"ö":{"ha":833,"x_min":107,"x_max":726,"o":"m 417 -12 q 191 69 275 -12 q 107 293 107 151 l 107 471 q 190 695 107 614 q 417 776 274 776 q 643 695 560 776 q 726 471 726 614 l 726 293 q 642 69 726 151 q 417 -12 558 -12 m 417 119 q 534 162 492 119 q 576 283 576 204 l 576 481 q 534 602 576 560 q 417 644 492 644 q 299 602 342 644 q 257 481 257 560 l 257 283 q 299 162 257 204 q 417 119 342 119 m 575 896 q 506 922 532 896 q 481 990 481 947 q 506 1060 481 1035 q 575 1086 532 1086 q 645 1060 619 1086 q 671 990 671 1035 q 645 922 671 947 q 575 896 619 896 m 258 896 q 188 922 214 896 q 163 990 163 947 q 188 1060 163 1035 q 258 1086 214 1086 q 328 1060 301 1086 q 354 990 354 1035 q 328 922 354 947 q 258 896 301 896 z "},"ọ":{"ha":833,"x_min":107,"x_max":726,"o":"m 417 -12 q 191 69 275 -12 q 107 293 107 151 l 107 471 q 190 695 107 614 q 417 776 274 776 q 643 695 560 776 q 726 471 726 614 l 726 293 q 642 69 726 151 q 417 -12 558 -12 m 417 119 q 534 162 492 119 q 576 283 576 204 l 576 481 q 534 602 576 560 q 417 644 492 644 q 299 602 342 644 q 257 481 257 560 l 257 283 q 299 162 257 204 q 417 119 342 119 m 417 -304 q 339 -279 368 -304 q 310 -210 310 -254 q 339 -141 310 -167 q 417 -115 368 -115 q 494 -141 465 -115 q 524 -210 524 -167 q 494 -279 524 -254 q 417 -304 465 -304 z "},"ò":{"ha":833,"x_min":107,"x_max":726,"o":"m 417 -12 q 191 69 275 -12 q 107 293 107 151 l 107 471 q 190 695 107 614 q 417 776 274 776 q 643 695 560 776 q 726 471 726 614 l 726 293 q 642 69 726 151 q 417 -12 558 -12 m 417 119 q 534 162 492 119 q 576 283 576 204 l 576 481 q 534 602 576 560 q 417 644 492 644 q 299 602 342 644 q 257 481 257 560 l 257 283 q 299 162 257 204 q 417 119 342 119 m 358 896 l 197 1090 l 364 1090 l 514 896 l 358 896 z "},"ỏ":{"ha":833,"x_min":107,"x_max":726,"o":"m 417 -12 q 191 69 275 -12 q 107 293 107 151 l 107 471 q 190 695 107 614 q 417 776 274 776 q 643 695 560 776 q 726 471 726 614 l 726 293 q 642 69 726 151 q 417 -12 558 -12 m 417 119 q 534 162 492 119 q 576 283 576 204 l 576 481 q 534 602 576 560 q 417 644 492 644 q 299 602 342 644 q 257 481 257 560 l 257 283 q 299 162 257 204 q 417 119 342 119 m 353 896 l 421 982 q 442 1025 442 1007 q 399 1051 442 1051 l 288 1051 l 288 1150 l 433 1150 q 525 1121 490 1150 q 560 1042 560 1092 q 535 964 560 996 l 481 896 l 353 896 z "},"ơ":{"ha":833,"x_min":107,"x_max":767,"o":"m 417 -12 q 191 69 275 -12 q 107 293 107 151 l 107 471 q 190 695 107 614 q 417 776 274 776 q 588 736 515 776 l 596 736 q 644 785 644 736 l 644 889 l 767 889 l 767 781 q 744 699 767 733 q 682 646 721 664 q 726 471 726 574 l 726 293 q 642 69 726 151 q 417 -12 558 -12 m 417 119 q 534 162 492 119 q 576 283 576 204 l 576 481 q 534 602 576 560 q 417 644 492 644 q 299 602 342 644 q 257 481 257 560 l 257 283 q 299 162 257 204 q 417 119 342 119 z "},"ớ":{"ha":833,"x_min":107,"x_max":767,"o":"m 417 -12 q 191 69 275 -12 q 107 293 107 151 l 107 471 q 190 695 107 614 q 417 776 274 776 q 588 736 515 776 l 596 736 q 644 785 644 736 l 644 889 l 767 889 l 767 781 q 744 699 767 733 q 682 646 721 664 q 726 471 726 574 l 726 293 q 642 69 726 151 q 417 -12 558 -12 m 417 119 q 534 162 492 119 q 576 283 576 204 l 576 481 q 534 602 576 560 q 417 644 492 644 q 299 602 342 644 q 257 481 257 560 l 257 283 q 299 162 257 204 q 417 119 342 119 m 310 896 l 457 1090 l 618 1090 l 461 896 l 310 896 z "},"ợ":{"ha":833,"x_min":107,"x_max":767,"o":"m 417 -12 q 191 69 275 -12 q 107 293 107 151 l 107 471 q 190 695 107 614 q 417 776 274 776 q 588 736 515 776 l 596 736 q 644 785 644 736 l 644 889 l 767 889 l 767 781 q 744 699 767 733 q 682 646 721 664 q 726 471 726 574 l 726 293 q 642 69 726 151 q 417 -12 558 -12 m 417 119 q 534 162 492 119 q 576 283 576 204 l 576 481 q 534 602 576 560 q 417 644 492 644 q 299 602 342 644 q 257 481 257 560 l 257 283 q 299 162 257 204 q 417 119 342 119 m 417 -304 q 339 -279 368 -304 q 310 -210 310 -254 q 339 -141 310 -167 q 417 -115 368 -115 q 494 -141 465 -115 q 524 -210 524 -167 q 494 -279 524 -254 q 417 -304 465 -304 z "},"ờ":{"ha":833,"x_min":107,"x_max":767,"o":"m 417 -12 q 191 69 275 -12 q 107 293 107 151 l 107 471 q 190 695 107 614 q 417 776 274 776 q 588 736 515 776 l 596 736 q 644 785 644 736 l 644 889 l 767 889 l 767 781 q 744 699 767 733 q 682 646 721 664 q 726 471 726 574 l 726 293 q 642 69 726 151 q 417 -12 558 -12 m 417 119 q 534 162 492 119 q 576 283 576 204 l 576 481 q 534 602 576 560 q 417 644 492 644 q 299 602 342 644 q 257 481 257 560 l 257 283 q 299 162 257 204 q 417 119 342 119 m 344 896 l 183 1090 l 350 1090 l 500 896 l 344 896 z "},"ở":{"ha":833,"x_min":107,"x_max":767,"o":"m 417 -12 q 191 69 275 -12 q 107 293 107 151 l 107 471 q 190 695 107 614 q 417 776 274 776 q 588 736 515 776 l 596 736 q 644 785 644 736 l 644 889 l 767 889 l 767 781 q 744 699 767 733 q 682 646 721 664 q 726 471 726 574 l 726 293 q 642 69 726 151 q 417 -12 558 -12 m 417 119 q 534 162 492 119 q 576 283 576 204 l 576 481 q 534 602 576 560 q 417 644 492 644 q 299 602 342 644 q 257 481 257 560 l 257 283 q 299 162 257 204 q 417 119 342 119 m 339 896 l 407 982 q 428 1025 428 1007 q 385 1051 428 1051 l 274 1051 l 274 1150 l 419 1150 q 511 1121 476 1150 q 546 1042 546 1092 q 521 964 546 996 l 467 896 l 339 896 z "},"ỡ":{"ha":833,"x_min":107,"x_max":767,"o":"m 417 -12 q 191 69 275 -12 q 107 293 107 151 l 107 471 q 190 695 107 614 q 417 776 274 776 q 588 736 515 776 l 596 736 q 644 785 644 736 l 644 889 l 767 889 l 767 781 q 744 699 767 733 q 682 646 721 664 q 726 471 726 574 l 726 293 q 642 69 726 151 q 417 -12 558 -12 m 417 119 q 534 162 492 119 q 576 283 576 204 l 576 481 q 534 602 576 560 q 417 644 492 644 q 299 602 342 644 q 257 481 257 560 l 257 283 q 299 162 257 204 q 417 119 342 119 m 500 897 q 431 911 457 897 q 386 943 404 925 q 351 976 368 961 q 313 990 335 990 q 271 942 271 990 l 271 904 l 172 904 l 172 947 q 209 1051 172 1013 q 306 1090 246 1090 q 375 1076 349 1090 q 419 1043 401 1061 q 454 1011 438 1025 q 493 997 471 997 q 535 1042 535 997 l 535 1083 l 633 1083 l 633 1039 q 597 935 633 974 q 500 897 560 897 z "},"ő":{"ha":833,"x_min":107,"x_max":751,"o":"m 417 -12 q 191 69 275 -12 q 107 293 107 151 l 107 471 q 190 695 107 614 q 417 776 274 776 q 643 695 560 776 q 726 471 726 614 l 726 293 q 642 69 726 151 q 417 -12 558 -12 m 417 119 q 534 162 492 119 q 576 283 576 204 l 576 481 q 534 602 576 560 q 417 644 492 644 q 299 602 342 644 q 257 481 257 560 l 257 283 q 299 162 257 204 q 417 119 342 119 m 451 896 l 601 1090 l 751 1090 l 592 896 l 451 896 m 186 896 l 338 1090 l 486 1090 l 326 896 l 186 896 z "},"ō":{"ha":833,"x_min":107,"x_max":726,"o":"m 417 -12 q 191 69 275 -12 q 107 293 107 151 l 107 471 q 190 695 107 614 q 417 776 274 776 q 643 695 560 776 q 726 471 726 614 l 726 293 q 642 69 726 151 q 417 -12 558 -12 m 417 119 q 534 162 492 119 q 576 283 576 204 l 576 481 q 534 602 576 560 q 417 644 492 644 q 299 602 342 644 q 257 481 257 560 l 257 283 q 299 162 257 204 q 417 119 342 119 m 186 925 l 186 1043 l 647 1043 l 647 925 l 186 925 z "},"ǫ":{"ha":833,"x_min":111,"x_max":722,"o":"m 511 -292 q 385 -253 432 -292 q 338 -154 338 -214 q 360 -85 338 -121 q 435 -10 382 -50 q 417 -14 425 -14 q 193 66 275 -14 q 111 282 111 146 l 111 482 q 193 698 111 618 q 417 778 275 778 q 640 699 558 778 q 722 483 722 619 l 722 282 q 690 135 722 199 q 599 33 657 71 l 551 -7 q 472 -125 472 -72 q 492 -171 472 -153 q 544 -189 511 -189 l 632 -189 l 632 -292 l 511 -292 m 417 118 q 532 160 492 118 q 572 282 572 201 l 572 482 q 532 604 572 563 q 417 646 492 646 q 301 604 342 646 q 261 482 261 563 l 261 282 q 301 160 261 201 q 417 118 342 118 z "},"ø":{"ha":833,"x_min":44,"x_max":789,"o":"m 44 -42 l 154 114 q 111 282 111 185 l 111 482 q 193 698 111 618 q 417 778 275 778 q 593 735 519 778 l 653 819 l 789 819 l 675 658 q 722 483 722 586 l 722 282 q 640 66 722 146 q 417 -14 558 -14 q 233 33 308 -14 l 181 -42 l 44 -42 m 251 282 q 253 254 251 267 l 513 622 q 417 646 474 646 q 295 603 339 646 q 251 482 251 560 l 251 282 m 417 118 q 538 161 494 118 q 582 282 582 204 l 582 482 q 578 522 582 503 l 313 147 q 417 118 354 118 z "},"ǿ":{"ha":833,"x_min":44,"x_max":789,"o":"m 44 -42 l 154 114 q 111 282 111 185 l 111 482 q 193 698 111 618 q 417 778 275 778 q 593 735 519 778 l 653 819 l 789 819 l 675 658 q 722 483 722 586 l 722 282 q 640 66 722 146 q 417 -14 558 -14 q 233 33 308 -14 l 181 -42 l 44 -42 m 251 282 q 253 254 251 267 l 513 622 q 417 646 474 646 q 295 603 339 646 q 251 482 251 560 l 251 282 m 417 118 q 538 161 494 118 q 582 282 582 204 l 582 482 q 578 522 582 503 l 313 147 q 417 118 354 118 m 324 896 l 471 1090 l 632 1090 l 475 896 l 324 896 z "},"õ":{"ha":833,"x_min":107,"x_max":726,"o":"m 417 -12 q 191 69 275 -12 q 107 293 107 151 l 107 471 q 190 695 107 614 q 417 776 274 776 q 643 695 560 776 q 726 471 726 614 l 726 293 q 642 69 726 151 q 417 -12 558 -12 m 417 119 q 534 162 492 119 q 576 283 576 204 l 576 481 q 534 602 576 560 q 417 644 492 644 q 299 602 342 644 q 257 481 257 560 l 257 283 q 299 162 257 204 q 417 119 342 119 m 514 897 q 444 911 471 897 q 400 943 418 925 q 365 976 382 961 q 326 990 349 990 q 285 942 285 990 l 285 904 l 186 904 l 186 947 q 223 1051 186 1013 q 319 1090 260 1090 q 389 1076 363 1090 q 433 1043 415 1061 q 468 1011 451 1025 q 507 997 485 997 q 549 1042 549 997 l 549 1083 l 647 1083 l 647 1039 q 610 935 647 974 q 514 897 574 897 z "},"œ":{"ha":833,"x_min":49,"x_max":785,"o":"m 250 -14 q 103 45 158 -14 q 49 204 49 104 l 49 560 q 103 719 49 660 q 250 778 158 778 q 340 760 304 778 q 392 717 375 743 q 413 669 410 692 l 421 669 q 440 717 422 692 q 493 760 458 743 q 583 778 528 778 q 730 719 675 778 q 785 560 785 660 l 785 347 l 482 347 l 482 204 q 505 129 482 157 q 567 101 528 101 q 624 122 601 101 q 651 181 647 143 l 782 181 q 718 39 772 92 q 583 -14 664 -14 q 493 3 528 -14 q 440 47 458 21 q 421 96 422 72 l 413 96 q 392 47 410 72 q 340 3 375 21 q 250 -14 304 -14 m 267 101 q 328 129 306 101 q 351 204 351 157 l 351 560 q 328 635 351 607 q 267 663 306 663 q 203 635 226 663 q 179 560 179 607 l 179 204 q 203 129 179 157 q 267 101 226 101 m 482 451 l 654 451 l 654 560 q 631 635 654 607 q 567 663 607 663 q 505 635 528 663 q 482 560 482 607 l 482 451 z "},"p":{"ha":833,"x_min":117,"x_max":724,"o":"m 117 -250 l 117 764 l 265 764 l 265 619 q 335 736 281 694 q 474 778 390 778 q 656 699 588 778 q 724 490 724 621 l 724 275 q 656 65 724 143 q 474 -14 588 -14 q 335 30 390 -14 q 264 150 279 74 l 263 150 l 267 -32 l 267 -250 l 117 -250 m 421 117 q 533 155 493 117 q 574 278 574 193 l 574 488 q 533 609 574 571 q 421 647 493 647 q 308 603 349 647 q 267 481 267 560 l 267 285 q 308 160 267 204 q 421 117 349 117 z "},"þ":{"ha":833,"x_min":113,"x_max":719,"o":"m 113 -236 l 113 1014 l 263 1014 l 263 796 l 258 619 q 331 735 275 693 q 469 778 386 778 q 651 700 583 778 q 719 489 719 622 l 719 274 q 651 64 719 142 q 469 -14 582 -14 q 331 28 386 -14 q 260 144 276 69 l 260 -236 l 113 -236 m 415 117 q 528 155 488 117 q 569 278 569 193 l 569 488 q 528 609 569 571 q 415 647 488 647 q 303 603 343 647 q 263 481 263 560 l 263 285 q 303 160 263 204 q 415 117 343 117 z "},"q":{"ha":833,"x_min":110,"x_max":717,"o":"m 567 -250 l 567 -32 l 571 142 l 568 142 q 497 28 551 69 q 360 -14 442 -14 q 178 64 246 -14 q 110 275 110 142 l 110 490 q 178 700 110 622 q 360 778 246 778 q 498 736 443 778 q 568 619 553 694 l 568 764 l 717 764 l 717 -250 l 567 -250 m 413 117 q 526 160 485 117 q 567 285 567 204 l 567 481 q 526 603 567 560 q 413 647 485 647 q 300 610 340 647 q 260 492 260 572 l 260 272 q 300 154 260 192 q 413 117 340 117 z "},"r":{"ha":833,"x_min":144,"x_max":750,"o":"m 144 0 l 144 764 l 293 764 l 293 614 l 293 614 q 358 734 304 690 q 501 778 413 778 q 685 704 619 778 q 750 497 750 631 l 750 429 l 600 429 l 600 493 q 449 647 600 647 q 334 603 374 647 q 294 476 294 560 l 294 0 l 144 0 z "},"ŕ":{"ha":833,"x_min":144,"x_max":750,"o":"m 144 0 l 144 764 l 293 764 l 293 614 l 293 614 q 358 734 304 690 q 501 778 413 778 q 685 704 619 778 q 750 497 750 631 l 750 429 l 600 429 l 600 493 q 449 647 600 647 q 334 603 374 647 q 294 476 294 560 l 294 0 l 144 0 m 351 896 l 499 1090 l 660 1090 l 503 896 l 351 896 z "},"ř":{"ha":833,"x_min":144,"x_max":750,"o":"m 144 0 l 144 764 l 293 764 l 293 614 l 293 614 q 358 734 304 690 q 501 778 413 778 q 685 704 619 778 q 750 497 750 631 l 750 429 l 600 429 l 600 493 q 449 647 600 647 q 334 603 374 647 q 294 476 294 560 l 294 0 l 144 0 m 375 896 l 183 1090 l 336 1090 l 446 985 l 551 1090 l 706 1090 l 514 896 l 375 896 z "},"ŗ":{"ha":833,"x_min":43,"x_max":750,"o":"m 144 0 l 144 764 l 293 764 l 293 614 l 293 614 q 358 734 304 690 q 501 778 413 778 q 685 704 619 778 q 750 497 750 631 l 750 429 l 600 429 l 600 493 q 449 647 600 647 q 334 603 374 647 q 294 476 294 560 l 294 0 l 144 0 m 43 -333 l 175 -132 l 339 -132 l 189 -333 l 43 -333 z "},"s":{"ha":833,"x_min":104,"x_max":731,"o":"m 386 -12 q 179 47 254 -12 q 104 214 104 107 l 253 214 q 288 138 253 165 q 386 111 322 111 l 447 111 q 549 138 513 111 q 585 215 585 165 q 492 315 585 303 l 290 343 q 160 410 206 354 q 114 557 114 467 q 184 719 114 661 q 383 776 254 776 l 446 776 q 640 719 565 776 q 718 569 714 663 l 568 569 q 533 631 565 607 q 446 656 500 656 l 383 656 q 291 629 324 656 q 258 560 258 603 q 338 476 258 488 l 526 451 q 731 217 731 424 q 657 47 731 107 q 447 -12 583 -12 l 386 -12 z "},"ś":{"ha":833,"x_min":104,"x_max":731,"o":"m 386 -12 q 179 47 254 -12 q 104 214 104 107 l 253 214 q 288 138 253 165 q 386 111 322 111 l 447 111 q 549 138 513 111 q 585 215 585 165 q 492 315 585 303 l 290 343 q 160 410 206 354 q 114 557 114 467 q 184 719 114 661 q 383 776 254 776 l 446 776 q 640 719 565 776 q 718 569 714 663 l 568 569 q 533 631 565 607 q 446 656 500 656 l 383 656 q 291 629 324 656 q 258 560 258 603 q 338 476 258 488 l 526 451 q 731 217 731 424 q 657 47 731 107 q 447 -12 583 -12 l 386 -12 m 324 896 l 471 1090 l 632 1090 l 475 896 l 324 896 z "},"š":{"ha":833,"x_min":104,"x_max":731,"o":"m 386 -12 q 179 47 254 -12 q 104 214 104 107 l 253 214 q 288 138 253 165 q 386 111 322 111 l 447 111 q 549 138 513 111 q 585 215 585 165 q 492 315 585 303 l 290 343 q 160 410 206 354 q 114 557 114 467 q 184 719 114 661 q 383 776 254 776 l 446 776 q 640 719 565 776 q 718 569 714 663 l 568 569 q 533 631 565 607 q 446 656 500 656 l 383 656 q 291 629 324 656 q 258 560 258 603 q 338 476 258 488 l 526 451 q 731 217 731 424 q 657 47 731 107 q 447 -12 583 -12 l 386 -12 m 347 896 l 156 1090 l 308 1090 l 418 985 l 524 1090 l 678 1090 l 486 896 l 347 896 z "},"ş":{"ha":833,"x_min":104,"x_max":731,"o":"m 293 -292 l 293 -208 l 394 -208 q 444 -192 425 -208 q 464 -158 464 -176 q 425 -114 464 -132 q 314 -96 386 -96 l 346 -11 q 168 57 232 -1 q 104 214 104 115 l 253 214 q 288 138 253 165 q 386 111 322 111 l 447 111 q 549 138 513 111 q 585 215 585 165 q 492 315 585 303 l 290 343 q 160 410 206 354 q 114 557 114 467 q 184 719 114 661 q 383 776 254 776 l 446 776 q 640 719 565 776 q 718 569 714 663 l 568 569 q 533 631 565 607 q 446 656 500 656 l 383 656 q 291 629 324 656 q 258 560 258 603 q 338 476 258 488 l 526 451 q 731 217 731 424 q 657 47 731 107 q 447 -12 583 -12 l 433 -12 l 419 -50 q 499 -69 458 -54 q 567 -109 539 -83 q 596 -172 596 -135 q 548 -256 596 -221 q 421 -292 500 -292 l 293 -292 z "},"ŝ":{"ha":833,"x_min":104,"x_max":731,"o":"m 386 -12 q 179 47 254 -12 q 104 214 104 107 l 253 214 q 288 138 253 165 q 386 111 322 111 l 447 111 q 549 138 513 111 q 585 215 585 165 q 492 315 585 303 l 290 343 q 160 410 206 354 q 114 557 114 467 q 184 719 114 661 q 383 776 254 776 l 446 776 q 640 719 565 776 q 718 569 714 663 l 568 569 q 533 631 565 607 q 446 656 500 656 l 383 656 q 291 629 324 656 q 258 560 258 603 q 338 476 258 488 l 526 451 q 731 217 731 424 q 657 47 731 107 q 447 -12 583 -12 l 386 -12 m 156 896 l 347 1090 l 486 1090 l 678 896 l 525 896 l 415 1001 l 310 896 l 156 896 z "},"ș":{"ha":833,"x_min":104,"x_max":731,"o":"m 386 -12 q 179 47 254 -12 q 104 214 104 107 l 253 214 q 288 138 253 165 q 386 111 322 111 l 447 111 q 549 138 513 111 q 585 215 585 165 q 492 315 585 303 l 290 343 q 160 410 206 354 q 114 557 114 467 q 184 719 114 661 q 383 776 254 776 l 446 776 q 640 719 565 776 q 718 569 714 663 l 568 569 q 533 631 565 607 q 446 656 500 656 l 383 656 q 291 629 324 656 q 258 560 258 603 q 338 476 258 488 l 526 451 q 731 217 731 424 q 657 47 731 107 q 447 -12 583 -12 l 386 -12 m 258 -333 l 390 -132 l 554 -132 l 404 -333 l 258 -333 z "},"ß":{"ha":833,"x_min":114,"x_max":756,"o":"m 114 0 l 114 732 q 153 886 114 819 q 261 990 192 953 q 421 1028 331 1028 q 580 994 511 1028 q 687 902 649 961 q 725 767 725 843 q 680 622 725 683 q 564 544 635 561 l 564 542 q 702 453 649 525 q 756 285 756 382 q 716 136 756 200 q 605 36 676 72 q 439 0 533 0 l 363 0 l 363 133 l 428 133 q 554 180 506 133 q 603 301 603 226 q 556 422 603 375 q 436 468 510 468 l 363 468 l 363 592 l 421 592 q 533 634 489 592 q 576 744 576 676 q 533 856 576 813 q 421 899 489 899 q 308 853 351 899 q 264 732 264 807 l 264 0 l 114 0 z "},"ſ":{"ha":833,"x_min":217,"x_max":719,"o":"m 217 0 l 217 774 q 286 948 217 882 q 471 1014 356 1014 l 719 1014 l 719 882 l 475 882 q 397 852 426 882 q 367 774 367 822 l 367 0 l 217 0 z "},"t":{"ha":833,"x_min":57,"x_max":731,"o":"m 493 0 q 332 58 392 0 q 272 217 272 117 l 272 628 l 57 628 l 57 764 l 272 764 l 272 979 l 422 979 l 422 764 l 731 764 l 731 628 l 422 628 l 422 218 q 443 159 422 182 q 500 136 464 136 l 724 136 l 724 0 l 493 0 z "},"ŧ":{"ha":833,"x_min":57,"x_max":731,"o":"m 113 324 l 113 444 l 272 444 l 272 628 l 57 628 l 57 764 l 272 764 l 272 979 l 422 979 l 422 764 l 731 764 l 731 628 l 422 628 l 422 444 l 667 444 l 667 324 l 422 324 l 422 218 q 443 159 422 182 q 500 136 464 136 l 724 136 l 724 0 l 493 0 q 332 58 392 0 q 272 217 272 117 l 272 324 l 113 324 z "},"ť":{"ha":833,"x_min":57,"x_max":731,"o":"m 493 0 q 332 58 392 0 q 272 217 272 117 l 272 628 l 57 628 l 57 764 l 272 764 l 272 979 l 422 979 l 422 764 l 731 764 l 731 628 l 422 628 l 422 218 q 443 159 422 182 q 500 136 464 136 l 724 136 l 724 0 l 493 0 m 524 863 l 543 1113 l 676 1113 l 644 863 l 524 863 z "},"ţ":{"ha":833,"x_min":57,"x_max":731,"o":"m 363 -292 l 363 -208 l 464 -208 q 514 -192 494 -208 q 533 -158 533 -176 q 494 -114 533 -132 q 383 -96 456 -96 l 424 8 q 313 81 353 26 q 272 217 272 135 l 272 628 l 57 628 l 57 764 l 272 764 l 272 979 l 422 979 l 422 764 l 731 764 l 731 628 l 422 628 l 422 218 q 443 159 422 182 q 500 136 464 136 l 724 136 l 724 0 l 507 0 l 489 -50 q 568 -69 528 -54 q 637 -109 608 -83 q 665 -172 665 -135 q 617 -256 665 -221 q 490 -292 569 -292 l 363 -292 z "},"ț":{"ha":833,"x_min":57,"x_max":731,"o":"m 493 0 q 332 58 392 0 q 272 217 272 117 l 272 628 l 57 628 l 57 764 l 272 764 l 272 979 l 422 979 l 422 764 l 731 764 l 731 628 l 422 628 l 422 218 q 443 159 422 182 q 500 136 464 136 l 724 136 l 724 0 l 493 0 m 342 -333 l 474 -132 l 638 -132 l 488 -333 l 342 -333 z "},"u":{"ha":833,"x_min":114,"x_max":719,"o":"m 415 -14 q 195 66 276 -14 q 114 283 114 146 l 114 764 l 264 764 l 264 285 q 304 162 264 207 q 415 117 344 117 q 528 162 488 117 q 569 285 569 207 l 569 764 l 719 764 l 719 283 q 637 66 719 146 q 415 -14 554 -14 z "},"ú":{"ha":833,"x_min":114,"x_max":719,"o":"m 415 -14 q 195 66 276 -14 q 114 283 114 146 l 114 764 l 264 764 l 264 285 q 304 162 264 207 q 415 117 344 117 q 528 162 488 117 q 569 285 569 207 l 569 764 l 719 764 l 719 283 q 637 66 719 146 q 415 -14 554 -14 m 324 896 l 471 1090 l 632 1090 l 475 896 l 324 896 z "},"ŭ":{"ha":833,"x_min":114,"x_max":719,"o":"m 415 -14 q 195 66 276 -14 q 114 283 114 146 l 114 764 l 264 764 l 264 285 q 304 162 264 207 q 415 117 344 117 q 528 162 488 117 q 569 285 569 207 l 569 764 l 719 764 l 719 283 q 637 66 719 146 q 415 -14 554 -14 m 417 888 q 249 943 313 888 q 185 1090 185 999 l 301 1090 q 333 1010 301 1040 q 415 979 364 979 q 500 1010 468 979 q 532 1090 532 1040 l 650 1090 q 585 943 650 999 q 417 888 521 888 z "},"ǔ":{"ha":833,"x_min":114,"x_max":719,"o":"m 415 -14 q 195 66 276 -14 q 114 283 114 146 l 114 764 l 264 764 l 264 285 q 304 162 264 207 q 415 117 344 117 q 528 162 488 117 q 569 285 569 207 l 569 764 l 719 764 l 719 283 q 637 66 719 146 q 415 -14 554 -14 m 347 896 l 156 1090 l 308 1090 l 418 985 l 524 1090 l 678 1090 l 486 896 l 347 896 z "},"û":{"ha":833,"x_min":114,"x_max":719,"o":"m 415 -14 q 195 66 276 -14 q 114 283 114 146 l 114 764 l 264 764 l 264 285 q 304 162 264 207 q 415 117 344 117 q 528 162 488 117 q 569 285 569 207 l 569 764 l 719 764 l 719 283 q 637 66 719 146 q 415 -14 554 -14 m 156 896 l 347 1090 l 486 1090 l 678 896 l 525 896 l 415 1001 l 310 896 l 156 896 z "},"ü":{"ha":833,"x_min":114,"x_max":719,"o":"m 415 -14 q 195 66 276 -14 q 114 283 114 146 l 114 764 l 264 764 l 264 285 q 304 162 264 207 q 415 117 344 117 q 528 162 488 117 q 569 285 569 207 l 569 764 l 719 764 l 719 283 q 637 66 719 146 q 415 -14 554 -14 m 575 896 q 506 922 532 896 q 481 990 481 947 q 506 1060 481 1035 q 575 1086 532 1086 q 645 1060 619 1086 q 671 990 671 1035 q 645 922 671 947 q 575 896 619 896 m 258 896 q 188 922 214 896 q 163 990 163 947 q 188 1060 163 1035 q 258 1086 214 1086 q 328 1060 301 1086 q 354 990 354 1035 q 328 922 354 947 q 258 896 301 896 z "},"ǘ":{"ha":833,"x_min":114,"x_max":719,"o":"m 415 -14 q 195 66 276 -14 q 114 283 114 146 l 114 764 l 264 764 l 264 285 q 304 162 264 207 q 415 117 344 117 q 528 162 488 117 q 569 285 569 207 l 569 764 l 719 764 l 719 283 q 637 66 719 146 q 415 -14 554 -14 m 575 896 q 506 922 532 896 q 481 990 481 947 q 506 1060 481 1035 q 575 1086 532 1086 q 645 1060 619 1086 q 671 990 671 1035 q 645 922 671 947 q 575 896 619 896 m 258 896 q 188 922 214 896 q 163 990 163 947 q 188 1060 163 1035 q 258 1086 214 1086 q 328 1060 301 1086 q 354 990 354 1035 q 328 922 354 947 q 258 896 301 896 m 324 1218 l 471 1413 l 632 1413 l 475 1218 l 324 1218 z "},"ǚ":{"ha":833,"x_min":114,"x_max":719,"o":"m 415 -14 q 195 66 276 -14 q 114 283 114 146 l 114 764 l 264 764 l 264 285 q 304 162 264 207 q 415 117 344 117 q 528 162 488 117 q 569 285 569 207 l 569 764 l 719 764 l 719 283 q 637 66 719 146 q 415 -14 554 -14 m 575 896 q 506 922 532 896 q 481 990 481 947 q 506 1060 481 1035 q 575 1086 532 1086 q 645 1060 619 1086 q 671 990 671 1035 q 645 922 671 947 q 575 896 619 896 m 258 896 q 188 922 214 896 q 163 990 163 947 q 188 1060 163 1035 q 258 1086 214 1086 q 328 1060 301 1086 q 354 990 354 1035 q 328 922 354 947 q 258 896 301 896 m 347 1218 l 156 1413 l 308 1413 l 418 1307 l 524 1413 l 678 1413 l 486 1218 l 347 1218 z "},"ǜ":{"ha":833,"x_min":114,"x_max":719,"o":"m 415 -14 q 195 66 276 -14 q 114 283 114 146 l 114 764 l 264 764 l 264 285 q 304 162 264 207 q 415 117 344 117 q 528 162 488 117 q 569 285 569 207 l 569 764 l 719 764 l 719 283 q 637 66 719 146 q 415 -14 554 -14 m 575 896 q 506 922 532 896 q 481 990 481 947 q 506 1060 481 1035 q 575 1086 532 1086 q 645 1060 619 1086 q 671 990 671 1035 q 645 922 671 947 q 575 896 619 896 m 258 896 q 188 922 214 896 q 163 990 163 947 q 188 1060 163 1035 q 258 1086 214 1086 q 328 1060 301 1086 q 354 990 354 1035 q 328 922 354 947 q 258 896 301 896 m 358 1218 l 197 1413 l 364 1413 l 514 1218 l 358 1218 z "},"ǖ":{"ha":833,"x_min":114,"x_max":719,"o":"m 415 -14 q 195 66 276 -14 q 114 283 114 146 l 114 764 l 264 764 l 264 285 q 304 162 264 207 q 415 117 344 117 q 528 162 488 117 q 569 285 569 207 l 569 764 l 719 764 l 719 283 q 637 66 719 146 q 415 -14 554 -14 m 575 896 q 506 922 532 896 q 481 990 481 947 q 506 1060 481 1035 q 575 1086 532 1086 q 645 1060 619 1086 q 671 990 671 1035 q 645 922 671 947 q 575 896 619 896 m 258 896 q 188 922 214 896 q 163 990 163 947 q 188 1060 163 1035 q 258 1086 214 1086 q 328 1060 301 1086 q 354 990 354 1035 q 328 922 354 947 q 258 896 301 896 m 186 1247 l 186 1365 l 647 1365 l 647 1247 l 186 1247 z "},"ụ":{"ha":833,"x_min":114,"x_max":719,"o":"m 415 -14 q 195 66 276 -14 q 114 283 114 146 l 114 764 l 264 764 l 264 285 q 304 162 264 207 q 415 117 344 117 q 528 162 488 117 q 569 285 569 207 l 569 764 l 719 764 l 719 283 q 637 66 719 146 q 415 -14 554 -14 m 417 -304 q 339 -279 368 -304 q 310 -210 310 -254 q 339 -141 310 -167 q 417 -115 368 -115 q 494 -141 465 -115 q 524 -210 524 -167 q 494 -279 524 -254 q 417 -304 465 -304 z "},"ù":{"ha":833,"x_min":114,"x_max":719,"o":"m 415 -14 q 195 66 276 -14 q 114 283 114 146 l 114 764 l 264 764 l 264 285 q 304 162 264 207 q 415 117 344 117 q 528 162 488 117 q 569 285 569 207 l 569 764 l 719 764 l 719 283 q 637 66 719 146 q 415 -14 554 -14 m 358 896 l 197 1090 l 364 1090 l 514 896 l 358 896 z "},"ủ":{"ha":833,"x_min":114,"x_max":719,"o":"m 415 -14 q 195 66 276 -14 q 114 283 114 146 l 114 764 l 264 764 l 264 285 q 304 162 264 207 q 415 117 344 117 q 528 162 488 117 q 569 285 569 207 l 569 764 l 719 764 l 719 283 q 637 66 719 146 q 415 -14 554 -14 m 353 896 l 421 982 q 442 1025 442 1007 q 399 1051 442 1051 l 288 1051 l 288 1150 l 433 1150 q 525 1121 490 1150 q 560 1042 560 1092 q 535 964 560 996 l 481 896 l 353 896 z "},"ư":{"ha":833,"x_min":114,"x_max":849,"o":"m 114 282 l 114 764 l 264 764 l 264 281 q 302 160 264 203 q 407 117 340 117 q 514 160 475 117 q 553 281 553 203 l 553 764 l 676 764 q 725 813 725 764 l 725 917 l 849 917 l 849 808 q 812 700 849 740 q 703 660 775 660 l 703 282 q 622 65 703 144 q 407 -14 542 -14 q 193 65 272 -14 q 114 282 114 144 z "},"ứ":{"ha":833,"x_min":114,"x_max":849,"o":"m 114 282 l 114 764 l 264 764 l 264 281 q 302 160 264 203 q 407 117 340 117 q 514 160 475 117 q 553 281 553 203 l 553 764 l 676 764 q 725 813 725 764 l 725 917 l 849 917 l 849 808 q 812 700 849 740 q 703 660 775 660 l 703 282 q 622 65 703 144 q 407 -14 542 -14 q 193 65 272 -14 q 114 282 114 144 m 315 896 l 463 1090 l 624 1090 l 467 896 l 315 896 z "},"ự":{"ha":833,"x_min":114,"x_max":849,"o":"m 114 282 l 114 764 l 264 764 l 264 281 q 302 160 264 203 q 407 117 340 117 q 514 160 475 117 q 553 281 553 203 l 553 764 l 676 764 q 725 813 725 764 l 725 917 l 849 917 l 849 808 q 812 700 849 740 q 703 660 775 660 l 703 282 q 622 65 703 144 q 407 -14 542 -14 q 193 65 272 -14 q 114 282 114 144 m 407 -304 q 329 -279 358 -304 q 300 -210 300 -254 q 329 -141 300 -167 q 407 -115 358 -115 q 485 -141 456 -115 q 514 -210 514 -167 q 485 -279 514 -254 q 407 -304 456 -304 z "},"ừ":{"ha":833,"x_min":114,"x_max":849,"o":"m 114 282 l 114 764 l 264 764 l 264 281 q 302 160 264 203 q 407 117 340 117 q 514 160 475 117 q 553 281 553 203 l 553 764 l 676 764 q 725 813 725 764 l 725 917 l 849 917 l 849 808 q 812 700 849 740 q 703 660 775 660 l 703 282 q 622 65 703 144 q 407 -14 542 -14 q 193 65 272 -14 q 114 282 114 144 m 350 896 l 189 1090 l 356 1090 l 506 896 l 350 896 z "},"ử":{"ha":833,"x_min":114,"x_max":849,"o":"m 114 282 l 114 764 l 264 764 l 264 281 q 302 160 264 203 q 407 117 340 117 q 514 160 475 117 q 553 281 553 203 l 553 764 l 676 764 q 725 813 725 764 l 725 917 l 849 917 l 849 808 q 812 700 849 740 q 703 660 775 660 l 703 282 q 622 65 703 144 q 407 -14 542 -14 q 193 65 272 -14 q 114 282 114 144 m 344 896 l 413 982 q 433 1025 433 1007 q 390 1051 433 1051 l 279 1051 l 279 1150 l 425 1150 q 517 1121 482 1150 q 551 1042 551 1092 q 526 964 551 996 l 472 896 l 344 896 z "},"ữ":{"ha":833,"x_min":114,"x_max":849,"o":"m 114 282 l 114 764 l 264 764 l 264 281 q 302 160 264 203 q 407 117 340 117 q 514 160 475 117 q 553 281 553 203 l 553 764 l 676 764 q 725 813 725 764 l 725 917 l 849 917 l 849 808 q 812 700 849 740 q 703 660 775 660 l 703 282 q 622 65 703 144 q 407 -14 542 -14 q 193 65 272 -14 q 114 282 114 144 m 506 897 q 436 911 463 897 q 392 943 410 925 q 357 976 374 961 q 318 990 340 990 q 276 942 276 990 l 276 904 l 178 904 l 178 947 q 215 1051 178 1013 q 311 1090 251 1090 q 381 1076 354 1090 q 425 1043 407 1061 q 460 1011 443 1025 q 499 997 476 997 q 540 1042 540 997 l 540 1083 l 639 1083 l 639 1039 q 602 935 639 974 q 506 897 565 897 z "},"ű":{"ha":833,"x_min":114,"x_max":751,"o":"m 415 -14 q 195 66 276 -14 q 114 283 114 146 l 114 764 l 264 764 l 264 285 q 304 162 264 207 q 415 117 344 117 q 528 162 488 117 q 569 285 569 207 l 569 764 l 719 764 l 719 283 q 637 66 719 146 q 415 -14 554 -14 m 451 896 l 601 1090 l 751 1090 l 592 896 l 451 896 m 186 896 l 338 1090 l 486 1090 l 326 896 l 186 896 z "},"ū":{"ha":833,"x_min":114,"x_max":719,"o":"m 415 -14 q 195 66 276 -14 q 114 283 114 146 l 114 764 l 264 764 l 264 285 q 304 162 264 207 q 415 117 344 117 q 528 162 488 117 q 569 285 569 207 l 569 764 l 719 764 l 719 283 q 637 66 719 146 q 415 -14 554 -14 m 186 925 l 186 1043 l 647 1043 l 647 925 l 186 925 z "},"ų":{"ha":833,"x_min":114,"x_max":719,"o":"m 511 -292 q 385 -253 432 -292 q 338 -154 338 -214 q 360 -85 338 -121 q 435 -10 382 -50 q 417 -14 425 -14 q 194 66 275 -14 q 114 282 114 146 l 114 764 l 264 764 l 264 282 q 417 118 264 118 q 569 282 569 118 l 569 764 l 719 764 l 719 282 q 599 33 719 110 l 551 -7 q 472 -125 472 -72 q 492 -171 472 -153 q 544 -189 511 -189 l 632 -189 l 632 -292 l 511 -292 z "},"ů":{"ha":833,"x_min":114,"x_max":719,"o":"m 415 -14 q 195 66 276 -14 q 114 283 114 146 l 114 764 l 264 764 l 264 285 q 304 162 264 207 q 415 117 344 117 q 528 162 488 117 q 569 285 569 207 l 569 764 l 719 764 l 719 283 q 637 66 719 146 q 415 -14 554 -14 m 417 840 q 290 885 338 840 q 242 1004 242 931 q 290 1123 242 1078 q 417 1168 338 1168 q 544 1123 496 1168 q 592 1004 592 1078 q 544 885 592 931 q 417 840 496 840 m 417 921 q 477 944 454 921 q 500 1004 500 967 q 477 1065 500 1042 q 417 1089 454 1089 q 356 1065 379 1089 q 333 1004 333 1042 q 356 944 333 967 q 417 921 379 921 z "},"ũ":{"ha":833,"x_min":114,"x_max":719,"o":"m 415 -14 q 195 66 276 -14 q 114 283 114 146 l 114 764 l 264 764 l 264 285 q 304 162 264 207 q 415 117 344 117 q 528 162 488 117 q 569 285 569 207 l 569 764 l 719 764 l 719 283 q 637 66 719 146 q 415 -14 554 -14 m 514 897 q 444 911 471 897 q 400 943 418 925 q 365 976 382 961 q 326 990 349 990 q 285 942 285 990 l 285 904 l 186 904 l 186 947 q 223 1051 186 1013 q 319 1090 260 1090 q 389 1076 363 1090 q 433 1043 415 1061 q 468 1011 451 1025 q 507 997 485 997 q 549 1042 549 997 l 549 1083 l 647 1083 l 647 1039 q 610 935 647 974 q 514 897 574 897 z "},"v":{"ha":833,"x_min":63,"x_max":771,"o":"m 321 0 l 63 764 l 221 764 l 378 275 q 403 190 392 232 q 419 119 414 147 q 434 190 425 147 q 457 275 443 232 l 613 764 l 771 764 l 514 0 l 321 0 z "},"w":{"ha":833,"x_min":32,"x_max":801,"o":"m 154 0 l 32 764 l 156 764 l 228 261 q 238 180 233 224 q 243 108 242 136 q 250 180 246 136 q 261 261 254 224 l 350 764 l 485 764 l 574 261 q 584 180 579 224 q 592 108 589 136 q 598 180 594 136 q 607 261 601 224 l 682 764 l 801 764 l 675 0 l 517 0 l 436 499 q 424 585 429 538 q 417 660 419 632 q 409 585 415 632 q 397 499 403 538 l 314 0 l 154 0 z "},"ẃ":{"ha":833,"x_min":32,"x_max":801,"o":"m 154 0 l 32 764 l 156 764 l 228 261 q 238 180 233 224 q 243 108 242 136 q 250 180 246 136 q 261 261 254 224 l 350 764 l 485 764 l 574 261 q 584 180 579 224 q 592 108 589 136 q 598 180 594 136 q 607 261 601 224 l 682 764 l 801 764 l 675 0 l 517 0 l 436 499 q 424 585 429 538 q 417 660 419 632 q 409 585 415 632 q 397 499 403 538 l 314 0 l 154 0 m 324 896 l 471 1090 l 632 1090 l 475 896 l 324 896 z "},"ŵ":{"ha":833,"x_min":32,"x_max":801,"o":"m 154 0 l 32 764 l 156 764 l 228 261 q 238 180 233 224 q 243 108 242 136 q 250 180 246 136 q 261 261 254 224 l 350 764 l 485 764 l 574 261 q 584 180 579 224 q 592 108 589 136 q 598 180 594 136 q 607 261 601 224 l 682 764 l 801 764 l 675 0 l 517 0 l 436 499 q 424 585 429 538 q 417 660 419 632 q 409 585 415 632 q 397 499 403 538 l 314 0 l 154 0 m 156 896 l 347 1090 l 486 1090 l 678 896 l 525 896 l 415 1001 l 310 896 l 156 896 z "},"ẅ":{"ha":833,"x_min":32,"x_max":801,"o":"m 154 0 l 32 764 l 156 764 l 228 261 q 238 180 233 224 q 243 108 242 136 q 250 180 246 136 q 261 261 254 224 l 350 764 l 485 764 l 574 261 q 584 180 579 224 q 592 108 589 136 q 598 180 594 136 q 607 261 601 224 l 682 764 l 801 764 l 675 0 l 517 0 l 436 499 q 424 585 429 538 q 417 660 419 632 q 409 585 415 632 q 397 499 403 538 l 314 0 l 154 0 m 575 896 q 506 922 532 896 q 481 990 481 947 q 506 1060 481 1035 q 575 1086 532 1086 q 645 1060 619 1086 q 671 990 671 1035 q 645 922 671 947 q 575 896 619 896 m 258 896 q 188 922 214 896 q 163 990 163 947 q 188 1060 163 1035 q 258 1086 214 1086 q 328 1060 301 1086 q 354 990 354 1035 q 328 922 354 947 q 258 896 301 896 z "},"ẁ":{"ha":833,"x_min":32,"x_max":801,"o":"m 154 0 l 32 764 l 156 764 l 228 261 q 238 180 233 224 q 243 108 242 136 q 250 180 246 136 q 261 261 254 224 l 350 764 l 485 764 l 574 261 q 584 180 579 224 q 592 108 589 136 q 598 180 594 136 q 607 261 601 224 l 682 764 l 801 764 l 675 0 l 517 0 l 436 499 q 424 585 429 538 q 417 660 419 632 q 409 585 415 632 q 397 499 403 538 l 314 0 l 154 0 m 358 896 l 197 1090 l 364 1090 l 514 896 l 358 896 z "},"x":{"ha":833,"x_min":60,"x_max":774,"o":"m 60 0 l 328 394 l 76 764 l 249 764 l 383 553 q 403 517 393 536 q 418 486 413 499 q 431 517 422 499 q 451 553 440 536 l 585 764 l 758 764 l 507 393 l 774 0 l 601 0 l 453 229 q 433 267 443 246 q 418 300 424 288 q 401 267 411 288 q 381 229 392 246 l 232 0 l 60 0 z "},"y":{"ha":833,"x_min":63,"x_max":771,"o":"m 238 -250 l 349 44 l 63 764 l 222 764 l 385 333 q 408 267 397 303 q 424 203 419 231 q 440 267 429 231 q 461 333 450 303 l 613 764 l 771 764 l 394 -250 l 238 -250 z "},"ý":{"ha":833,"x_min":63,"x_max":771,"o":"m 238 -250 l 349 44 l 63 764 l 222 764 l 385 333 q 408 267 397 303 q 424 203 419 231 q 440 267 429 231 q 461 333 450 303 l 613 764 l 771 764 l 394 -250 l 238 -250 m 324 896 l 471 1090 l 632 1090 l 475 896 l 324 896 z "},"ŷ":{"ha":833,"x_min":63,"x_max":771,"o":"m 238 -250 l 349 44 l 63 764 l 222 764 l 385 333 q 408 267 397 303 q 424 203 419 231 q 440 267 429 231 q 461 333 450 303 l 613 764 l 771 764 l 394 -250 l 238 -250 m 156 896 l 347 1090 l 486 1090 l 678 896 l 525 896 l 415 1001 l 310 896 l 156 896 z "},"ÿ":{"ha":833,"x_min":63,"x_max":771,"o":"m 238 -250 l 349 44 l 63 764 l 222 764 l 385 333 q 408 267 397 303 q 424 203 419 231 q 440 267 429 231 q 461 333 450 303 l 613 764 l 771 764 l 394 -250 l 238 -250 m 575 896 q 506 922 532 896 q 481 990 481 947 q 506 1060 481 1035 q 575 1086 532 1086 q 645 1060 619 1086 q 671 990 671 1035 q 645 922 671 947 q 575 896 619 896 m 258 896 q 188 922 214 896 q 163 990 163 947 q 188 1060 163 1035 q 258 1086 214 1086 q 328 1060 301 1086 q 354 990 354 1035 q 328 922 354 947 q 258 896 301 896 z "},"ỵ":{"ha":833,"x_min":63,"x_max":771,"o":"m 238 -250 l 349 44 l 63 764 l 222 764 l 385 333 q 408 267 397 303 q 424 203 419 231 q 440 267 429 231 q 461 333 450 303 l 613 764 l 771 764 l 394 -250 l 238 -250 m 656 -304 q 578 -279 607 -304 q 549 -210 549 -254 q 578 -141 549 -167 q 656 -115 607 -115 q 733 -141 704 -115 q 763 -210 763 -167 q 733 -279 763 -254 q 656 -304 704 -304 z "},"ỳ":{"ha":833,"x_min":63,"x_max":771,"o":"m 238 -250 l 349 44 l 63 764 l 222 764 l 385 333 q 408 267 397 303 q 424 203 419 231 q 440 267 429 231 q 461 333 450 303 l 613 764 l 771 764 l 394 -250 l 238 -250 m 358 896 l 197 1090 l 364 1090 l 514 896 l 358 896 z "},"ỷ":{"ha":833,"x_min":63,"x_max":771,"o":"m 238 -250 l 349 44 l 63 764 l 222 764 l 385 333 q 408 267 397 303 q 424 203 419 231 q 440 267 429 231 q 461 333 450 303 l 613 764 l 771 764 l 394 -250 l 238 -250 m 353 896 l 421 982 q 442 1025 442 1007 q 399 1051 442 1051 l 288 1051 l 288 1150 l 433 1150 q 525 1121 490 1150 q 560 1042 560 1092 q 535 964 560 996 l 481 896 l 353 896 z "},"ȳ":{"ha":833,"x_min":63,"x_max":771,"o":"m 238 -250 l 349 44 l 63 764 l 222 764 l 385 333 q 408 267 397 303 q 424 203 419 231 q 440 267 429 231 q 461 333 450 303 l 613 764 l 771 764 l 394 -250 l 238 -250 m 186 925 l 186 1043 l 647 1043 l 647 925 l 186 925 z "},"ỹ":{"ha":833,"x_min":63,"x_max":771,"o":"m 238 -250 l 349 44 l 63 764 l 222 764 l 385 333 q 408 267 397 303 q 424 203 419 231 q 440 267 429 231 q 461 333 450 303 l 613 764 l 771 764 l 394 -250 l 238 -250 m 514 897 q 444 911 471 897 q 400 943 418 925 q 365 976 382 961 q 326 990 349 990 q 285 942 285 990 l 285 904 l 186 904 l 186 947 q 223 1051 186 1013 q 319 1090 260 1090 q 389 1076 363 1090 q 433 1043 415 1061 q 468 1011 451 1025 q 507 997 485 997 q 549 1042 549 997 l 549 1083 l 647 1083 l 647 1039 q 610 935 647 974 q 514 897 574 897 z "},"z":{"ha":833,"x_min":117,"x_max":717,"o":"m 117 0 l 117 142 l 529 631 l 129 631 l 129 764 l 701 764 l 701 622 l 283 133 l 717 133 l 717 0 l 117 0 z "},"ź":{"ha":833,"x_min":117,"x_max":717,"o":"m 117 0 l 117 142 l 529 631 l 129 631 l 129 764 l 701 764 l 701 622 l 283 133 l 717 133 l 717 0 l 117 0 m 324 896 l 471 1090 l 632 1090 l 475 896 l 324 896 z "},"ž":{"ha":833,"x_min":117,"x_max":717,"o":"m 117 0 l 117 142 l 529 631 l 129 631 l 129 764 l 701 764 l 701 622 l 283 133 l 717 133 l 717 0 l 117 0 m 347 896 l 156 1090 l 308 1090 l 418 985 l 524 1090 l 678 1090 l 486 896 l 347 896 z "},"ż":{"ha":833,"x_min":117,"x_max":717,"o":"m 117 0 l 117 142 l 529 631 l 129 631 l 129 764 l 701 764 l 701 622 l 283 133 l 717 133 l 717 0 l 117 0 m 417 896 q 339 922 368 896 q 310 990 310 947 q 339 1060 310 1035 q 417 1086 368 1086 q 494 1060 465 1086 q 524 990 524 1035 q 494 922 524 947 q 417 896 465 896 z "},"ª":{"ha":833,"x_min":239,"x_max":588,"o":"m 376 625 q 276 658 314 625 q 239 746 239 690 q 279 832 239 800 q 389 864 319 864 l 506 864 l 506 903 q 483 947 506 931 q 424 964 461 964 q 368 950 390 964 q 342 915 346 936 l 260 915 q 312 998 268 968 q 424 1028 356 1028 q 543 994 499 1028 q 588 903 588 961 l 588 632 l 510 632 l 510 708 l 506 708 q 456 647 490 669 q 376 625 422 625 m 399 685 q 477 708 449 685 q 506 771 506 731 l 506 804 l 389 804 q 321 746 321 804 q 342 701 321 718 q 399 685 364 685 z "},"º":{"ha":833,"x_min":249,"x_max":585,"o":"m 417 621 q 295 663 342 621 q 249 772 249 706 l 249 871 q 295 981 249 939 q 417 1024 342 1024 q 538 981 492 1024 q 585 871 585 939 l 585 772 q 538 663 585 706 q 417 621 492 621 m 417 689 q 479 712 456 689 q 503 772 503 735 l 503 871 q 479 932 503 908 q 417 956 456 956 q 354 932 378 956 q 331 871 331 908 l 331 772 q 354 712 331 735 q 417 689 378 689 z "},"А":{"ha":833,"x_min":60,"x_max":775,"o":"m 60 0 l 318 1014 l 515 1014 l 775 0 l 622 0 l 561 257 l 274 257 l 213 0 l 60 0 m 301 382 l 532 382 l 463 674 q 433 808 444 751 q 417 888 421 865 q 401 808 413 865 q 371 675 390 751 l 301 382 z "},"Б":{"ha":833,"x_min":119,"x_max":749,"o":"m 119 0 l 119 1014 l 706 1014 l 706 878 l 267 878 l 267 608 l 425 608 q 597 570 525 608 q 709 464 669 532 q 749 306 749 396 q 709 145 749 214 q 597 38 669 76 q 426 0 525 0 l 119 0 m 267 133 l 426 133 q 550 180 504 133 q 596 306 596 226 q 550 430 596 383 q 426 476 504 476 l 267 476 l 267 133 z "},"В":{"ha":833,"x_min":118,"x_max":749,"o":"m 118 0 l 118 1014 l 417 1014 q 642 944 560 1014 q 725 751 725 874 q 676 610 725 671 q 550 536 628 550 l 550 532 q 653 490 608 525 q 724 403 699 456 q 749 285 749 350 q 664 77 749 154 q 436 0 579 0 l 118 0 m 264 589 l 415 589 q 533 628 489 589 q 576 738 576 668 q 533 845 576 806 q 417 885 490 885 l 264 885 l 264 589 m 264 129 l 424 129 q 553 173 506 129 q 600 292 600 217 q 553 417 600 369 q 424 464 506 464 l 264 464 l 264 129 z "},"Г":{"ha":833,"x_min":175,"x_max":774,"o":"m 175 0 l 175 1014 l 774 1014 l 774 878 l 325 878 l 325 0 l 175 0 z "},"Ѓ":{"ha":833,"x_min":175,"x_max":774,"o":"m 175 0 l 175 1014 l 774 1014 l 774 878 l 325 878 l 325 0 l 175 0 m 351 1125 l 499 1319 l 660 1319 l 503 1125 l 351 1125 z "},"Ґ":{"ha":833,"x_min":175,"x_max":774,"o":"m 175 0 l 175 1014 l 631 1014 l 631 1146 l 774 1146 l 774 876 l 325 876 l 325 0 l 175 0 z "},"Д":{"ha":833,"x_min":33,"x_max":800,"o":"m 33 -194 l 33 126 l 90 126 q 138 250 113 167 q 165 432 164 333 l 175 1014 l 707 1014 l 707 126 l 800 126 l 800 -194 l 664 -194 l 664 0 l 169 0 l 169 -194 l 33 -194 m 243 126 l 561 126 l 561 885 l 315 885 l 310 432 q 286 246 308 328 q 243 126 264 164 z "},"Е":{"ha":833,"x_min":131,"x_max":726,"o":"m 131 0 l 131 1014 l 726 1014 l 726 881 l 278 881 l 278 592 l 678 592 l 678 463 l 278 463 l 278 133 l 726 133 l 726 0 l 131 0 z "},"Ё":{"ha":833,"x_min":131,"x_max":726,"o":"m 131 0 l 131 1014 l 726 1014 l 726 881 l 278 881 l 278 592 l 678 592 l 678 463 l 278 463 l 278 133 l 726 133 l 726 0 l 131 0 m 588 1129 q 519 1154 544 1129 q 493 1222 493 1179 q 519 1292 493 1267 q 588 1318 544 1318 q 658 1292 632 1318 q 683 1222 683 1267 q 658 1154 683 1179 q 588 1129 632 1129 m 271 1129 q 201 1154 226 1129 q 175 1222 175 1179 q 201 1292 175 1267 q 271 1318 226 1318 q 340 1292 314 1318 q 367 1222 367 1267 q 340 1154 367 1179 q 271 1129 314 1129 z "},"Ж":{"ha":833,"x_min":4,"x_max":829,"o":"m 4 0 l 179 525 l 17 1014 l 158 1014 l 297 579 l 358 579 l 358 1014 l 474 1014 l 474 579 l 538 579 l 675 1014 l 815 1014 l 650 526 l 829 0 l 689 0 l 535 469 l 474 469 l 476 0 l 360 0 l 358 469 l 294 469 l 143 0 l 4 0 z "},"З":{"ha":833,"x_min":64,"x_max":751,"o":"m 404 -14 q 228 24 304 -14 q 108 128 151 61 q 64 282 64 194 l 213 282 q 267 163 214 208 q 406 117 321 117 q 545 165 492 117 q 599 290 599 213 q 545 415 599 367 q 406 463 492 463 l 288 463 l 288 592 l 407 592 q 525 635 479 592 q 571 747 571 678 q 526 857 571 815 q 408 899 481 899 q 287 852 333 899 q 240 732 240 806 l 92 732 q 132 886 92 819 q 244 990 172 953 q 410 1028 315 1028 q 572 994 501 1028 q 681 900 642 960 q 721 761 721 840 q 676 616 721 678 q 558 538 631 554 l 558 535 q 698 447 644 518 q 751 279 751 376 q 707 126 751 193 q 585 23 663 60 q 404 -14 507 -14 z "},"И":{"ha":833,"x_min":113,"x_max":721,"o":"m 113 0 l 113 1014 l 253 1014 l 253 482 q 250 374 253 432 q 244 263 247 317 q 238 171 240 208 l 532 1014 l 721 1014 l 721 0 l 582 0 l 582 524 q 584 633 582 574 q 590 749 586 693 q 597 843 594 804 l 303 0 l 113 0 z "},"Й":{"ha":833,"x_min":113,"x_max":721,"o":"m 113 0 l 113 1014 l 253 1014 l 253 482 q 250 374 253 432 q 244 263 247 317 q 238 171 240 208 l 532 1014 l 721 1014 l 721 0 l 582 0 l 582 524 q 584 633 582 574 q 590 749 586 693 q 597 843 594 804 l 303 0 l 113 0 m 417 1117 q 249 1172 313 1117 q 185 1319 185 1228 l 301 1319 q 333 1239 301 1269 q 415 1208 364 1208 q 500 1239 468 1208 q 532 1319 532 1269 l 650 1319 q 585 1172 650 1228 q 417 1117 521 1117 z "},"К":{"ha":833,"x_min":117,"x_max":785,"o":"m 117 0 l 117 1014 l 267 1014 l 267 589 l 401 589 l 610 1014 l 772 1014 l 532 528 l 785 0 l 615 0 l 399 458 l 267 458 l 267 0 l 117 0 z "},"Ќ":{"ha":833,"x_min":117,"x_max":785,"o":"m 117 0 l 117 1014 l 267 1014 l 267 589 l 401 589 l 610 1014 l 772 1014 l 532 528 l 785 0 l 615 0 l 399 458 l 267 458 l 267 0 l 117 0 m 324 1125 l 471 1319 l 632 1319 l 475 1125 l 324 1125 z "},"Л":{"ha":833,"x_min":26,"x_max":714,"o":"m 26 -7 l 26 131 l 56 131 q 135 181 110 131 q 163 343 161 231 l 174 1014 l 714 1014 l 714 0 l 564 0 l 564 878 l 322 878 l 313 343 q 65 -7 307 -7 l 26 -7 z "},"М":{"ha":833,"x_min":88,"x_max":746,"o":"m 88 0 l 88 1014 l 293 1014 l 414 576 l 539 1014 l 746 1014 l 746 0 l 604 0 l 604 453 q 608 622 604 531 q 617 801 611 713 q 629 963 622 890 l 476 446 l 350 446 l 203 950 q 222 724 215 851 q 229 453 229 596 l 229 0 l 88 0 z "},"Н":{"ha":833,"x_min":118,"x_max":715,"o":"m 118 0 l 118 1014 l 268 1014 l 268 592 l 565 592 l 565 1014 l 715 1014 l 715 0 l 565 0 l 565 457 l 268 457 l 268 0 l 118 0 z "},"О":{"ha":833,"x_min":111,"x_max":722,"o":"m 417 -14 q 193 67 275 -14 q 111 296 111 149 l 111 718 q 193 947 111 865 q 417 1028 275 1028 q 640 947 558 1028 q 722 719 722 865 l 722 296 q 640 67 722 149 q 417 -14 558 -14 m 417 119 q 532 161 492 119 q 572 282 572 203 l 572 732 q 533 853 572 811 q 417 894 493 894 q 301 853 340 894 q 261 732 261 811 l 261 282 q 301 161 261 203 q 417 119 342 119 z "},"П":{"ha":833,"x_min":119,"x_max":714,"o":"m 119 0 l 119 1014 l 714 1014 l 714 0 l 564 0 l 564 878 l 269 878 l 269 0 l 119 0 z "},"Р":{"ha":833,"x_min":117,"x_max":772,"o":"m 117 0 l 117 1014 l 449 1014 q 620 976 547 1014 q 733 870 693 939 q 772 708 772 801 q 732 547 772 615 q 619 440 692 478 q 449 403 547 403 l 267 403 l 267 0 l 117 0 m 267 536 l 449 536 q 573 583 526 536 q 619 708 619 631 q 573 833 619 786 q 449 881 526 881 l 267 881 l 267 536 z "},"С":{"ha":833,"x_min":117,"x_max":738,"o":"m 428 -14 q 201 66 285 -14 q 117 282 117 146 l 117 732 q 201 949 117 869 q 428 1028 285 1028 q 653 948 569 1028 q 738 732 738 868 l 588 732 q 545 853 588 811 q 428 894 503 894 q 309 853 351 894 q 267 732 267 811 l 267 282 q 309 161 267 203 q 428 119 351 119 q 545 161 503 119 q 588 282 588 203 l 738 282 q 653 66 738 146 q 428 -14 569 -14 z "},"Т":{"ha":833,"x_min":71,"x_max":764,"o":"m 342 0 l 342 878 l 71 878 l 71 1014 l 764 1014 l 764 878 l 492 878 l 492 0 l 342 0 z "},"У":{"ha":833,"x_min":60,"x_max":775,"o":"m 253 0 l 356 261 l 60 1014 l 222 1014 l 389 543 q 415 458 404 500 q 429 392 426 415 q 441 458 432 415 q 464 543 450 500 l 614 1014 l 775 1014 l 411 0 l 253 0 z "},"Ў":{"ha":833,"x_min":60,"x_max":775,"o":"m 253 0 l 356 261 l 60 1014 l 222 1014 l 389 543 q 415 458 404 500 q 429 392 426 415 q 441 458 432 415 q 464 543 450 500 l 614 1014 l 775 1014 l 411 0 l 253 0 m 417 1117 q 249 1172 313 1117 q 185 1319 185 1228 l 301 1319 q 333 1239 301 1269 q 415 1208 364 1208 q 500 1239 468 1208 q 532 1319 532 1269 l 650 1319 q 585 1172 650 1228 q 417 1117 521 1117 z "},"Ф":{"ha":833,"x_min":56,"x_max":778,"o":"m 342 -35 l 342 76 q 194 114 258 78 q 92 216 129 150 q 56 369 56 282 l 56 667 q 92 824 56 757 q 194 927 129 890 q 342 965 258 964 l 342 1069 l 492 1069 l 492 965 q 640 927 575 964 q 741 824 704 890 q 778 667 778 757 l 778 369 q 741 216 778 282 q 640 114 704 150 q 492 76 575 78 l 492 -35 l 342 -35 m 353 199 l 353 843 q 235 796 281 843 q 189 667 189 749 l 189 369 q 235 244 189 290 q 353 199 281 199 m 481 199 q 599 244 553 199 q 644 369 644 290 l 644 667 q 599 796 644 749 q 481 843 553 843 l 481 199 z "},"Х":{"ha":833,"x_min":47,"x_max":786,"o":"m 47 0 l 333 517 l 64 1014 l 233 1014 l 375 738 q 400 685 388 711 q 419 644 413 658 q 437 685 425 658 q 463 738 449 711 l 607 1014 l 769 1014 l 500 522 l 786 0 l 617 0 l 460 300 q 433 353 446 326 q 414 396 421 381 q 396 353 408 381 q 371 301 383 326 l 211 0 l 47 0 z "},"Ч":{"ha":833,"x_min":94,"x_max":713,"o":"m 563 0 l 563 368 l 381 368 q 169 436 244 368 q 94 626 94 504 l 94 1014 l 244 1014 l 244 631 q 285 535 244 569 q 397 501 325 501 l 563 501 l 563 1014 l 713 1014 l 713 0 l 563 0 z "},"Ц":{"ha":833,"x_min":119,"x_max":790,"o":"m 654 -194 l 654 0 l 119 0 l 119 1014 l 269 1014 l 269 135 l 536 135 l 536 1014 l 686 1014 l 686 135 l 790 135 l 790 -194 l 654 -194 z "},"Ш":{"ha":833,"x_min":74,"x_max":760,"o":"m 76 0 l 74 1014 l 211 1014 l 211 126 l 357 126 l 357 1014 l 478 1014 l 478 126 l 624 126 l 624 1014 l 760 1014 l 760 0 l 76 0 z "},"Щ":{"ha":833,"x_min":74,"x_max":829,"o":"m 697 -194 l 697 0 l 74 0 l 74 1014 l 203 1014 l 203 126 l 351 126 l 351 1014 l 461 1014 l 461 126 l 608 126 l 608 1014 l 738 1014 l 738 126 l 829 126 l 829 -194 l 697 -194 z "},"Џ":{"ha":833,"x_min":119,"x_max":714,"o":"m 342 -174 l 342 0 l 119 0 l 119 1014 l 269 1014 l 269 138 l 564 138 l 564 1014 l 714 1014 l 714 0 l 492 0 l 492 -174 l 342 -174 z "},"Ь":{"ha":833,"x_min":119,"x_max":772,"o":"m 119 0 l 119 1014 l 269 1014 l 269 608 l 450 608 q 619 570 547 608 q 732 463 692 532 q 772 304 772 394 q 732 145 772 214 q 619 38 692 76 q 450 0 547 0 l 119 0 m 269 133 l 446 133 q 572 181 524 133 q 619 303 619 228 q 572 426 619 379 q 446 474 524 474 l 269 474 l 269 133 z "},"Ъ":{"ha":833,"x_min":-7,"x_max":772,"o":"m 178 0 l 178 885 l -7 885 l -7 1014 l 328 1014 l 328 604 l 450 604 q 619 566 547 604 q 732 460 692 528 q 772 301 772 393 q 732 143 772 211 q 619 38 692 75 q 450 0 547 0 l 178 0 m 328 133 l 446 133 q 572 180 524 133 q 619 301 619 226 q 572 424 619 378 q 446 469 524 469 l 328 469 l 328 133 z "},"Ы":{"ha":833,"x_min":74,"x_max":760,"o":"m 74 0 l 74 1014 l 210 1014 l 210 604 l 267 604 q 463 533 390 604 q 536 339 536 461 l 536 264 q 463 71 536 142 q 267 0 390 0 l 74 0 m 624 0 l 624 1014 l 760 1014 l 760 0 l 624 0 m 210 125 l 267 125 q 368 163 331 125 q 406 264 406 200 l 406 339 q 368 442 406 404 q 267 479 331 479 l 210 479 l 210 125 z "},"Љ":{"ha":833,"x_min":-8,"x_max":810,"o":"m -8 -7 l -8 119 l 17 119 q 96 274 94 119 l 104 1014 l 510 1014 l 510 604 l 571 604 q 744 542 678 604 q 810 375 810 479 l 810 228 q 744 62 810 124 q 571 0 678 0 l 383 0 l 383 896 l 238 896 l 232 274 q 175 63 231 133 q 18 -7 119 -7 l -8 -7 m 510 119 l 571 119 q 647 149 619 119 q 675 228 675 178 l 675 375 q 647 455 675 425 q 571 485 619 485 l 510 485 l 510 119 z "},"Њ":{"ha":833,"x_min":68,"x_max":810,"o":"m 68 0 l 68 1014 l 199 1014 l 199 608 l 383 608 l 383 1014 l 510 1014 l 510 608 l 571 608 q 744 547 679 608 q 810 379 810 485 l 810 228 q 744 61 810 122 q 571 0 679 0 l 383 0 l 383 489 l 199 489 l 199 0 l 68 0 m 510 119 l 571 119 q 650 148 622 119 q 678 228 678 176 l 678 379 q 649 460 678 431 q 571 489 621 489 l 510 489 l 510 119 z "},"Ѕ":{"ha":833,"x_min":90,"x_max":744,"o":"m 421 -14 q 181 65 271 -14 q 90 282 90 144 l 238 282 q 288 162 238 206 q 421 118 338 118 q 550 163 503 118 q 597 281 597 207 q 567 378 597 336 q 479 435 536 419 l 333 474 q 172 575 231 501 q 113 751 113 649 q 149 897 113 835 q 254 993 186 958 q 413 1028 322 1028 q 572 993 503 1028 q 678 897 640 958 q 717 753 717 835 l 569 753 q 526 858 569 818 q 413 897 482 897 q 301 858 343 897 q 258 754 258 818 q 287 668 258 703 q 367 619 315 633 l 517 579 q 683 471 622 551 q 744 281 744 390 q 704 124 744 190 q 592 22 664 58 q 421 -14 519 -14 z "},"Є":{"ha":833,"x_min":117,"x_max":738,"o":"m 428 -14 q 201 66 285 -14 q 117 282 117 146 l 117 732 q 201 949 117 869 q 428 1028 285 1028 q 653 948 569 1028 q 738 732 738 868 l 588 732 q 545 853 588 811 q 428 894 503 894 q 309 853 351 894 q 267 732 267 811 l 267 593 l 567 593 l 567 457 l 267 457 l 267 282 q 309 161 267 203 q 428 119 351 119 q 545 161 503 119 q 588 282 588 203 l 738 282 q 653 66 738 146 q 428 -14 569 -14 z "},"Э":{"ha":833,"x_min":96,"x_max":717,"o":"m 96 282 l 246 282 q 288 161 246 203 q 406 119 331 119 q 524 161 482 119 q 567 282 567 203 l 567 457 l 267 457 l 267 593 l 567 593 l 567 732 q 524 853 567 811 q 406 894 482 894 q 288 853 331 894 q 246 732 246 811 l 96 732 q 180 948 96 868 q 406 1028 264 1028 q 633 949 549 1028 q 717 732 717 869 l 717 282 q 633 66 717 146 q 406 -14 549 -14 q 180 66 264 -14 q 96 282 96 146 z "},"І":{"ha":833,"x_min":136,"x_max":699,"o":"m 136 0 l 136 136 l 340 136 l 340 878 l 136 878 l 136 1014 l 699 1014 l 699 878 l 493 878 l 493 136 l 699 136 l 699 0 l 136 0 z "},"Ї":{"ha":833,"x_min":136,"x_max":699,"o":"m 136 0 l 136 136 l 340 136 l 340 878 l 136 878 l 136 1014 l 699 1014 l 699 878 l 493 878 l 493 136 l 699 136 l 699 0 l 136 0 m 575 1129 q 506 1154 532 1129 q 481 1222 481 1179 q 506 1292 481 1267 q 575 1318 532 1318 q 645 1292 619 1318 q 671 1222 671 1267 q 645 1154 671 1179 q 575 1129 619 1129 m 258 1129 q 188 1154 214 1129 q 163 1222 163 1179 q 188 1292 163 1267 q 258 1318 214 1318 q 328 1292 301 1318 q 354 1222 354 1267 q 328 1154 354 1179 q 258 1129 301 1129 z "},"Ј":{"ha":833,"x_min":53,"x_max":699,"o":"m 375 -14 q 139 69 225 -14 q 53 296 53 153 l 203 296 q 248 165 203 213 q 375 118 293 118 q 502 165 456 118 q 549 296 549 211 l 549 1014 l 699 1014 l 699 296 q 612 69 699 153 q 375 -14 525 -14 z "},"Ћ":{"ha":833,"x_min":0,"x_max":760,"o":"m 149 0 l 149 879 l 0 879 l 0 1014 l 461 1014 l 461 879 l 299 879 l 299 567 l 319 589 q 536 694 419 694 q 699 624 638 694 q 760 435 760 553 l 760 0 l 610 0 l 610 414 q 500 563 610 563 q 363 486 436 563 l 299 419 l 299 0 l 149 0 z "},"Ю":{"ha":833,"x_min":74,"x_max":794,"o":"m 560 -14 q 393 56 456 -14 q 331 242 331 125 l 331 461 l 208 461 l 208 0 l 74 0 l 74 1014 l 208 1014 l 208 586 l 331 586 l 331 774 q 393 958 331 889 q 560 1028 456 1028 q 731 958 667 1028 q 794 774 794 889 l 794 242 q 731 56 794 125 q 560 -14 667 -14 m 557 104 q 633 139 606 104 q 660 238 660 174 l 660 778 q 633 875 660 840 q 557 910 606 910 q 481 875 508 910 q 454 778 454 840 l 454 238 q 481 139 454 174 q 557 104 508 104 z "},"Я":{"ha":833,"x_min":69,"x_max":714,"o":"m 69 0 l 272 436 q 132 540 183 465 q 81 717 81 615 q 120 874 81 807 q 231 977 160 940 q 399 1014 303 1014 l 714 1014 l 714 0 l 564 0 l 564 417 l 422 417 l 238 0 l 69 0 m 399 549 l 564 549 l 564 882 l 399 882 q 278 836 324 882 q 233 714 233 790 q 278 594 233 639 q 399 549 322 549 z "},"Ђ":{"ha":833,"x_min":0,"x_max":760,"o":"m 372 -250 l 372 -110 l 465 -110 q 571 -72 532 -110 q 610 32 610 -35 l 610 414 q 500 563 610 563 q 363 486 436 563 l 299 419 l 299 0 l 149 0 l 149 879 l 0 879 l 0 1014 l 461 1014 l 461 879 l 299 879 l 299 567 l 319 589 q 536 694 419 694 q 699 624 638 694 q 760 435 760 553 l 760 25 q 722 -119 760 -57 q 617 -216 685 -182 q 461 -250 550 -250 l 372 -250 z "},"Ғ":{"ha":833,"x_min":42,"x_max":774,"o":"m 175 0 l 175 444 l 42 444 l 42 574 l 175 574 l 175 1014 l 774 1014 l 774 878 l 325 878 l 325 574 l 532 574 l 532 444 l 325 444 l 325 0 l 175 0 z "},"Қ":{"ha":833,"x_min":100,"x_max":817,"o":"m 100 0 l 100 1014 l 250 1014 l 250 589 l 383 589 l 592 1014 l 756 1014 l 515 528 l 703 136 l 817 136 l 817 -194 l 685 -194 l 685 0 l 599 0 l 382 458 l 250 458 l 250 0 l 100 0 z "},"Ң":{"ha":833,"x_min":110,"x_max":781,"o":"m 110 0 l 110 1014 l 260 1014 l 260 592 l 557 592 l 557 1014 l 707 1014 l 707 136 l 781 136 l 781 -194 l 649 -194 l 649 0 l 557 0 l 557 457 l 260 457 l 260 0 l 110 0 z "},"Ү":{"ha":833,"x_min":40,"x_max":793,"o":"m 342 0 l 342 374 l 40 1014 l 199 1014 l 375 631 q 404 560 393 593 q 419 510 415 526 q 435 560 424 526 q 463 631 446 593 l 638 1014 l 793 1014 l 492 374 l 492 0 l 342 0 z "},"Ұ":{"ha":833,"x_min":40,"x_max":793,"o":"m 172 264 l 172 374 l 342 374 l 40 1014 l 199 1014 l 375 631 q 404 560 393 593 q 419 510 415 526 q 435 560 424 526 q 463 631 446 593 l 638 1014 l 793 1014 l 492 374 l 663 374 l 663 264 l 492 264 l 492 0 l 342 0 l 342 264 l 172 264 z "},"Ҷ":{"ha":833,"x_min":81,"x_max":767,"o":"m 549 0 l 549 368 l 367 368 q 156 436 231 368 q 81 626 81 504 l 81 1014 l 231 1014 l 231 631 q 271 535 231 569 q 383 501 311 501 l 549 501 l 549 1014 l 699 1014 l 699 136 l 767 136 l 767 -194 l 635 -194 l 635 0 l 549 0 z "},"Һ":{"ha":833,"x_min":122,"x_max":740,"o":"m 272 1014 l 272 646 l 454 646 q 665 578 589 646 q 740 388 740 510 l 740 0 l 590 0 l 590 383 q 549 478 590 444 q 436 513 508 513 l 272 513 l 272 0 l 122 0 l 122 1014 l 272 1014 z "},"Ә":{"ha":833,"x_min":103,"x_max":721,"o":"m 413 -14 q 187 66 271 -14 q 103 282 103 146 l 103 579 l 571 579 l 571 733 q 528 852 571 808 q 413 896 486 896 q 295 852 338 896 q 253 732 253 808 l 103 732 q 187 948 103 868 q 413 1028 271 1028 q 638 948 554 1028 q 721 732 721 868 l 721 282 q 638 67 721 147 q 413 -14 554 -14 m 413 118 q 528 162 486 118 q 571 282 571 206 l 571 443 l 253 443 l 253 282 q 295 162 253 206 q 413 118 338 118 z "},"Ӝ":{"ha":833,"x_min":4,"x_max":829,"o":"m 4 0 l 179 525 l 17 1014 l 158 1014 l 297 579 l 358 579 l 358 1014 l 474 1014 l 474 579 l 538 579 l 675 1014 l 815 1014 l 650 526 l 829 0 l 689 0 l 535 469 l 474 469 l 476 0 l 360 0 l 358 469 l 294 469 l 143 0 l 4 0 m 575 1129 q 506 1154 532 1129 q 481 1222 481 1179 q 506 1292 481 1267 q 575 1318 532 1318 q 645 1292 619 1318 q 671 1222 671 1267 q 645 1154 671 1179 q 575 1129 619 1129 m 258 1129 q 188 1154 214 1129 q 163 1222 163 1179 q 188 1292 163 1267 q 258 1318 214 1318 q 328 1292 301 1318 q 354 1222 354 1267 q 328 1154 354 1179 q 258 1129 301 1129 z "},"Ӟ":{"ha":833,"x_min":64,"x_max":751,"o":"m 404 -14 q 228 24 304 -14 q 108 128 151 61 q 64 282 64 194 l 213 282 q 267 163 214 208 q 406 117 321 117 q 545 165 492 117 q 599 290 599 213 q 545 415 599 367 q 406 463 492 463 l 288 463 l 288 592 l 407 592 q 525 635 479 592 q 571 747 571 678 q 526 857 571 815 q 408 899 481 899 q 287 852 333 899 q 240 732 240 806 l 92 732 q 132 886 92 819 q 244 990 172 953 q 410 1028 315 1028 q 572 994 501 1028 q 681 900 642 960 q 721 761 721 840 q 676 616 721 678 q 558 538 631 554 l 558 535 q 698 447 644 518 q 751 279 751 376 q 707 126 751 193 q 585 23 663 60 q 404 -14 507 -14 m 575 1129 q 506 1154 532 1129 q 481 1222 481 1179 q 506 1292 481 1267 q 575 1318 532 1318 q 645 1292 619 1318 q 671 1222 671 1267 q 645 1154 671 1179 q 575 1129 619 1129 m 258 1129 q 188 1154 214 1129 q 163 1222 163 1179 q 188 1292 163 1267 q 258 1318 214 1318 q 328 1292 301 1318 q 354 1222 354 1267 q 328 1154 354 1179 q 258 1129 301 1129 z "},"Ӥ":{"ha":833,"x_min":113,"x_max":721,"o":"m 113 0 l 113 1014 l 253 1014 l 253 482 q 250 374 253 432 q 244 263 247 317 q 238 171 240 208 l 532 1014 l 721 1014 l 721 0 l 582 0 l 582 524 q 584 633 582 574 q 590 749 586 693 q 597 843 594 804 l 303 0 l 113 0 m 575 1129 q 506 1154 532 1129 q 481 1222 481 1179 q 506 1292 481 1267 q 575 1318 532 1318 q 645 1292 619 1318 q 671 1222 671 1267 q 645 1154 671 1179 q 575 1129 619 1129 m 258 1129 q 188 1154 214 1129 q 163 1222 163 1179 q 188 1292 163 1267 q 258 1318 214 1318 q 328 1292 301 1318 q 354 1222 354 1267 q 328 1154 354 1179 q 258 1129 301 1129 z "},"Ӧ":{"ha":833,"x_min":111,"x_max":722,"o":"m 417 -14 q 193 67 275 -14 q 111 296 111 149 l 111 718 q 193 947 111 865 q 417 1028 275 1028 q 640 947 558 1028 q 722 719 722 865 l 722 296 q 640 67 722 149 q 417 -14 558 -14 m 417 119 q 532 161 492 119 q 572 282 572 203 l 572 732 q 533 853 572 811 q 417 894 493 894 q 301 853 340 894 q 261 732 261 811 l 261 282 q 301 161 261 203 q 417 119 342 119 m 575 1129 q 506 1154 532 1129 q 481 1222 481 1179 q 506 1292 481 1267 q 575 1318 532 1318 q 645 1292 619 1318 q 671 1222 671 1267 q 645 1154 671 1179 q 575 1129 619 1129 m 258 1129 q 188 1154 214 1129 q 163 1222 163 1179 q 188 1292 163 1267 q 258 1318 214 1318 q 328 1292 301 1318 q 354 1222 354 1267 q 328 1154 354 1179 q 258 1129 301 1129 z "},"Ө":{"ha":833,"x_min":113,"x_max":721,"o":"m 417 -14 q 193 67 274 -14 q 113 285 113 147 l 113 731 q 193 948 113 868 q 417 1028 274 1028 q 640 948 560 1028 q 721 731 721 868 l 721 285 q 640 67 721 149 q 417 -14 558 -14 m 257 583 l 576 583 l 576 728 q 536 853 576 808 q 417 897 496 897 q 297 853 338 897 q 257 728 257 808 l 257 583 m 417 117 q 535 162 494 117 q 576 288 576 207 l 576 454 l 257 454 l 257 288 q 298 162 257 207 q 417 117 339 117 z "},"Ӵ":{"ha":833,"x_min":94,"x_max":713,"o":"m 563 0 l 563 368 l 381 368 q 169 436 244 368 q 94 626 94 504 l 94 1014 l 244 1014 l 244 631 q 285 535 244 569 q 397 501 325 501 l 563 501 l 563 1014 l 713 1014 l 713 0 l 563 0 m 575 1129 q 506 1154 532 1129 q 481 1222 481 1179 q 506 1292 481 1267 q 575 1318 532 1318 q 645 1292 619 1318 q 671 1222 671 1267 q 645 1154 671 1179 q 575 1129 619 1129 m 258 1129 q 188 1154 214 1129 q 163 1222 163 1179 q 188 1292 163 1267 q 258 1318 214 1318 q 328 1292 301 1318 q 354 1222 354 1267 q 328 1154 354 1179 q 258 1129 301 1129 z "},"а":{"ha":833,"x_min":86,"x_max":717,"o":"m 340 -14 q 155 52 224 -14 q 86 225 86 118 q 160 399 86 333 q 356 465 233 465 l 567 465 l 567 521 q 418 653 567 653 q 311 628 351 653 q 268 558 271 603 l 121 558 q 207 716 128 654 q 419 778 286 778 q 639 710 561 778 q 717 522 717 643 l 717 0 l 569 0 l 569 143 l 568 143 q 499 28 558 69 q 340 -14 439 -14 m 383 110 q 517 151 468 110 q 567 261 567 192 l 567 360 l 367 360 q 272 325 307 360 q 236 236 236 290 q 275 144 236 178 q 383 110 314 110 z "},"б":{"ha":833,"x_min":108,"x_max":725,"o":"m 417 -14 q 192 68 275 -12 q 108 288 108 149 l 108 638 q 185 899 108 806 q 411 1006 263 993 l 682 1028 l 682 882 l 433 861 q 233 638 233 844 l 233 567 q 306 677 250 638 q 450 717 363 717 q 653 637 582 717 q 725 419 725 557 l 725 288 q 642 67 725 149 q 417 -14 558 -15 m 417 118 q 533 163 490 118 q 575 288 575 208 l 575 419 q 533 544 575 499 q 417 589 490 589 q 301 544 343 589 q 258 419 258 499 l 258 288 q 301 163 258 208 q 417 118 343 118 z "},"в":{"ha":833,"x_min":117,"x_max":742,"o":"m 117 0 l 117 764 l 460 764 q 651 712 581 764 q 722 571 722 660 q 678 461 722 504 q 561 414 633 418 l 561 408 q 694 351 646 403 q 742 217 742 300 q 668 58 742 117 q 469 0 594 0 l 117 0 m 264 447 l 457 447 q 543 473 513 447 q 574 546 574 499 q 543 617 574 592 q 457 643 513 643 l 264 643 l 264 447 m 264 121 l 465 121 q 560 149 526 121 q 594 231 594 178 q 560 310 594 281 q 465 339 526 339 l 264 339 l 264 121 z "},"г":{"ha":833,"x_min":179,"x_max":739,"o":"m 179 0 l 179 764 l 739 764 l 739 626 l 329 626 l 329 0 l 179 0 z "},"ѓ":{"ha":833,"x_min":179,"x_max":739,"o":"m 179 0 l 179 764 l 739 764 l 739 626 l 329 626 l 329 0 l 179 0 m 365 896 l 513 1090 l 674 1090 l 517 896 l 365 896 z "},"ґ":{"ha":833,"x_min":175,"x_max":733,"o":"m 175 0 l 175 764 l 590 764 l 590 910 l 733 910 l 733 626 l 325 626 l 325 0 l 175 0 z "},"д":{"ha":833,"x_min":35,"x_max":794,"o":"m 35 -194 l 35 131 l 89 131 q 140 219 115 156 q 168 414 165 283 l 174 764 l 697 764 l 697 131 l 794 131 l 794 -194 l 658 -194 l 658 0 l 171 0 l 171 -194 l 35 -194 m 239 131 l 551 131 l 551 635 l 314 635 l 311 413 q 286 219 308 285 q 239 131 264 154 z "},"е":{"ha":833,"x_min":107,"x_max":726,"o":"m 417 -14 q 192 68 276 -14 q 107 292 107 150 l 107 472 q 192 696 107 614 q 417 778 276 778 q 581 741 511 778 q 688 638 650 704 q 726 482 726 571 l 726 344 l 251 344 l 251 282 q 296 157 251 201 q 417 113 340 113 q 521 135 479 113 q 571 199 563 158 l 719 199 q 622 44 704 101 q 417 -14 539 -14 m 251 482 l 251 450 l 582 450 l 582 483 q 539 614 582 568 q 417 660 496 660 q 294 613 338 660 q 251 482 251 567 z "},"ё":{"ha":833,"x_min":107,"x_max":726,"o":"m 417 -14 q 192 68 276 -14 q 107 292 107 150 l 107 472 q 192 696 107 614 q 417 778 276 778 q 581 741 511 778 q 688 638 650 704 q 726 482 726 571 l 726 344 l 251 344 l 251 282 q 296 157 251 201 q 417 113 340 113 q 521 135 479 113 q 571 199 563 158 l 719 199 q 622 44 704 101 q 417 -14 539 -14 m 251 482 l 251 450 l 582 450 l 582 483 q 539 614 582 568 q 417 660 496 660 q 294 613 338 660 q 251 482 251 567 m 575 896 q 506 922 532 896 q 481 990 481 947 q 506 1060 481 1035 q 575 1086 532 1086 q 645 1060 619 1086 q 671 990 671 1035 q 645 922 671 947 q 575 896 619 896 m 258 896 q 188 922 214 896 q 163 990 163 947 q 188 1060 163 1035 q 258 1086 214 1086 q 328 1060 301 1086 q 354 990 354 1035 q 328 922 354 947 q 258 896 301 896 z "},"ж":{"ha":833,"x_min":13,"x_max":821,"o":"m 13 0 l 179 393 l 24 764 l 161 764 l 294 442 l 360 442 l 360 764 l 474 764 l 474 442 l 538 442 l 676 764 l 810 764 l 654 397 l 821 0 l 682 0 l 542 340 l 474 340 l 474 0 l 360 0 l 360 340 l 292 340 l 154 0 l 13 0 z "},"з":{"ha":833,"x_min":83,"x_max":742,"o":"m 365 -10 q 160 51 236 -10 q 83 214 83 111 l 231 214 q 267 144 231 169 q 365 118 304 118 l 447 118 q 550 147 513 118 q 588 224 588 175 q 550 303 588 274 q 447 332 513 332 l 275 332 l 275 456 l 442 456 q 536 482 501 456 q 571 553 571 508 q 535 623 571 597 q 442 649 500 649 l 374 649 q 283 627 317 649 q 249 568 250 606 l 100 568 q 175 718 101 663 q 374 774 249 774 l 442 774 q 646 721 569 774 q 722 575 722 668 q 677 467 722 510 q 561 419 632 424 l 561 413 q 693 355 644 407 q 742 221 742 303 q 662 53 742 117 q 447 -10 582 -10 l 365 -10 z "},"и":{"ha":833,"x_min":117,"x_max":717,"o":"m 117 0 l 117 764 l 256 764 l 256 374 q 253 246 256 313 q 239 133 250 179 l 532 764 l 717 764 l 717 0 l 578 0 l 578 390 q 580 517 578 453 q 594 624 582 581 l 301 0 l 117 0 z "},"й":{"ha":833,"x_min":117,"x_max":717,"o":"m 117 0 l 117 764 l 256 764 l 256 374 q 253 246 256 313 q 239 133 250 179 l 532 764 l 717 764 l 717 0 l 578 0 l 578 390 q 580 517 578 453 q 594 624 582 581 l 301 0 l 117 0 m 417 888 q 249 943 313 888 q 185 1090 185 999 l 301 1090 q 333 1010 301 1040 q 415 979 364 979 q 500 1010 468 979 q 532 1090 532 1040 l 650 1090 q 585 943 650 999 q 417 888 521 888 z "},"к":{"ha":833,"x_min":131,"x_max":792,"o":"m 131 0 l 131 764 l 281 764 l 281 460 l 417 460 l 608 764 l 778 764 l 544 396 l 792 0 l 619 0 l 417 324 l 281 324 l 281 0 l 131 0 z "},"ќ":{"ha":833,"x_min":131,"x_max":792,"o":"m 131 0 l 131 764 l 281 764 l 281 460 l 417 460 l 608 764 l 778 764 l 544 396 l 792 0 l 619 0 l 417 324 l 281 324 l 281 0 l 131 0 m 328 896 l 475 1090 l 636 1090 l 479 896 l 328 896 z "}}}
